<svg xmlns="http://www.w3.org/2000/svg" viewBox="0 0 192 192" width="192" height="192" role="img" aria-label="HomeOps Avatar V2 sample"><g id="avatar-v2-layer-back-hair"><path data-hair-style="longSoft" d="M47 70c-2-29 18-47 49-47 30 0 50 18 49 48 6 31-7 57-31 65-2-17-7-35-18-51-11 16-16 34-18 51-24-8-37-34-31-66z" fill="#4e344d" stroke="#3f2a3d" stroke-width="3"/><path d="M61 74c-2 22 3 42 16 58M132 74c2 22-3 42-17 58" fill="none" stroke="#3f2a3d" stroke-width="3" stroke-linecap="round" opacity="0.38"/></g><g id="avatar-v2-layer-shirt"><path data-clothing-asset="dress" d="M56 152L42 173H150L136 152Z" fill="#9edfc0" stroke="#4d846d" stroke-width="3" stroke-linejoin="round"/><path d="M70 160q26 9 52 0" fill="none" stroke="#c1edd7" stroke-width="4" stroke-linecap="round" opacity="0.5"/><path d="M55 153c5-19 21-31 41-31s36 12 41 31z" fill="#efa0b8" stroke="#9b526b" stroke-width="3"/><path d="M74 125c7 12 41 12 48 0" fill="none" stroke="#9b526b" stroke-width="3"/><path d="M60 150h72" stroke="#fac3d2" stroke-width="4" stroke-linecap="round" opacity="0.45"/></g><g id="avatar-v2-layer-base"><ellipse data-anatomy="ear-left" cx="38" cy="97" rx="9" ry="12" fill="#f4bf9b" stroke="#9f5f55" stroke-width="3"/><ellipse data-anatomy="ear-right" cx="154" cy="97" rx="9" ry="12" fill="#f4bf9b" stroke="#9f5f55" stroke-width="3"/><path data-anatomy="head-wide" d="M57 52C75 38 117 38 135 52C150 64 152 97 137 113C119 133 73 133 55 113C40 97 42 64 57 52z" fill="#f4bf9b" stroke="#9f5f55" stroke-width="3"/><path d="M58 62c17-17 45-21 64-2" fill="none" stroke="#ffd8bf" stroke-width="8" stroke-linecap="round" opacity="0.4"/><circle cx="75" cy="86" r="5" fill="#3d2c30"/><circle cx="117" cy="86" r="5" fill="#3d2c30"/><circle cx="77" cy="84" r="1.5" fill="#fff8f2"/><circle cx="115" cy="84" r="1.5" fill="#fff8f2"/></g><g id="avatar-v2-layer-mouth" data-mouth-style="openSmile"><path d="M80 104Q96 108 112 104Q96 121 80 104Z" fill="#8a5152" stroke="#7a4545" stroke-width="3" stroke-linejoin="round"/><path d="M83 105Q96 108 109 105L108 108Q96 111 84 108Z" fill="#fff8f2"/></g><g id="avatar-v2-layer-front-hair"><path data-hair-style="longSoft" d="M50 65c5-24 23-39 49-39 24 0 41 13 47 37-17-6-33-7-49-2-15 5-31 9-47 4z" fill="#6f4a66" stroke="#3f2a3d" stroke-width="3"/><path d="M95 28c-6 17-19 30-39 38M103 30c15 8 27 19 39 34" fill="none" stroke="#3f2a3d" stroke-width="3" stroke-linecap="round" opacity="0.45"/></g><g id="avatar-v2-layer-glasses" fill="none" stroke="#4b2f3f" stroke-width="4" stroke-linecap="round"><rect x="60" y="74" width="30" height="24" rx="8"/><rect x="102" y="74" width="30" height="24" rx="8"/><path fill="none" d="M90 86H102"/><path fill="none" d="M60 84L47 89M132 84L145 89"/></g><g id="avatar-v2-layer-hair-highlights"><path data-hair-highlight="longSoft" d="M65 54c17-13 38-17 60-11" fill="none" stroke="#92708a" stroke-width="5" stroke-linecap="round" opacity="0.52"/><path data-hair-highlight="longSoft" d="M126 75c3 18-1 35-10 50" fill="none" stroke="#92708a" stroke-width="4" stroke-linecap="round" opacity="0.38"/></g><g id="avatar-v2-layer-accessory" data-avatar-mount="hairLeft" transform="translate(66 67) rotate(-12) scale(0.92)"><circle data-accessory-asset="flower" cx="0" cy="0" r="5" fill="#b6ddf6" stroke="#417895" stroke-width="2"/><circle cx="-8" cy="0" r="6" fill="#8fc8ef" stroke="#417895" stroke-width="2"/><circle cx="8" cy="0" r="6" fill="#8fc8ef" stroke="#417895" stroke-width="2"/><circle cx="0" cy="-8" r="6" fill="#8fc8ef" stroke="#417895" stroke-width="2"/><circle cx="0" cy="8" r="6" fill="#8fc8ef" stroke="#417895" stroke-width="2"/><path d="M-11 10c7 5 16 5 22 0" fill="none" stroke="#417895" stroke-width="3" stroke-linecap="round" opacity="0.55"/></g></svg>
