<svg xmlns="http://www.w3.org/2000/svg" viewBox="0 0 192 192" width="192" height="192" role="img" aria-label="HomeOps Avatar V2 sample"><g id="avatar-v2-layer-back-hair"><path d="M49 76c-4-28 15-49 47-50 32 0 52 21 48 51-9-10-19-14-31-12-16 3-31 6-48-2-7 3-12 7-16 13z" fill="#7d3f24" stroke="#5f321f" stroke-width="3"/></g><g id="avatar-v2-layer-shirt"><path data-clothing-asset="jacket" d="M41 173c7-33 27-51 55-51s48 18 55 51z" fill="#3d7750" stroke="#1c3b28" stroke-width="3"/><path d="M88 126h16l-3 47h-10z" fill="#8fc8ef" stroke="#417895" stroke-width="2.5"/><path d="M88 132h16M88 142h16M88 152h16M88 162h16" stroke="#67a8d8" stroke-width="1.6" stroke-linecap="round"/><path d="M69 128c9-6 20-8 27-8l-8 16-22 12z" fill="#29583b" stroke="#1c3b28" stroke-width="3" stroke-linejoin="round"/><path d="M123 128c-9-6-20-8-27-8l8 16 22 12z" fill="#29583b" stroke="#1c3b28" stroke-width="3" stroke-linejoin="round"/><path d="M96 126v47" stroke="#417895" stroke-width="2" stroke-linecap="round"/></g><g id="avatar-v2-layer-base"><ellipse data-anatomy="ear-left" cx="51" cy="94" rx="8" ry="13.5" fill="#9b6547" stroke="#55332b" stroke-width="3"/><ellipse data-anatomy="ear-right" cx="141" cy="94" rx="8" ry="13.5" fill="#9b6547" stroke="#55332b" stroke-width="3"/><path data-anatomy="head-oval" d="M96 27c27 0 44 22 44 53 0 34-18 53-44 53s-44-19-44-53c0-31 17-53 44-53z" fill="#9b6547" stroke="#55332b" stroke-width="3"/><path d="M71 49c17-17 45-21 64-2" fill="none" stroke="#bd8060" stroke-width="8" stroke-linecap="round" opacity="0.4"/><circle cx="79" cy="82" r="5" fill="#3d2c30"/><circle cx="113" cy="82" r="5" fill="#3d2c30"/><circle cx="81" cy="80" r="1.5" fill="#fff8f2"/><circle cx="111" cy="80" r="1.5" fill="#fff8f2"/></g><g id="avatar-v2-layer-mouth" data-mouth-style="smile"><path d="M77 104c10 15 28 15 38-1" fill="none" stroke="#7a4545" stroke-width="4" stroke-linecap="round"/></g><g id="avatar-v2-layer-front-hair"><path d="M50 65c11-25 31-34 57-31 20 2 34 11 40 27-15-5-29-5-43-1l-11 18-8-15c-11 9-22 12-35 2z" fill="#a75f34" stroke="#5f321f" stroke-width="3"/><path d="M68 38c-9 9-14 17-16 28M122 39c13 8 20 16 24 25" fill="none" stroke="#5f321f" stroke-width="3" stroke-linecap="round" opacity="0.45"/></g><g id="avatar-v2-layer-glasses" fill="none" stroke="#30495c" stroke-width="4" stroke-linecap="round"><rect x="64.5" y="70" width="29" height="24" rx="13"/><rect x="98.5" y="70" width="29" height="24" rx="13"/><path fill="none" d="M93.5 82H98.5"/><path fill="none" d="M64.5 80L59 86M127.5 80L133 86"/></g><g id="avatar-v2-layer-hair-highlights"><path d="M70 44c18-10 39-10 55 1" fill="none" stroke="#c98250" stroke-width="5" stroke-linecap="round" opacity="0.55"/><path d="M88 61c10-7 22-9 34-6" fill="none" stroke="#c98250" stroke-width="4" stroke-linecap="round" opacity="0.35"/></g><g id="avatar-v2-layer-accessory" data-avatar-mount="chestCenter" transform="translate(96 151) rotate(0) scale(1)"><path d="M0-13l4 8 9 1-7 6 2 9-8-4-8 4 2-9-7-6 9-1z" fill="#8fc8ef" stroke="#417895" stroke-width="3"/><path d="M-3-5l3-4 3 4" fill="none" stroke="#b6ddf6" stroke-width="3" stroke-linecap="round" opacity="0.7"/></g></svg>
