<svg xmlns="http://www.w3.org/2000/svg" viewBox="0 0 192 192" width="192" height="192" role="img" aria-label="HomeOps Avatar V2 sample"><g id="avatar-v2-layer-shirt"><path data-clothing-asset="jacket" d="M41 173c7-33 27-51 55-51s48 18 55 51z" fill="#7b5aa2" stroke="#402c59" stroke-width="3"/><path d="M88 126h16l-3 47h-10z" fill="#f2bb92" stroke="#986347" stroke-width="2.5"/><path d="M88 132h16M88 142h16M88 152h16M88 162h16" stroke="#d6946b" stroke-width="1.6" stroke-linecap="round"/><path d="M69 128c9-6 20-8 27-8l-8 16-22 12z" fill="#5b417f" stroke="#402c59" stroke-width="3" stroke-linejoin="round"/><path d="M123 128c-9-6-20-8-27-8l8 16 22 12z" fill="#5b417f" stroke="#402c59" stroke-width="3" stroke-linejoin="round"/><path d="M96 126v47" stroke="#986347" stroke-width="2" stroke-linecap="round"/></g><g id="avatar-v2-layer-base"><ellipse data-anatomy="ear-left" cx="44" cy="95" rx="8.5" ry="12.5" fill="#f4bf9b" stroke="#9f5f55" stroke-width="3"/><ellipse data-anatomy="ear-right" cx="148" cy="95" rx="8.5" ry="12.5" fill="#f4bf9b" stroke="#9f5f55" stroke-width="3"/><path data-anatomy="head-round" d="M96 34c30 0 51 20 51 46 0 29-21 46-51 46s-51-17-51-46c0-26 21-46 51-46z" fill="#f4bf9b" stroke="#9f5f55" stroke-width="3"/><path d="M64 56c17-17 45-21 64-2" fill="none" stroke="#ffd8bf" stroke-width="8" stroke-linecap="round" opacity="0.4"/><circle cx="77" cy="83" r="5" fill="#3d2c30"/><circle cx="115" cy="83" r="5" fill="#3d2c30"/><circle cx="79" cy="81" r="1.5" fill="#fff8f2"/><circle cx="113" cy="81" r="1.5" fill="#fff8f2"/></g><g id="avatar-v2-layer-mouth" data-mouth-style="determined"><path d="M80 104Q96 107 112 104" fill="none" stroke="#7a4545" stroke-width="4" stroke-linecap="round"/></g><g id="avatar-v2-layer-front-hair"><path d="M51 66c6-26 25-39 52-39 22 0 38 12 43 33-31-12-53-3-78 14-6 4-12 2-17-8z" fill="#3f67d2" stroke="#1f3472" stroke-width="3"/></g><g id="avatar-v2-layer-glasses" stroke="#30495c" stroke-width="3" stroke-linejoin="round"><path fill="#587c9b" d="M77 71L79.82 79.12L88.41 79.29L81.57 84.48L84.05 92.71L77 87.8L69.95 92.71L72.43 84.48L65.59 79.29L74.18 79.12Z"/><path fill="#587c9b" d="M115 71L117.82 79.12L126.41 79.29L119.57 84.48L122.05 92.71L115 87.8L107.95 92.71L110.43 84.48L103.59 79.29L112.18 79.12Z"/><path fill="none" stroke-linecap="round" d="M89 83H103M65 81L52.5 87M127 81L139.5 87"/></g><g id="avatar-v2-layer-hair-highlights"><path d="M69 42c16-9 38-10 54 0" fill="none" stroke="#6f90ea" stroke-width="6" stroke-linecap="round" opacity="0.45"/></g><g id="avatar-v2-layer-accessory" data-avatar-mount="hairRight" transform="translate(127 60) rotate(12) scale(0.92)"><path data-accessory-asset="leafPin" d="M-14 2C-5-14 10-16 17-4 10 13-5 17-14 2z" fill="#9edfc0" stroke="#4f8f70" stroke-width="3"/><path d="M-10 1C-2-1 7-4 14-8" fill="none" stroke="#c5efd9" stroke-width="3" stroke-linecap="round"/><path d="M-2-1l-3-7M4-3l3 6" fill="none" stroke="#4f8f70" stroke-width="2" stroke-linecap="round" opacity="0.55"/></g></svg>
