<svg xmlns="http://www.w3.org/2000/svg" viewBox="0 0 192 192" width="192" height="192" role="img" aria-label="HomeOps Avatar V2 sample"><g id="avatar-v2-layer-back-hair"><path data-hair-style="curlyPlayful" data-concept="loose-wavy-curls-fixed" d="M49 71c-2-27 18-46 48-46 29 1 48 19 47 45 7 24 0 45-18 58-5-18-13-31-27-42-14 10-24 24-30 42-18-13-26-34-20-57z" fill="#6b45af" stroke="#4a307b" stroke-width="3"/><path d="M61 74c3 19 10 34 22 46M132 72c-2 19-10 34-23 46" fill="none" stroke="#4a307b" stroke-width="3" stroke-linecap="round" opacity="0.38"/></g><g id="avatar-v2-layer-shirt"><path data-clothing-asset="polo" d="M42 173c8-33 27-51 54-51s46 18 54 51z" fill="#44b3b0" stroke="#216565" stroke-width="3"/><path d="M60 154h72" stroke="#73d1cf" stroke-width="5" stroke-linecap="round" opacity="0.4"/><rect x="91" y="132" width="10" height="27" rx="2.5" fill="#ef7f6f" stroke="#994237" stroke-width="2.5"/><path d="M82 123L96 138L84 142Z" fill="#ef7f6f" stroke="#994237" stroke-width="2.5" stroke-linejoin="round"/><path d="M110 123L96 138L108 142Z" fill="#ef7f6f" stroke="#994237" stroke-width="2.5" stroke-linejoin="round"/><circle cx="96" cy="142" r="1.9" fill="#994237"/><circle cx="96" cy="151" r="1.9" fill="#994237"/></g><g id="avatar-v2-layer-base"><ellipse data-anatomy="ear-left" cx="51" cy="94" rx="8" ry="13.5" fill="#d99f67" stroke="#7f523f" stroke-width="3"/><ellipse data-anatomy="ear-right" cx="141" cy="94" rx="8" ry="13.5" fill="#d99f67" stroke="#7f523f" stroke-width="3"/><path data-anatomy="head-oval" d="M96 27c27 0 44 22 44 53 0 34-18 53-44 53s-44-19-44-53c0-31 17-53 44-53z" fill="#d99f67" stroke="#7f523f" stroke-width="3"/><path d="M71 49c17-17 45-21 64-2" fill="none" stroke="#efbd87" stroke-width="8" stroke-linecap="round" opacity="0.4"/><circle cx="79" cy="82" r="5" fill="#3d2c30"/><circle cx="113" cy="82" r="5" fill="#3d2c30"/><circle cx="81" cy="80" r="1.5" fill="#fff8f2"/><circle cx="111" cy="80" r="1.5" fill="#fff8f2"/></g><g id="avatar-v2-layer-mouth" data-mouth-style="laughing"><path d="M78 103Q96 107 114 103Q96 128 78 103Z" fill="#8a5152" stroke="#7a4545" stroke-width="3" stroke-linejoin="round"/><path d="M81 104Q96 107 111 104L110 108Q96 111 82 108Z" fill="#fff8f2"/><path d="M88 115Q96 112 104 115Q106 125 96 125Q86 125 88 115Z" fill="#d98a8a"/></g><g id="avatar-v2-layer-accessory" data-accessory-asset="headband" data-accessory-layer-rule="partial-occlusion-rear" data-headband-model="anatomy-anchor-curve"><path d="M58.2 65.2C71.4 37.6 120.6 37.6 133.8 65.2" fill="none" stroke="#4f8f70" stroke-width="8" stroke-linecap="round"/><path d="M61.2 64.2C74.4 42.6 117.6 42.6 130.8 64.2" fill="none" stroke="#9edfc0" stroke-width="4" stroke-linecap="round"/></g><g id="avatar-v2-layer-front-hair"><path data-hair-style="curlyPlayful" data-concept="loose-wavy-curls-fixed" d="M51 65c7-23 25-37 49-37 23 0 39 13 44 34-12-5-25-4-36 2-10 5-20 8-30 6-9-1-18-3-27-5z" fill="#8f63d7" stroke="#4a307b" stroke-width="3"/><path d="M97 29c-7 12-18 22-36 34M103 31c14 7 25 17 36 31M76 70c10 6 24 4 37-4" fill="none" stroke="#4a307b" stroke-width="3" stroke-linecap="round" opacity="0.5"/></g><g id="avatar-v2-layer-glasses" stroke="#4b2f3f" stroke-width="3" stroke-linejoin="round"><path fill="#7f5369" d="M79 90C67 79 67 67 79 74C91 67 91 79 79 90Z"/><path fill="#7f5369" d="M113 90C101 79 101 67 113 74C125 67 125 79 113 90Z"/><path fill="none" stroke-linecap="round" d="M91 82H101M67 80L59 86M125 80L133 86"/></g><g id="avatar-v2-layer-hair-highlights"><path data-hair-highlight="curlyPlayful" data-concept="loose-wavy-curls-fixed" d="M66 54c16-13 34-17 55-10" fill="none" stroke="#b090ee" stroke-width="4" stroke-linecap="round" opacity="0.58"/><path data-hair-highlight="curlyPlayful" data-concept="loose-wavy-curls-fixed" d="M121 64c7 4 12 11 14 20" fill="none" stroke="#b090ee" stroke-width="3" stroke-linecap="round" opacity="0.42"/></g><g id="avatar-v2-layer-accessory-visible" data-accessory-asset="headband" data-accessory-layer-rule="partial-occlusion-visible" data-headband-model="anatomy-anchor-curve"><path d="M58.2 65.2C63.2 58.2 67.4 45.6 73.4 42.6M118.6 42.6C124.6 45.6 128.8 58.2 133.8 65.2" fill="none" stroke="#4f8f70" stroke-width="8" stroke-linecap="round"/><path d="M61.2 64.2C65.2 59.2 70.4 47.6 76.4 44.6M115.6 44.6C121.6 47.6 126.8 59.2 130.8 64.2" fill="none" stroke="#9edfc0" stroke-width="4" stroke-linecap="round"/></g></svg>
