<svg xmlns="http://www.w3.org/2000/svg" viewBox="0 0 160 160" role="img" aria-labelledby="title desc" data-asset-name="child-family-participation" data-asset-variant="group" data-intended-size="160px" data-color-slots="Primary Secondary Accent Highlight Shadow Background MemberColor">
<title>child-family-participation group</title>
<desc>HomeOps owned group asset for child-family-participation; uses semantic color slots and rounded layered shapes.</desc>
<style>:root{--asset-primary:#f4a6a6;--asset-secondary:#f8dd9f;--asset-accent:#596f8f;--asset-highlight:#fff8df;--asset-shadow:#8a7a641f;--asset-background:#f7efe7;--asset-neutral-warm:#fff4df;--asset-member-color:#91c7b1}.primary{fill:var(--asset-primary,currentColor)}.secondary{fill:var(--asset-secondary,currentColor)}.accent{fill:var(--asset-accent,currentColor)}.highlight{fill:var(--asset-highlight,#fff)}.shadow{fill:var(--asset-shadow,rgba(0,0,0,.12))}.background{fill:var(--asset-background,transparent)}.neutral{fill:var(--asset-neutral-warm,#fff4df)}.member{fill:var(--asset-member-color,var(--asset-secondary,currentColor))}.stroke{stroke:var(--asset-accent,currentColor);stroke-linecap:round;stroke-linejoin:round;fill:none}</style>
<ellipse class="shadow" cx="80" cy="142" rx="50" ry="8"/><path class="background" d="M27 58c14-35 68-45 99-15 30 29 19 76-19 90-43 16-89-9-91-47-.5-10 3-20 11-28Z"/><g transform="translate(32 26) scale(4)"><circle class="primary" cx="7" cy="10" r="3"/><circle class="member" cx="12" cy="8" r="3.5"/><circle class="secondary" cx="17" cy="10" r="3"/><path class="accent" d="M4 18c.8-3 3-4 8-4s7.2 1 8 4v1H4v-1Z"/><circle class="highlight" cx="10.5" cy="6.8" r=".8"/></g><circle class="highlight" cx="42" cy="51" r="5"/>
</svg>
