<svg xmlns="http://www.w3.org/2000/svg" viewBox="0 0 160 160" role="img" aria-labelledby="title desc" data-asset-name="celebration-memory" data-asset-variant="keepsake" data-intended-size="160px" data-color-slots="Primary Secondary Accent Highlight Shadow Background NeutralWarm">
<title>celebration-memory keepsake</title>
<desc>HomeOps owned keepsake asset for celebration-memory; uses semantic color slots and rounded layered shapes.</desc>
<style>:root{--asset-primary:#f4a6a6;--asset-secondary:#f8dd9f;--asset-accent:#596f8f;--asset-highlight:#fff8df;--asset-shadow:#8a7a641f;--asset-background:#f7efe7;--asset-neutral-warm:#fff4df;--asset-member-color:#91c7b1}.primary{fill:var(--asset-primary,currentColor)}.secondary{fill:var(--asset-secondary,currentColor)}.accent{fill:var(--asset-accent,currentColor)}.highlight{fill:var(--asset-highlight,#fff)}.shadow{fill:var(--asset-shadow,rgba(0,0,0,.12))}.background{fill:var(--asset-background,transparent)}.neutral{fill:var(--asset-neutral-warm,#fff4df)}.member{fill:var(--asset-member-color,var(--asset-secondary,currentColor))}.stroke{stroke:var(--asset-accent,currentColor);stroke-linecap:round;stroke-linejoin:round;fill:none}</style>
<ellipse class="shadow" cx="80" cy="142" rx="50" ry="8"/><path class="background" d="M28 48c20-31 72-31 99 1 23 28 13 69-20 82-38 16-86-2-94-36-3-15 3-34 15-47Z"/><g transform="translate(32 24) scale(4)"><path class="neutral" d="M6 4h12v16l-6-3-6 3V4Z"/><path class="primary" d="M8 7h8v6H8z" rx="2"/><circle class="secondary" cx="11" cy="10" r="1.8"/><path class="stroke" d="M9 15h6" stroke-width="1.4"/></g><circle class="highlight" cx="118" cy="44" r="6"/><circle class="secondary" cx="42" cy="113" r="7"/>
</svg>
