<?xml version="1.0" encoding="UTF-8"?>
<svg id="avatar-head-shapes-v1-variety" xmlns="http://www.w3.org/2000/svg" viewBox="0 0 780 650" role="img" aria-labelledby="avatar-head-shapes-v1-title avatar-head-shapes-v1-desc">
<title id="avatar-head-shapes-v1-title">Avatar Head Shapes V1 variety sheet</title>
<desc id="avatar-head-shapes-v1-desc">Renderer-generated avatars demonstrating round, oval, and wide head shapes with representative eyes, mouths, glasses, hairstyles, and accessories.</desc>
<rect id="sheet-background" width="780" height="650" fill="#f6efe3"/>
<g id="head-shape-cell-1" transform="translate(24 40)"><title>Round head shape combination 1</title><rect id="head-shape-card-1" x="0" y="0" width="210" height="260" rx="24" fill="#fffaf2" stroke="#eadfce"/><g id="head-shape-avatar-1" transform="translate(25 18) scale(0.78)"><g id="avatar-v2-layer-back-hair"><path data-hair-style="shortMessy" d="M47 73c-1-26 18-44 49-45 31 0 51 17 50 43-10-6-22-8-35-5-18 4-35 2-50-6-6 3-11 8-14 13z" fill="#43271f" stroke="#35211d" stroke-width="3"/></g><g id="avatar-v2-layer-shirt"><path data-clothing-asset="hoodie" d="M41 173c7-33 27-51 55-51s48 18 55 51z" fill="#8fc8ef" stroke="#417895" stroke-width="3"/><path d="M63 139c10-17 23-24 33-24s23 7 33 24c-12 11-54 11-66 0z" fill="#67a8d8" stroke="#417895" stroke-width="3"/><path d="M78 130c8 9 27 11 36 0" fill="none" stroke="#b6ddf6" stroke-width="5" stroke-linecap="round" opacity="0.65"/><path d="M88 137l-4 21M104 137l4 21" stroke="#417895" stroke-width="3" stroke-linecap="round"/><circle cx="84" cy="160" r="2.5" fill="#417895"/><circle cx="108" cy="160" r="2.5" fill="#417895"/></g><g id="avatar-v2-layer-base"><ellipse data-anatomy="ear-left" cx="44" cy="95" rx="8.5" ry="12.5" fill="#d8a37d" stroke="#7e543f" stroke-width="3"/><ellipse data-anatomy="ear-right" cx="148" cy="95" rx="8.5" ry="12.5" fill="#d8a37d" stroke="#7e543f" stroke-width="3"/><path data-anatomy="head-round" d="M96 34c30 0 51 20 51 46 0 29-21 46-51 46s-51-17-51-46c0-26 21-46 51-46z" fill="#d8a37d" stroke="#7e543f" stroke-width="3"/><path d="M64 56c17-17 45-21 64-2" fill="none" stroke="#edc09b" stroke-width="8" stroke-linecap="round" opacity="0.4"/></g><g id="avatar-v2-layer-eyes" data-eye-style="classicRound"><circle cx="77" cy="83" r="5" fill="#3d2c30"/><circle cx="79" cy="81" r="1.5" fill="#fff8f2"/><circle cx="115" cy="83" r="5" fill="#3d2c30"/><circle cx="113" cy="81" r="1.5" fill="#fff8f2"/></g><g id="avatar-v2-layer-mouth" data-mouth-style="smile"><path d="M77 102c10 15 28 15 38-1" fill="none" stroke="#7a4545" stroke-width="4" stroke-linecap="round"/></g><g id="avatar-v2-layer-front-hair"><path data-hair-style="shortMessy" d="M49 66c7-22 25-36 49-37 18-1 34 5 45 17 4 4 6 9 7 15-11-4-22-3-33 3l-9 13-10-17-15 19-6-17c-10 8-20 9-28 4z" fill="#68402f" stroke="#35211d" stroke-width="3"/><path d="M62 47c8-8 19-13 32-15M88 35c-5 8-8 17-9 27M116 36c10 5 17 13 22 24" fill="none" stroke="#35211d" stroke-width="3" stroke-linecap="round" opacity="0.46"/></g><g id="avatar-v2-layer-hair-highlights"><path data-hair-highlight="shortMessy" d="M68 45c14-8 33-10 50-4" fill="none" stroke="#8a5d47" stroke-width="5" stroke-linecap="round" opacity="0.58"/><path data-hair-highlight="shortMessy" d="M90 56c-4 5-7 10-11 15" fill="none" stroke="#8a5d47" stroke-width="4" stroke-linecap="round" opacity="0.42"/></g><g id="avatar-v2-layer-accessory" data-avatar-mount="hairRight" transform="translate(127 60) rotate(12) scale(0.92)"><path data-accessory-asset="star" d="M0-14l5 9 10 1-7 7 2 10-10-5-10 5 2-10-7-7 10-1z" fill="#9edfc0" stroke="#4f8f70" stroke-width="3"/><path d="M-3-4l3-4 3 4" fill="none" stroke="#c5efd9" stroke-width="3" stroke-linecap="round" opacity="0.7"/></g></g><text id="head-shape-label-1" x="105" y="238" text-anchor="middle" font-family="Arial, sans-serif" font-size="18" fill="#3d3528">Round</text></g><g id="head-shape-cell-2" transform="translate(274 40)"><title>Oval head shape combination 2</title><rect id="head-shape-card-2" x="0" y="0" width="210" height="260" rx="24" fill="#fffaf2" stroke="#eadfce"/><g id="head-shape-avatar-2" transform="translate(25 18) scale(0.78)"><g id="avatar-v2-layer-back-hair"><path data-hair-style="longSoft" d="M47 70c-2-29 18-47 49-47 30 0 50 18 49 48 6 31-7 57-31 65-2-17-7-35-18-51-11 16-16 34-18 51-24-8-37-34-31-66z" fill="#7d3f24" stroke="#5f321f" stroke-width="3"/><path d="M61 74c-2 22 3 42 16 58M132 74c2 22-3 42-17 58" fill="none" stroke="#5f321f" stroke-width="3" stroke-linecap="round" opacity="0.38"/></g><g id="avatar-v2-layer-shirt"><path data-clothing-asset="polo" d="M42 173c8-33 27-51 54-51s46 18 54 51z" fill="#9edfc0" stroke="#4d846d" stroke-width="3"/><path d="M60 154h72" stroke="#c1edd7" stroke-width="5" stroke-linecap="round" opacity="0.4"/><rect x="91" y="132" width="10" height="27" rx="2.5" fill="#f7f7f7" stroke="#a3a6ad" stroke-width="2.5"/><path d="M82 123L96 138L84 142Z" fill="#f7f7f7" stroke="#a3a6ad" stroke-width="2.5" stroke-linejoin="round"/><path d="M110 123L96 138L108 142Z" fill="#f7f7f7" stroke="#a3a6ad" stroke-width="2.5" stroke-linejoin="round"/><circle cx="96" cy="142" r="1.9" fill="#a3a6ad"/><circle cx="96" cy="151" r="1.9" fill="#a3a6ad"/></g><g id="avatar-v2-layer-base"><ellipse data-anatomy="ear-left" cx="51" cy="94" rx="8" ry="13.5" fill="#d99f67" stroke="#7f523f" stroke-width="3"/><ellipse data-anatomy="ear-right" cx="141" cy="94" rx="8" ry="13.5" fill="#d99f67" stroke="#7f523f" stroke-width="3"/><path data-anatomy="head-oval" d="M96 27c27 0 44 22 44 53 0 34-18 53-44 53s-44-19-44-53c0-31 17-53 44-53z" fill="#d99f67" stroke="#7f523f" stroke-width="3"/><path d="M71 49c17-17 45-21 64-2" fill="none" stroke="#efbd87" stroke-width="8" stroke-linecap="round" opacity="0.4"/></g><g id="avatar-v2-layer-eyes" data-eye-style="softAlmond"><ellipse cx="79" cy="82" rx="6.5" ry="4.25" fill="#3d2c30"/><circle cx="81" cy="80" r="1.5" fill="#fff8f2"/><ellipse cx="113" cy="82" rx="6.5" ry="4.25" fill="#3d2c30"/><circle cx="111" cy="80" r="1.5" fill="#fff8f2"/></g><g id="avatar-v2-layer-mouth" data-mouth-style="openSmile"><path d="M80 104Q96 108 112 104Q96 121 80 104Z" fill="#8a5152" stroke="#7a4545" stroke-width="3" stroke-linejoin="round"/><path d="M83 105Q96 108 109 105L108 108Q96 111 84 108Z" fill="#fff8f2"/></g><g id="avatar-v2-layer-front-hair"><path data-hair-style="longSoft" d="M50 65c5-24 23-39 49-39 24 0 41 13 47 37-17-6-33-7-49-2-15 5-31 9-47 4z" fill="#a75f34" stroke="#5f321f" stroke-width="3"/><path d="M95 28c-6 17-19 30-39 38M103 30c15 8 27 19 39 34" fill="none" stroke="#5f321f" stroke-width="3" stroke-linecap="round" opacity="0.45"/></g><g id="avatar-v2-layer-glasses" fill="none" stroke="#30495c" stroke-width="4" stroke-linecap="round"><rect x="64.5" y="70" width="29" height="24" rx="13"/><rect x="98.5" y="70" width="29" height="24" rx="13"/><path fill="none" d="M93.5 82H98.5"/><path fill="none" d="M64.5 80L59 86M127.5 80L133 86"/></g><g id="avatar-v2-layer-hair-highlights"><path data-hair-highlight="longSoft" d="M65 54c17-13 38-17 60-11" fill="none" stroke="#c98250" stroke-width="5" stroke-linecap="round" opacity="0.52"/><path data-hair-highlight="longSoft" d="M126 75c3 18-1 35-10 50" fill="none" stroke="#c98250" stroke-width="4" stroke-linecap="round" opacity="0.38"/></g><g id="avatar-v2-layer-accessory" data-avatar-mount="hairRight" transform="translate(127 53) rotate(12) scale(0.92)"><path data-accessory-asset="ribbon" d="M-5 0c-9-8-17-6-19 3 4 7 12 8 19 2 7 6 15 5 19-2-2-9-10-11-19-3z" fill="#efa0b8" stroke="#9b526b" stroke-width="3"/><path d="M-4 6l-5 17 9-5 8 5-4-17z" fill="#d67595" stroke="#9b526b" stroke-width="3" stroke-linejoin="round"/><circle cx="0" cy="3" r="4" fill="#fac3d2" stroke="#9b526b" stroke-width="2"/></g></g><text id="head-shape-label-2" x="105" y="238" text-anchor="middle" font-family="Arial, sans-serif" font-size="18" fill="#3d3528">Oval</text></g><g id="head-shape-cell-3" transform="translate(524 40)"><title>Wide head shape combination 3</title><rect id="head-shape-card-3" x="0" y="0" width="210" height="260" rx="24" fill="#fffaf2" stroke="#eadfce"/><g id="head-shape-avatar-3" transform="translate(25 18) scale(0.78)"><g id="avatar-v2-layer-shirt"><path data-clothing-asset="jacket" d="M41 173c7-33 27-51 55-51s48 18 55 51z" fill="#f2cd70" stroke="#98733b" stroke-width="3"/><path d="M88 126h16l-3 47h-10z" fill="#5a79a0" stroke="#2f4056" stroke-width="2.5"/><path d="M88 132h16M88 142h16M88 152h16M88 162h16" stroke="#405a7a" stroke-width="1.6" stroke-linecap="round"/><path d="M69 128c9-6 20-8 27-8l-8 16-22 12z" fill="#d6a83f" stroke="#98733b" stroke-width="3" stroke-linejoin="round"/><path d="M123 128c-9-6-20-8-27-8l8 16 22 12z" fill="#d6a83f" stroke="#98733b" stroke-width="3" stroke-linejoin="round"/><path d="M96 126v47" stroke="#2f4056" stroke-width="2" stroke-linecap="round"/></g><g id="avatar-v2-layer-base"><ellipse data-anatomy="ear-left" cx="38" cy="97" rx="9" ry="12" fill="#7c4e37" stroke="#42261c" stroke-width="3"/><ellipse data-anatomy="ear-right" cx="154" cy="97" rx="9" ry="12" fill="#7c4e37" stroke="#42261c" stroke-width="3"/><path data-anatomy="head-wide" d="M57 52C75 38 117 38 135 52C150 64 152 97 137 113C119 133 73 133 55 113C40 97 42 64 57 52z" fill="#7c4e37" stroke="#42261c" stroke-width="3"/><path d="M58 62c17-17 45-21 64-2" fill="none" stroke="#98634a" stroke-width="8" stroke-linecap="round" opacity="0.4"/></g><g id="avatar-v2-layer-eyes" data-eye-style="gentleArc"><ellipse cx="75" cy="86.5" rx="5.4" ry="4.6" fill="#3d2c30"/><path d="M69.5 83.8Q75 80 80.5 83.8" fill="none" stroke="#6f4448" stroke-width="2" stroke-linecap="round" opacity="0.72"/><circle cx="77" cy="84.5" r="1.5" fill="#fff8f2"/><ellipse cx="117" cy="86.5" rx="5.4" ry="4.6" fill="#3d2c30"/><path d="M111.5 83.8Q117 80 122.5 83.8" fill="none" stroke="#6f4448" stroke-width="2" stroke-linecap="round" opacity="0.72"/><circle cx="115" cy="84.5" r="1.5" fill="#fff8f2"/></g><g id="avatar-v2-layer-mouth" data-mouth-style="laughing"><path d="M78 103Q96 107 114 103Q96 128 78 103Z" fill="#8a5152" stroke="#7a4545" stroke-width="3" stroke-linejoin="round"/><path d="M81 104Q96 107 111 104L110 108Q96 111 82 108Z" fill="#fff8f2"/><path d="M88 115Q96 112 104 115Q106 125 96 125Q86 125 88 115Z" fill="#d98a8a"/></g><g id="avatar-v2-layer-front-hair"><path d="M50 62c0-24 22-39 48-38 27 0 49 16 48 40-10-8-22-11-33-7-16 6-31 4-45-4-8 3-13 6-18 9z" fill="#201918" stroke="#0c0909" stroke-width="3"/><circle cx="63" cy="55" r="14" fill="#201918" stroke="#0c0909" stroke-width="3"/><circle cx="91" cy="43" r="16" fill="#201918" stroke="#0c0909" stroke-width="3"/><circle cx="121" cy="53" r="15" fill="#201918" stroke="#0c0909" stroke-width="3"/></g><g id="avatar-v2-layer-glasses" fill="none" stroke="#30495c" stroke-width="6" stroke-linecap="round"><rect x="60" y="74" width="30" height="24" rx="8"/><rect x="102" y="74" width="30" height="24" rx="8"/><path fill="none" d="M90 86H102"/><path fill="none" d="M60 84L47 89M132 84L145 89"/></g><g id="avatar-v2-layer-hair-highlights"><path d="M69 42c16-9 38-10 54 0" fill="none" stroke="#352b29" stroke-width="6" stroke-linecap="round" opacity="0.45"/></g><g id="avatar-v2-layer-accessory" data-avatar-mount="headTop" data-headwear-model="anatomy-relative" data-headwear-width="114" data-headwear-scale="1.1"><path data-accessory-asset="beanie" data-headwear-center-x="96" data-headwear-baseline-y="59.2" data-headwear-eye-safe-y="78" d="M45.8 59.2c3.4-36.9 22.1-52.5 50.2-52.5s47.2 15.6 50.2 52.5z" fill="#7b5aa2" stroke="#402c59" stroke-width="3"/><path d="M43.8 59.2h104.3" stroke="#402c59" stroke-width="8.9" stroke-linecap="round"/><circle cx="96" cy="34.4" r="8.9" fill="#9a7ac2" stroke="#402c59" stroke-width="3"/></g></g><text id="head-shape-label-3" x="105" y="238" text-anchor="middle" font-family="Arial, sans-serif" font-size="18" fill="#3d3528">Wide</text></g><g id="head-shape-cell-4" transform="translate(24 340)"><title>Round head shape combination 4</title><rect id="head-shape-card-4" x="0" y="0" width="210" height="260" rx="24" fill="#fffaf2" stroke="#eadfce"/><g id="head-shape-avatar-4" transform="translate(25 18) scale(0.78)"><g id="avatar-v2-layer-shirt"><path data-clothing-asset="dress" d="M56 152L42 173H150L136 152Z" fill="#c7d9f3" stroke="#7088a7" stroke-width="3" stroke-linejoin="round"/><path d="M70 160q26 9 52 0" fill="none" stroke="#e1ebfb" stroke-width="4" stroke-linecap="round" opacity="0.5"/><path d="M55 153c5-19 21-31 41-31s36 12 41 31z" fill="#d1b8ea" stroke="#846499" stroke-width="3"/><path d="M74 125c7 12 41 12 48 0" fill="none" stroke="#846499" stroke-width="3"/><path d="M60 150h72" stroke="#e6d7f6" stroke-width="4" stroke-linecap="round" opacity="0.45"/></g><g id="avatar-v2-layer-base"><ellipse data-anatomy="ear-left" cx="44" cy="95" rx="8.5" ry="12.5" fill="#f4cfb6" stroke="#a97862" stroke-width="3"/><ellipse data-anatomy="ear-right" cx="148" cy="95" rx="8.5" ry="12.5" fill="#f4cfb6" stroke="#a97862" stroke-width="3"/><path data-anatomy="head-round" d="M96 34c30 0 51 20 51 46 0 29-21 46-51 46s-51-17-51-46c0-26 21-46 51-46z" fill="#f4cfb6" stroke="#a97862" stroke-width="3"/><path d="M64 56c17-17 45-21 64-2" fill="none" stroke="#ffe8d6" stroke-width="8" stroke-linecap="round" opacity="0.4"/></g><g id="avatar-v2-layer-eyes" data-eye-style="brightWide"><ellipse cx="77" cy="83" rx="5.7" ry="6" fill="#3d2c30"/><circle cx="79" cy="81" r="1.5" fill="#fff8f2"/><ellipse cx="115" cy="83" rx="5.7" ry="6" fill="#3d2c30"/><circle cx="113" cy="81" r="1.5" fill="#fff8f2"/></g><g id="avatar-v2-layer-mouth" data-mouth-style="surprised"><ellipse cx="96" cy="107" rx="8.5" ry="11" fill="#8a5152" stroke="#7a4545" stroke-width="3"/></g><g id="avatar-v2-layer-front-hair"><path d="M49 68c3-29 22-43 50-42 27 2 44 18 47 48-16-10-31-12-47-10-20 3-35 1-50 4z" fill="#85432f" stroke="#421a13" stroke-width="3"/><path d="M135 63c8 20 3 43-14 54" fill="#85432f" stroke="#421a13" stroke-width="3"/></g><g id="avatar-v2-layer-glasses" stroke="#30495c" stroke-width="3" stroke-linejoin="round"><path fill="#587c9b" d="M77 91C65 80 65 68 77 75C89 68 89 80 77 91Z"/><path fill="#587c9b" d="M115 91C103 80 103 68 115 75C127 68 127 80 115 91Z"/><path fill="none" stroke-linecap="round" d="M89 83H103M65 81L52.5 87M127 81L139.5 87"/></g><g id="avatar-v2-layer-hair-highlights"><path d="M69 42c16-9 38-10 54 0" fill="none" stroke="#a95d43" stroke-width="6" stroke-linecap="round" opacity="0.45"/></g><g id="avatar-v2-layer-accessory" data-avatar-mount="hairLeft" transform="translate(66 61) rotate(-12) scale(0.92)"><rect data-accessory-asset="hairClip" x="-17" y="-5" width="34" height="10" rx="5" fill="#9edfc0" stroke="#4d846d" stroke-width="3"/><path d="M-10-1h20" stroke="#c1edd7" stroke-width="3" stroke-linecap="round" opacity="0.75"/></g></g><text id="head-shape-label-4" x="105" y="238" text-anchor="middle" font-family="Arial, sans-serif" font-size="18" fill="#3d3528">Round</text></g><g id="head-shape-cell-5" transform="translate(274 340)"><title>Oval head shape combination 5</title><rect id="head-shape-card-5" x="0" y="0" width="210" height="260" rx="24" fill="#fffaf2" stroke="#eadfce"/><g id="head-shape-avatar-5" transform="translate(25 18) scale(0.78)"><g id="avatar-v2-layer-shirt"><path data-clothing-asset="varsityJacket" d="M42 173c7-33 27-51 54-51s47 18 54 51z" fill="#e55a61" stroke="#8d2a31" stroke-width="3"/><path d="M44 173l8-28c4-10 11-17 21-20l10 48zM148 173l-8-28c-4-10-11-17-21-20l-10 48z" fill="#f7f7f7" stroke="#a3a6ad" stroke-width="3" stroke-linejoin="round"/><path d="M75 124c8 7 34 7 42 0l-8 13H83z" fill="#f7f7f7" stroke="#a3a6ad" stroke-width="2.5"/><path d="M56 157h80M52 169h88" stroke="#a3a6ad" stroke-width="4" stroke-linecap="round"/><path d="M96 128v45" stroke="#8d2a31" stroke-width="2.5" stroke-linecap="round"/><path d="M65 151h62" stroke="#f0888d" stroke-width="4" stroke-linecap="round" opacity="0.35"/></g><g id="avatar-v2-layer-base"><ellipse data-anatomy="ear-left" cx="51" cy="94" rx="8" ry="13.5" fill="#b57b55" stroke="#643d2b" stroke-width="3"/><ellipse data-anatomy="ear-right" cx="141" cy="94" rx="8" ry="13.5" fill="#b57b55" stroke="#643d2b" stroke-width="3"/><path data-anatomy="head-oval" d="M96 27c27 0 44 22 44 53 0 34-18 53-44 53s-44-19-44-53c0-31 17-53 44-53z" fill="#b57b55" stroke="#643d2b" stroke-width="3"/><path d="M71 49c17-17 45-21 64-2" fill="none" stroke="#cf9870" stroke-width="8" stroke-linecap="round" opacity="0.4"/></g><g id="avatar-v2-layer-eyes" data-eye-style="classicRound"><circle cx="79" cy="82" r="5" fill="#3d2c30"/><circle cx="81" cy="80" r="1.5" fill="#fff8f2"/><circle cx="113" cy="82" r="5" fill="#3d2c30"/><circle cx="111" cy="80" r="1.5" fill="#fff8f2"/></g><g id="avatar-v2-layer-mouth" data-mouth-style="smirk"><path d="M80 109Q94 112 112 100" fill="none" stroke="#7a4545" stroke-width="4" stroke-linecap="round"/></g><g id="avatar-v2-layer-front-hair"><path d="M50 65c5-25 24-38 48-38s42 12 48 36c-15-5-32-4-48 1-17 5-32 4-48 1z" fill="#b7bcc4" stroke="#676d77" stroke-width="3"/></g><g id="avatar-v2-layer-glasses" fill="#30495c" stroke="#30495c" stroke-width="4" stroke-linecap="round"><rect x="64" y="70" width="30" height="24" rx="8"/><rect x="98" y="70" width="30" height="24" rx="8"/><path fill="none" d="M94 82H98"/><path fill="none" d="M64 80L59 86M128 80L133 86"/></g><g id="avatar-v2-layer-hair-highlights"><path d="M69 42c16-9 38-10 54 0" fill="none" stroke="#d4d8df" stroke-width="6" stroke-linecap="round" opacity="0.45"/></g><g id="avatar-v2-layer-accessory" data-avatar-mount="headTop" data-headwear-model="anatomy-relative" data-headwear-width="88" data-headwear-scale="0.9"><path data-accessory-asset="sunHat" data-headwear-center-x="96" data-headwear-baseline-y="54.1" data-headwear-eye-safe-y="74" d="M64.3 51.5c4.3-20.7 19.4-30.2 37-29.3c17.6 0.9 29.9 11.2 34.3 29.3z" fill="#f2cd70" stroke="#98733b" stroke-width="3"/><path d="M39.7 54.1c37.2-10.4 75.5-10.4 112.6 0c-13.8 12.1-98.8 12.1-112.6 0z" fill="#d6a83f" stroke="#98733b" stroke-width="3"/><path d="M72.2 48.1c14.7-5.2 35.4-5.2 50 0" stroke="#f8df9b" stroke-width="4" stroke-linecap="round" opacity="0.6"/></g></g><text id="head-shape-label-5" x="105" y="238" text-anchor="middle" font-family="Arial, sans-serif" font-size="18" fill="#3d3528">Oval</text></g><g id="head-shape-cell-6" transform="translate(524 340)"><title>Wide head shape combination 6</title><rect id="head-shape-card-6" x="0" y="0" width="210" height="260" rx="24" fill="#fffaf2" stroke="#eadfce"/><g id="head-shape-avatar-6" transform="translate(25 18) scale(0.78)"><g id="avatar-v2-layer-shirt"><path data-clothing-asset="sportsShirt" d="M39 173l8-29c6-13 19-20 34-22l15 13 15-13c16 2 28 9 34 22l8 29z" fill="#f7f7f7" stroke="#a3a6ad" stroke-width="3"/><path d="M68 173l8-49c7-2 13-2 20 11 7-13 13-13 20-11l8 49z" fill="#59bf68" stroke="#2b6f38" stroke-width="3" stroke-linejoin="round"/><path d="M80 123c5 8 27 8 32 0" fill="none" stroke="#a3a6ad" stroke-width="3"/><path d="M54 148l22 2M138 148l-22 2" stroke="#ffffff" stroke-width="5" stroke-linecap="round" opacity="0.5"/><path d="M83 154h26" stroke="#86d991" stroke-width="5" stroke-linecap="round" opacity="0.4"/></g><g id="avatar-v2-layer-base"><ellipse data-anatomy="ear-left" cx="38" cy="97" rx="9" ry="12" fill="#935c41" stroke="#502e22" stroke-width="3"/><ellipse data-anatomy="ear-right" cx="154" cy="97" rx="9" ry="12" fill="#935c41" stroke="#502e22" stroke-width="3"/><path data-anatomy="head-wide" d="M57 52C75 38 117 38 135 52C150 64 152 97 137 113C119 133 73 133 55 113C40 97 42 64 57 52z" fill="#935c41" stroke="#502e22" stroke-width="3"/><path d="M58 62c17-17 45-21 64-2" fill="none" stroke="#af7757" stroke-width="8" stroke-linecap="round" opacity="0.4"/></g><g id="avatar-v2-layer-eyes" data-eye-style="softAlmond"><ellipse cx="75" cy="86" rx="6.5" ry="4.25" fill="#3d2c30"/><circle cx="77" cy="84" r="1.5" fill="#fff8f2"/><ellipse cx="117" cy="86" rx="6.5" ry="4.25" fill="#3d2c30"/><circle cx="115" cy="84" r="1.5" fill="#fff8f2"/></g><g id="avatar-v2-layer-mouth" data-mouth-style="determined"><path d="M80 106Q96 109 112 106" fill="none" stroke="#7a4545" stroke-width="4" stroke-linecap="round"/></g><g id="avatar-v2-layer-front-hair"><path d="M51 66c6-26 25-39 52-39 22 0 38 12 43 33-31-12-53-3-78 14-6 4-12 2-17-8z" fill="#3f67d2" stroke="#1f3472" stroke-width="3"/></g><g id="avatar-v2-layer-glasses" fill="none" stroke="#30495c" stroke-width="4" stroke-linecap="round"><rect x="60" y="74" width="30" height="24" rx="4"/><rect x="102" y="74" width="30" height="24" rx="4"/><path fill="none" d="M90 86H102"/><path fill="none" d="M60 84L47 89M132 84L145 89"/></g><g id="avatar-v2-layer-hair-highlights"><path d="M69 42c16-9 38-10 54 0" fill="none" stroke="#6f90ea" stroke-width="6" stroke-linecap="round" opacity="0.45"/></g><g id="avatar-v2-layer-accessory" data-avatar-mount="chestCenter"><path data-accessory-asset="scarf" d="M65 133c15 14 47 14 62 0v15c-16 13-47 13-62 0z" fill="#ef7f6f" stroke="#994237" stroke-width="3"/><path d="M94 144l-10 35h20l8-33z" fill="#cf5c4c" stroke="#994237" stroke-width="3" stroke-linejoin="round"/><path d="M76 144c11 6 28 6 40 0" stroke="#f5a191" stroke-width="4" stroke-linecap="round" opacity="0.55"/></g></g><text id="head-shape-label-6" x="105" y="238" text-anchor="middle" font-family="Arial, sans-serif" font-size="18" fill="#3d3528">Wide</text></g>
</svg>
