<svg xmlns="http://www.w3.org/2000/svg" viewBox="36 18 120 78" width="360" height="234" role="img" aria-label="HomeOps Avatar V2 sample"><g id="avatar-v2-layer-back-hair"><path data-hair-style="curlyPlayful" data-concept="loose-wavy-curls-fixed" d="M49 71c-2-27 18-46 48-46 29 1 48 19 47 45 7 24 0 45-18 58-5-18-13-31-27-42-14 10-24 24-30 42-18-13-26-34-20-57z" fill="#4e344d" stroke="#3f2a3d" stroke-width="3"/><path d="M61 74c3 19 10 34 22 46M132 72c-2 19-10 34-23 46" fill="none" stroke="#3f2a3d" stroke-width="3" stroke-linecap="round" opacity="0.38"/></g><g id="avatar-v2-layer-shirt"><path data-clothing-asset="roundedTee" d="M42 172c8-32 27-49 54-49s46 17 54 49z" fill="#9edfc0" stroke="#4d846d" stroke-width="3"/><path d="M62 150c17-13 48-14 68 0" fill="none" stroke="#c1edd7" stroke-width="7" stroke-linecap="round" opacity="0.5"/></g><g id="avatar-v2-layer-base"><ellipse cx="96" cy="113" rx="55" ry="41" fill="#df9778" opacity="0.16"/><ellipse data-anatomy="ear-left" cx="44" cy="95" rx="8.5" ry="12.5" fill="#f4bf9b" stroke="#9f5f55" stroke-width="3"/><ellipse data-anatomy="ear-right" cx="148" cy="95" rx="8.5" ry="12.5" fill="#f4bf9b" stroke="#9f5f55" stroke-width="3"/><path data-anatomy="head-round" d="M96 34c30 0 51 20 51 46 0 29-21 46-51 46s-51-17-51-46c0-26 21-46 51-46z" fill="#f4bf9b" stroke="#9f5f55" stroke-width="3"/><path d="M64 56c17-17 45-21 64-2" fill="none" stroke="#ffd8bf" stroke-width="8" stroke-linecap="round" opacity="0.4"/><circle cx="77" cy="83" r="5" fill="#3d2c30"/><circle cx="115" cy="83" r="5" fill="#3d2c30"/><circle cx="79" cy="81" r="1.5" fill="#fff8f2"/><circle cx="113" cy="81" r="1.5" fill="#fff8f2"/><path d="M78 104c10 12 27 12 37-1" fill="none" stroke="#7a4545" stroke-width="4" stroke-linecap="round"/></g><g id="avatar-v2-layer-accessory" data-accessory-asset="headband" data-accessory-layer-rule="partial-occlusion-rear" data-headband-model="anatomy-anchor-curve"><path d="M52.1 67.1C67.4 43.2 124.6 43.2 139.9 67.1" fill="none" stroke="#9c554c" stroke-width="8" stroke-linecap="round"/><path d="M55.1 66.1C70.4 48.2 121.6 48.2 136.9 66.1" fill="none" stroke="#f29a82" stroke-width="4" stroke-linecap="round"/></g><g id="avatar-v2-layer-front-hair"><path data-hair-style="curlyPlayful" data-concept="loose-wavy-curls-fixed" d="M51 65c7-23 25-37 49-37 23 0 39 13 44 34-12-5-25-4-36 2-10 5-20 8-30 6-9-1-18-3-27-5z" fill="#6f4a66" stroke="#3f2a3d" stroke-width="3"/><path d="M97 29c-7 12-18 22-36 34M103 31c14 7 25 17 36 31M76 70c10 6 24 4 37-4" fill="none" stroke="#3f2a3d" stroke-width="3" stroke-linecap="round" opacity="0.5"/></g><g id="avatar-v2-layer-hair-highlights"><path data-hair-highlight="curlyPlayful" data-concept="loose-wavy-curls-fixed" d="M66 54c16-13 34-17 55-10" fill="none" stroke="#92708a" stroke-width="4" stroke-linecap="round" opacity="0.58"/><path data-hair-highlight="curlyPlayful" data-concept="loose-wavy-curls-fixed" d="M121 64c7 4 12 11 14 20" fill="none" stroke="#92708a" stroke-width="3" stroke-linecap="round" opacity="0.42"/></g><g id="avatar-v2-layer-accessory-visible" data-accessory-asset="headband" data-accessory-layer-rule="partial-occlusion-visible" data-headband-model="anatomy-anchor-curve"><path d="M52.1 67.1C57.1 60.1 63.4 51.2 69.4 48.2M122.6 48.2C128.6 51.2 134.9 60.1 139.9 67.1" fill="none" stroke="#9c554c" stroke-width="8" stroke-linecap="round"/><path d="M55.1 66.1C59.1 61.1 66.4 53.2 72.4 50.2M119.6 50.2C125.6 53.2 132.9 61.1 136.9 66.1" fill="none" stroke="#f29a82" stroke-width="4" stroke-linecap="round"/></g></svg>