<?xml version="1.0" encoding="UTF-8"?>
<svg xmlns="http://www.w3.org/2000/svg" viewBox="0 0 960 650" width="960" height="650" role="img" aria-labelledby="title desc">
<title id="title">Avatar Clothing V3 multi-color variety sheet</title>
<desc id="desc">Eight Avatar V2 renderer examples for the new multi-color clothing styles.</desc>
<rect width="960" height="650" fill="#f7efe3"/>
<text x="480" y="38" text-anchor="middle" font-family="Arial, sans-serif" font-size="26" font-weight="700" fill="#34251f">Avatar Clothing V3 — Multi-Color Variety</text>
<g class="avatar-example" data-example-index="1" data-garment="zipHoodie" transform="translate(40 82)"><rect x="0" y="0" width="190" height="240" rx="18" fill="#fffaf2" stroke="#d9c8aa" stroke-width="2"/><g transform="translate(11 12) scale(0.88)"><g id="avatar-v3-example-1-avatar-v2-layer-back-hair"><path data-hair-style="shortMessy" d="M47 73c-1-26 18-44 49-45 31 0 51 17 50 43-10-6-22-8-35-5-18 4-35 2-50-6-6 3-11 8-14 13z" fill="#43271f" stroke="#35211d" stroke-width="3"/></g><g id="avatar-v3-example-1-avatar-v2-layer-shirt"><path data-clothing-asset="zipHoodie" d="M40 173c7-34 27-52 56-52s49 18 56 52z" fill="#365072" stroke="#1b2736" stroke-width="3"/><path d="M60 140c9-19 23-29 36-29s27 10 36 29c-13 11-59 11-72 0z" fill="#273a54" stroke="#1b2736" stroke-width="3"/><path d="M72 137c7-11 16-16 24-16s17 5 24 16c-13 7-35 7-48 0z" fill="#8fc8ef" stroke="#417895" stroke-width="2.5"/><path d="M96 128v45" stroke="#417895" stroke-width="3" stroke-linecap="round"/><path d="M87 137l-5 21M105 137l5 21" stroke="#417895" stroke-width="2.5" stroke-linecap="round"/><circle cx="82" cy="160" r="2.3" fill="#417895"/><circle cx="110" cy="160" r="2.3" fill="#417895"/><path d="M58 155h76" stroke="#4d6a8f" stroke-width="5" stroke-linecap="round" opacity="0.38"/></g><g id="avatar-v3-example-1-avatar-v2-layer-base"><ellipse data-anatomy="ear-left" cx="44" cy="95" rx="8.5" ry="12.5" fill="#d99f67" stroke="#7f523f" stroke-width="3"/><ellipse data-anatomy="ear-right" cx="148" cy="95" rx="8.5" ry="12.5" fill="#d99f67" stroke="#7f523f" stroke-width="3"/><path data-anatomy="head-round" d="M96 34c30 0 51 20 51 46 0 29-21 46-51 46s-51-17-51-46c0-26 21-46 51-46z" fill="#d99f67" stroke="#7f523f" stroke-width="3"/><path d="M64 56c17-17 45-21 64-2" fill="none" stroke="#efbd87" stroke-width="8" stroke-linecap="round" opacity="0.4"/><circle cx="77" cy="83" r="5" fill="#3d2c30"/><circle cx="115" cy="83" r="5" fill="#3d2c30"/><circle cx="79" cy="81" r="1.5" fill="#fff8f2"/><circle cx="113" cy="81" r="1.5" fill="#fff8f2"/></g><g id="avatar-v3-example-1-avatar-v2-layer-mouth" data-mouth-style="bigSmile"><path d="M74 101c11 19 33 19 44-1" fill="none" stroke="#7a4545" stroke-width="4" stroke-linecap="round"/></g><g id="avatar-v3-example-1-avatar-v2-layer-front-hair"><path data-hair-style="shortMessy" d="M49 66c7-22 25-36 49-37 18-1 34 5 45 17 4 4 6 9 7 15-11-4-22-3-33 3l-9 13-10-17-15 19-6-17c-10 8-20 9-28 4z" fill="#68402f" stroke="#35211d" stroke-width="3"/><path d="M62 47c8-8 19-13 32-15M88 35c-5 8-8 17-9 27M116 36c10 5 17 13 22 24" fill="none" stroke="#35211d" stroke-width="3" stroke-linecap="round" opacity="0.46"/></g><g id="avatar-v3-example-1-avatar-v2-layer-hair-highlights"><path data-hair-highlight="shortMessy" d="M68 45c14-8 33-10 50-4" fill="none" stroke="#8a5d47" stroke-width="5" stroke-linecap="round" opacity="0.58"/><path data-hair-highlight="shortMessy" d="M90 56c-4 5-7 10-11 15" fill="none" stroke="#8a5d47" stroke-width="4" stroke-linecap="round" opacity="0.42"/></g><g id="avatar-v3-example-1-avatar-v2-layer-accessory" data-avatar-mount="hairRight" transform="translate(127 60) rotate(12) scale(0.92)"><path data-accessory-asset="star" d="M0-14l5 9 10 1-7 7 2 10-10-5-10 5 2-10-7-7 10-1z" fill="#9edfc0" stroke="#4d846d" stroke-width="3"/><path d="M-3-4l3-4 3 4" fill="none" stroke="#c1edd7" stroke-width="3" stroke-linecap="round" opacity="0.7"/></g></g><text x="95" y="202" text-anchor="middle" font-family="Arial, sans-serif" font-size="15" font-weight="700" fill="#34251f">Zip Hoodie</text><text x="95" y="222" text-anchor="middle" font-family="Arial, sans-serif" font-size="12" fill="#6b5a4d">Navy / Sky</text></g>
<g class="avatar-example" data-example-index="2" data-garment="varsityJacket" transform="translate(270 82)"><rect x="0" y="0" width="190" height="240" rx="18" fill="#fffaf2" stroke="#d9c8aa" stroke-width="2"/><g transform="translate(11 12) scale(0.88)"><g id="avatar-v3-example-2-avatar-v2-layer-back-hair"><path d="M49 76c-4-28 15-49 47-50 32 0 52 21 48 51-9-10-19-14-31-12-16 3-31 6-48-2-7 3-12 7-16 13z" fill="#7d3f24" stroke="#5f321f" stroke-width="3"/></g><g id="avatar-v3-example-2-avatar-v2-layer-shirt"><path data-clothing-asset="varsityJacket" d="M42 173c7-33 27-51 54-51s47 18 54 51z" fill="#e55a61" stroke="#8d2a31" stroke-width="3"/><path d="M44 173l8-28c4-10 11-17 21-20l10 48zM148 173l-8-28c-4-10-11-17-21-20l-10 48z" fill="#f1e6cf" stroke="#a89068" stroke-width="3" stroke-linejoin="round"/><path d="M75 124c8 7 34 7 42 0l-8 13H83z" fill="#f1e6cf" stroke="#a89068" stroke-width="2.5"/><path d="M56 157h80M52 169h88" stroke="#a89068" stroke-width="4" stroke-linecap="round"/><path d="M96 128v45" stroke="#8d2a31" stroke-width="2.5" stroke-linecap="round"/><path d="M65 151h62" stroke="#f0888d" stroke-width="4" stroke-linecap="round" opacity="0.35"/></g><g id="avatar-v3-example-2-avatar-v2-layer-base"><ellipse data-anatomy="ear-left" cx="51" cy="94" rx="8" ry="13.5" fill="#9b6547" stroke="#55332b" stroke-width="3"/><ellipse data-anatomy="ear-right" cx="141" cy="94" rx="8" ry="13.5" fill="#9b6547" stroke="#55332b" stroke-width="3"/><path data-anatomy="head-oval" d="M96 27c27 0 44 22 44 53 0 34-18 53-44 53s-44-19-44-53c0-31 17-53 44-53z" fill="#9b6547" stroke="#55332b" stroke-width="3"/><path d="M71 49c17-17 45-21 64-2" fill="none" stroke="#bd8060" stroke-width="8" stroke-linecap="round" opacity="0.4"/><circle cx="79" cy="82" r="5" fill="#3d2c30"/><circle cx="113" cy="82" r="5" fill="#3d2c30"/><circle cx="81" cy="80" r="1.5" fill="#fff8f2"/><circle cx="111" cy="80" r="1.5" fill="#fff8f2"/></g><g id="avatar-v3-example-2-avatar-v2-layer-mouth" data-mouth-style="smile"><path d="M77 104c10 15 28 15 38-1" fill="none" stroke="#7a4545" stroke-width="4" stroke-linecap="round"/></g><g id="avatar-v3-example-2-avatar-v2-layer-front-hair"><path d="M50 65c11-25 31-34 57-31 20 2 34 11 40 27-15-5-29-5-43-1l-11 18-8-15c-11 9-22 12-35 2z" fill="#a75f34" stroke="#5f321f" stroke-width="3"/><path d="M68 38c-9 9-14 17-16 28M122 39c13 8 20 16 24 25" fill="none" stroke="#5f321f" stroke-width="3" stroke-linecap="round" opacity="0.45"/></g><g id="avatar-v3-example-2-avatar-v2-layer-glasses" fill="none" stroke="#30495c" stroke-width="4" stroke-linecap="round"><rect x="64.5" y="70" width="29" height="24" rx="13"/><rect x="98.5" y="70" width="29" height="24" rx="13"/><path fill="none" d="M93.5 82H98.5"/><path fill="none" d="M64.5 80L59 86M127.5 80L133 86"/></g><g id="avatar-v3-example-2-avatar-v2-layer-hair-highlights"><path d="M70 44c18-10 39-10 55 1" fill="none" stroke="#c98250" stroke-width="5" stroke-linecap="round" opacity="0.55"/><path d="M88 61c10-7 22-9 34-6" fill="none" stroke="#c98250" stroke-width="4" stroke-linecap="round" opacity="0.35"/></g><g id="avatar-v3-example-2-avatar-v2-layer-accessory" data-avatar-mount="chestCenter" transform="translate(96 151) rotate(0) scale(1)"><path d="M0-13l4 8 9 1-7 6 2 9-8-4-8 4 2-9-7-6 9-1z" fill="#f3dfa0" stroke="#9a7e39" stroke-width="3"/><path d="M-3-5l3-4 3 4" fill="none" stroke="#faedc4" stroke-width="3" stroke-linecap="round" opacity="0.7"/></g></g><text x="95" y="202" text-anchor="middle" font-family="Arial, sans-serif" font-size="15" font-weight="700" fill="#34251f">Collegejack</text><text x="95" y="222" text-anchor="middle" font-family="Arial, sans-serif" font-size="12" fill="#6b5a4d">Red / Cream</text></g>
<g class="avatar-example" data-example-index="3" data-garment="rugbyShirt" transform="translate(500 82)"><rect x="0" y="0" width="190" height="240" rx="18" fill="#fffaf2" stroke="#d9c8aa" stroke-width="2"/><g transform="translate(11 12) scale(0.88)"><g id="avatar-v3-example-3-avatar-v2-layer-shirt"><path data-clothing-asset="rugbyShirt" d="M39 173l8-29c6-13 19-20 34-22l15 13 15-13c16 2 28 9 34 22l8 29z" fill="#3d7750" stroke="#1c3b28" stroke-width="3"/><path d="M80 123l16 18 16-18" fill="#f7f7f7" stroke="#a3a6ad" stroke-width="3" stroke-linejoin="round"/><rect x="90" y="133" width="12" height="25" rx="2.5" fill="#f7f7f7" stroke="#a3a6ad" stroke-width="2.5"/><path d="M56 158h22M114 158h22" stroke="#a3a6ad" stroke-width="5" stroke-linecap="round"/><circle cx="96" cy="143" r="1.9" fill="#a3a6ad"/><path d="M55 149h82" stroke="#5a9770" stroke-width="5" stroke-linecap="round" opacity="0.35"/></g><g id="avatar-v3-example-3-avatar-v2-layer-base"><ellipse data-anatomy="ear-left" cx="38" cy="97" rx="9" ry="12" fill="#f4bf9b" stroke="#9f5f55" stroke-width="3"/><ellipse data-anatomy="ear-right" cx="154" cy="97" rx="9" ry="12" fill="#f4bf9b" stroke="#9f5f55" stroke-width="3"/><path data-anatomy="head-wide" d="M57 52C75 38 117 38 135 52C150 64 152 97 137 113C119 133 73 133 55 113C40 97 42 64 57 52z" fill="#f4bf9b" stroke="#9f5f55" stroke-width="3"/><path d="M58 62c17-17 45-21 64-2" fill="none" stroke="#ffd8bf" stroke-width="8" stroke-linecap="round" opacity="0.4"/><circle cx="75" cy="86" r="5" fill="#3d2c30"/><circle cx="117" cy="86" r="5" fill="#3d2c30"/><circle cx="77" cy="84" r="1.5" fill="#fff8f2"/><circle cx="115" cy="84" r="1.5" fill="#fff8f2"/></g><g id="avatar-v3-example-3-avatar-v2-layer-mouth" data-mouth-style="determined"><path d="M80 106Q96 109 112 106" fill="none" stroke="#7a4545" stroke-width="4" stroke-linecap="round"/></g><g id="avatar-v3-example-3-avatar-v2-layer-front-hair"><path d="M50 65c5-25 24-38 48-38s42 12 48 36c-15-5-32-4-48 1-17 5-32 4-48 1z" fill="#2f2624" stroke="#15100f" stroke-width="3"/></g><g id="avatar-v3-example-3-avatar-v2-layer-glasses" fill="none" stroke="#4b2f3f" stroke-width="4" stroke-linecap="round"><rect x="60" y="74" width="30" height="24" rx="4"/><rect x="102" y="74" width="30" height="24" rx="4"/><path fill="none" d="M90 86H102"/><path fill="none" d="M60 84L47 89M132 84L145 89"/></g><g id="avatar-v3-example-3-avatar-v2-layer-hair-highlights"><path d="M69 42c16-9 38-10 54 0" fill="none" stroke="#4a3a37" stroke-width="6" stroke-linecap="round" opacity="0.45"/></g></g><text x="95" y="202" text-anchor="middle" font-family="Arial, sans-serif" font-size="15" font-weight="700" fill="#34251f">Rugbyshirt</text><text x="95" y="222" text-anchor="middle" font-family="Arial, sans-serif" font-size="12" fill="#6b5a4d">Forest / White</text></g>
<g class="avatar-example" data-example-index="4" data-garment="contrastPocketHoodie" transform="translate(730 82)"><rect x="0" y="0" width="190" height="240" rx="18" fill="#fffaf2" stroke="#d9c8aa" stroke-width="2"/><g transform="translate(11 12) scale(0.88)"><g id="avatar-v3-example-4-avatar-v2-layer-back-hair"><path data-hair-style="curlyPlayful" data-concept="loose-wavy-curls-fixed" d="M49 71c-2-27 18-46 48-46 29 1 48 19 47 45 7 24 0 45-18 58-5-18-13-31-27-42-14 10-24 24-30 42-18-13-26-34-20-57z" fill="#6b45af" stroke="#4a307b" stroke-width="3"/><path d="M61 74c3 19 10 34 22 46M132 72c-2 19-10 34-23 46" fill="none" stroke="#4a307b" stroke-width="3" stroke-linecap="round" opacity="0.38"/></g><g id="avatar-v3-example-4-avatar-v2-layer-shirt"><path data-clothing-asset="contrastPocketHoodie" d="M41 173c7-33 27-51 55-51s48 18 55 51z" fill="#7b5aa2" stroke="#402c59" stroke-width="3"/><path d="M64 138c10-18 22-25 32-25s22 7 32 25c-12 10-52 10-64 0z" fill="#5b417f" stroke="#402c59" stroke-width="3"/><path d="M78 134c6 8 30 8 36 0" fill="none" stroke="#695b9b" stroke-width="4" stroke-linecap="round"/><path d="M72 151h48l8 22H64z" fill="#bcaee8" stroke="#695b9b" stroke-width="3" stroke-linejoin="round"/><path d="M74 161h44" stroke="#d8cef4" stroke-width="4" stroke-linecap="round" opacity="0.55"/><path d="M88 138l-5 15M104 138l5 15" stroke="#695b9b" stroke-width="2.5" stroke-linecap="round"/></g><g id="avatar-v3-example-4-avatar-v2-layer-base"><ellipse data-anatomy="ear-left" cx="44" cy="95" rx="8.5" ry="12.5" fill="#d5e8cf" stroke="#7b9277" stroke-width="3"/><ellipse data-anatomy="ear-right" cx="148" cy="95" rx="8.5" ry="12.5" fill="#d5e8cf" stroke="#7b9277" stroke-width="3"/><path data-anatomy="head-round" d="M96 34c30 0 51 20 51 46 0 29-21 46-51 46s-51-17-51-46c0-26 21-46 51-46z" fill="#d5e8cf" stroke="#7b9277" stroke-width="3"/><path d="M64 56c17-17 45-21 64-2" fill="none" stroke="#eef8ea" stroke-width="8" stroke-linecap="round" opacity="0.4"/><circle cx="77" cy="83" r="5" fill="#3d2c30"/><circle cx="115" cy="83" r="5" fill="#3d2c30"/><circle cx="79" cy="81" r="1.5" fill="#fff8f2"/><circle cx="113" cy="81" r="1.5" fill="#fff8f2"/></g><g id="avatar-v3-example-4-avatar-v2-layer-mouth" data-mouth-style="laughing"><path d="M78 101Q96 105 114 101Q96 126 78 101Z" fill="#8a5152" stroke="#7a4545" stroke-width="3" stroke-linejoin="round"/><path d="M81 102Q96 105 111 102L110 106Q96 109 82 106Z" fill="#fff8f2"/><path d="M88 113Q96 110 104 113Q106 123 96 123Q86 123 88 113Z" fill="#d98a8a"/></g><g id="avatar-v3-example-4-avatar-v2-layer-accessory" data-accessory-asset="headband" data-accessory-layer-rule="partial-occlusion-rear" data-headband-model="anatomy-anchor-curve"><path d="M52.1 67.1C67.4 43.2 124.6 43.2 139.9 67.1" fill="none" stroke="#4d846d" stroke-width="8" stroke-linecap="round"/><path d="M55.1 66.1C70.4 48.2 121.6 48.2 136.9 66.1" fill="none" stroke="#9edfc0" stroke-width="4" stroke-linecap="round"/></g><g id="avatar-v3-example-4-avatar-v2-layer-front-hair"><path data-hair-style="curlyPlayful" data-concept="loose-wavy-curls-fixed" d="M51 65c7-23 25-37 49-37 23 0 39 13 44 34-12-5-25-4-36 2-10 5-20 8-30 6-9-1-18-3-27-5z" fill="#8f63d7" stroke="#4a307b" stroke-width="3"/><path d="M97 29c-7 12-18 22-36 34M103 31c14 7 25 17 36 31M76 70c10 6 24 4 37-4" fill="none" stroke="#4a307b" stroke-width="3" stroke-linecap="round" opacity="0.5"/></g><g id="avatar-v3-example-4-avatar-v2-layer-glasses" stroke="#4b2f3f" stroke-width="3" stroke-linejoin="round"><path fill="#7f5369" d="M77 91C65 80 65 68 77 75C89 68 89 80 77 91Z"/><path fill="#7f5369" d="M115 91C103 80 103 68 115 75C127 68 127 80 115 91Z"/><path fill="none" stroke-linecap="round" d="M89 83H103M65 81L52.5 87M127 81L139.5 87"/></g><g id="avatar-v3-example-4-avatar-v2-layer-hair-highlights"><path data-hair-highlight="curlyPlayful" data-concept="loose-wavy-curls-fixed" d="M66 54c16-13 34-17 55-10" fill="none" stroke="#b090ee" stroke-width="4" stroke-linecap="round" opacity="0.58"/><path data-hair-highlight="curlyPlayful" data-concept="loose-wavy-curls-fixed" d="M121 64c7 4 12 11 14 20" fill="none" stroke="#b090ee" stroke-width="3" stroke-linecap="round" opacity="0.42"/></g><g id="avatar-v3-example-4-avatar-v2-layer-accessory-visible" data-accessory-asset="headband" data-accessory-layer-rule="partial-occlusion-visible" data-headband-model="anatomy-anchor-curve"><path d="M52.1 67.1C57.1 60.1 63.4 51.2 69.4 48.2M122.6 48.2C128.6 51.2 134.9 60.1 139.9 67.1" fill="none" stroke="#4d846d" stroke-width="8" stroke-linecap="round"/><path d="M55.1 66.1C59.1 61.1 66.4 53.2 72.4 50.2M119.6 50.2C125.6 53.2 132.9 61.1 136.9 66.1" fill="none" stroke="#9edfc0" stroke-width="4" stroke-linecap="round"/></g></g><text x="95" y="202" text-anchor="middle" font-family="Arial, sans-serif" font-size="15" font-weight="700" fill="#34251f">Hoodie met contrastzak</text><text x="95" y="222" text-anchor="middle" font-family="Arial, sans-serif" font-size="12" fill="#6b5a4d">Plum / Lavender</text></g>
<g class="avatar-example" data-example-index="5" data-garment="winterCoat" transform="translate(40 357)"><rect x="0" y="0" width="190" height="240" rx="18" fill="#fffaf2" stroke="#d9c8aa" stroke-width="2"/><g transform="translate(11 12) scale(0.88)"><g id="avatar-v3-example-5-avatar-v2-layer-shirt"><path data-clothing-asset="winterCoat" d="M38 173c5-34 25-54 58-54s53 20 58 54z" fill="#5a79a0" stroke="#2f4056" stroke-width="3"/><path d="M68 125c8 10 48 10 56 0l-9 24H77z" fill="#ef7f6f" stroke="#994237" stroke-width="3" stroke-linejoin="round"/><path d="M86 128h20l-4 45H90z" fill="#ef7f6f" stroke="#994237" stroke-width="2.5"/><path d="M55 160h26M111 160h26" stroke="#994237" stroke-width="5" stroke-linecap="round"/><circle cx="96" cy="142" r="2.3" fill="#994237"/><circle cx="96" cy="154" r="2.3" fill="#994237"/><path d="M57 151h78" stroke="#7d97b8" stroke-width="5" stroke-linecap="round" opacity="0.35"/></g><g id="avatar-v3-example-5-avatar-v2-layer-base"><ellipse data-anatomy="ear-left" cx="51" cy="94" rx="8" ry="13.5" fill="#7c4e37" stroke="#42261c" stroke-width="3"/><ellipse data-anatomy="ear-right" cx="141" cy="94" rx="8" ry="13.5" fill="#7c4e37" stroke="#42261c" stroke-width="3"/><path data-anatomy="head-oval" d="M96 27c27 0 44 22 44 53 0 34-18 53-44 53s-44-19-44-53c0-31 17-53 44-53z" fill="#7c4e37" stroke="#42261c" stroke-width="3"/><path d="M71 49c17-17 45-21 64-2" fill="none" stroke="#98634a" stroke-width="8" stroke-linecap="round" opacity="0.4"/><circle cx="79" cy="82" r="5" fill="#3d2c30"/><circle cx="113" cy="82" r="5" fill="#3d2c30"/><circle cx="81" cy="80" r="1.5" fill="#fff8f2"/><circle cx="111" cy="80" r="1.5" fill="#fff8f2"/></g><g id="avatar-v3-example-5-avatar-v2-layer-mouth" data-mouth-style="smirk"><path d="M80 109Q94 112 112 100" fill="none" stroke="#7a4545" stroke-width="4" stroke-linecap="round"/></g><g id="avatar-v3-example-5-avatar-v2-layer-front-hair"><path d="M51 66c6-26 25-39 52-39 22 0 38 12 43 33-31-12-53-3-78 14-6 4-12 2-17-8z" fill="#d5d8df" stroke="#7e858f" stroke-width="3"/></g><g id="avatar-v3-example-5-avatar-v2-layer-glasses" fill="#30495c" stroke="#30495c" stroke-width="4" stroke-linecap="round"><rect x="64" y="70" width="30" height="24" rx="8"/><rect x="98" y="70" width="30" height="24" rx="8"/><path fill="none" d="M94 82H98"/><path fill="none" d="M64 80L59 86M128 80L133 86"/></g><g id="avatar-v3-example-5-avatar-v2-layer-hair-highlights"><path d="M69 42c16-9 38-10 54 0" fill="none" stroke="#f2f4f7" stroke-width="6" stroke-linecap="round" opacity="0.45"/></g><g id="avatar-v3-example-5-avatar-v2-layer-accessory" data-avatar-mount="chestCenter" transform="translate(96 151) rotate(0) scale(1)"><path data-accessory-asset="leafPin" d="M-14 2C-5-14 10-16 17-4 10 13-5 17-14 2z" fill="#9fd9d0" stroke="#4f857d" stroke-width="3"/><path d="M-10 1C-2-1 7-4 14-8" fill="none" stroke="#c2ece6" stroke-width="3" stroke-linecap="round"/><path d="M-2-1l-3-7M4-3l3 6" fill="none" stroke="#4f857d" stroke-width="2" stroke-linecap="round" opacity="0.55"/></g></g><text x="95" y="202" text-anchor="middle" font-family="Arial, sans-serif" font-size="15" font-weight="700" fill="#34251f">Winterjas</text><text x="95" y="222" text-anchor="middle" font-family="Arial, sans-serif" font-size="12" fill="#6b5a4d">Denim / Coral</text></g>
<g class="avatar-example" data-example-index="6" data-garment="cardigan" transform="translate(270 357)"><rect x="0" y="0" width="190" height="240" rx="18" fill="#fffaf2" stroke="#d9c8aa" stroke-width="2"/><g transform="translate(11 12) scale(0.88)"><g id="avatar-v3-example-6-avatar-v2-layer-shirt"><path data-clothing-asset="cardigan" d="M42 173c8-33 27-51 54-51s46 18 54 51z" fill="#8b5c45" stroke="#452d21" stroke-width="3"/><path d="M82 126h28l9 47H73z" fill="#9edfc0" stroke="#4d846d" stroke-width="2.5"/><path d="M82 126c-11 8-18 23-20 47M110 126c11 8 18 23 20 47" fill="none" stroke="#452d21" stroke-width="3" stroke-linecap="round"/><path d="M96 129v44" stroke="#4d846d" stroke-width="2.5" stroke-linecap="round"/><circle cx="96" cy="141" r="2" fill="#4d846d"/><circle cx="96" cy="153" r="2" fill="#4d846d"/><path d="M57 156h23M112 156h23" stroke="#a97860" stroke-width="5" stroke-linecap="round" opacity="0.42"/></g><g id="avatar-v3-example-6-avatar-v2-layer-base"><ellipse data-anatomy="ear-left" cx="38" cy="97" rx="9" ry="12" fill="#e3b493" stroke="#8a5f49" stroke-width="3"/><ellipse data-anatomy="ear-right" cx="154" cy="97" rx="9" ry="12" fill="#e3b493" stroke="#8a5f49" stroke-width="3"/><path data-anatomy="head-wide" d="M57 52C75 38 117 38 135 52C150 64 152 97 137 113C119 133 73 133 55 113C40 97 42 64 57 52z" fill="#e3b493" stroke="#8a5f49" stroke-width="3"/><path d="M58 62c17-17 45-21 64-2" fill="none" stroke="#f2ccb0" stroke-width="8" stroke-linecap="round" opacity="0.4"/><circle cx="75" cy="86" r="5" fill="#3d2c30"/><circle cx="117" cy="86" r="5" fill="#3d2c30"/><circle cx="77" cy="84" r="1.5" fill="#fff8f2"/><circle cx="115" cy="84" r="1.5" fill="#fff8f2"/></g><g id="avatar-v3-example-6-avatar-v2-layer-mouth" data-mouth-style="openSmile"><path d="M80 104Q96 108 112 104Q96 121 80 104Z" fill="#8a5152" stroke="#7a4545" stroke-width="3" stroke-linejoin="round"/><path d="M83 105Q96 108 109 105L108 108Q96 111 84 108Z" fill="#fff8f2"/></g><g id="avatar-v3-example-6-avatar-v2-layer-front-hair"><path d="M49 68c3-29 22-43 50-42 27 2 44 18 47 48-16-10-31-12-47-10-20 3-35 1-50 4z" fill="#75503a" stroke="#372218" stroke-width="3"/><path d="M135 63c8 20 3 43-14 54" fill="#75503a" stroke="#372218" stroke-width="3"/></g><g id="avatar-v3-example-6-avatar-v2-layer-glasses" fill="none" stroke="#30495c" stroke-width="4" stroke-linecap="round"><rect x="60" y="74" width="30" height="24" rx="8"/><rect x="102" y="74" width="30" height="24" rx="8"/><path fill="none" d="M90 86H102"/><path fill="none" d="M60 84L47 89M132 84L145 89"/></g><g id="avatar-v3-example-6-avatar-v2-layer-hair-highlights"><path d="M69 42c16-9 38-10 54 0" fill="none" stroke="#96705a" stroke-width="6" stroke-linecap="round" opacity="0.45"/></g><g id="avatar-v3-example-6-avatar-v2-layer-accessory" data-avatar-mount="hairLeft" transform="translate(66 67) rotate(-12) scale(0.92)"><circle data-accessory-asset="flower" cx="0" cy="0" r="5" fill="#fac3d2" stroke="#9b526b" stroke-width="2"/><circle cx="-8" cy="0" r="6" fill="#efa0b8" stroke="#9b526b" stroke-width="2"/><circle cx="8" cy="0" r="6" fill="#efa0b8" stroke="#9b526b" stroke-width="2"/><circle cx="0" cy="-8" r="6" fill="#efa0b8" stroke="#9b526b" stroke-width="2"/><circle cx="0" cy="8" r="6" fill="#efa0b8" stroke="#9b526b" stroke-width="2"/><path d="M-11 10c7 5 16 5 22 0" fill="none" stroke="#9b526b" stroke-width="3" stroke-linecap="round" opacity="0.55"/></g></g><text x="95" y="202" text-anchor="middle" font-family="Arial, sans-serif" font-size="15" font-weight="700" fill="#34251f">Vest</text><text x="95" y="222" text-anchor="middle" font-family="Arial, sans-serif" font-size="12" fill="#6b5a4d">Cocoa / Mint</text></g>
<g class="avatar-example" data-example-index="7" data-garment="sportsShirt" transform="translate(500 357)"><rect x="0" y="0" width="190" height="240" rx="18" fill="#fffaf2" stroke="#d9c8aa" stroke-width="2"/><g transform="translate(11 12) scale(0.88)"><g id="avatar-v3-example-7-avatar-v2-layer-shirt"><path data-clothing-asset="sportsShirt" d="M39 173l8-29c6-13 19-20 34-22l15 13 15-13c16 2 28 9 34 22l8 29z" fill="#c3a23b" stroke="#6f5818" stroke-width="3"/><path d="M68 173l8-49c7-2 13-2 20 11 7-13 13-13 20-11l8 49z" fill="#44b3b0" stroke="#216565" stroke-width="3" stroke-linejoin="round"/><path d="M80 123c5 8 27 8 32 0" fill="none" stroke="#6f5818" stroke-width="3"/><path d="M54 148l22 2M138 148l-22 2" stroke="#dbc05e" stroke-width="5" stroke-linecap="round" opacity="0.5"/><path d="M83 154h26" stroke="#73d1cf" stroke-width="5" stroke-linecap="round" opacity="0.4"/></g><g id="avatar-v3-example-7-avatar-v2-layer-base"><ellipse data-anatomy="ear-left" cx="44" cy="95" rx="8.5" ry="12.5" fill="#84b6d9" stroke="#456b8b" stroke-width="3"/><ellipse data-anatomy="ear-right" cx="148" cy="95" rx="8.5" ry="12.5" fill="#84b6d9" stroke="#456b8b" stroke-width="3"/><path data-anatomy="head-round" d="M96 34c30 0 51 20 51 46 0 29-21 46-51 46s-51-17-51-46c0-26 21-46 51-46z" fill="#84b6d9" stroke="#456b8b" stroke-width="3"/><path d="M64 56c17-17 45-21 64-2" fill="none" stroke="#aed2ed" stroke-width="8" stroke-linecap="round" opacity="0.4"/><circle cx="77" cy="83" r="5" fill="#3d2c30"/><circle cx="115" cy="83" r="5" fill="#3d2c30"/><circle cx="79" cy="81" r="1.5" fill="#fff8f2"/><circle cx="113" cy="81" r="1.5" fill="#fff8f2"/></g><g id="avatar-v3-example-7-avatar-v2-layer-mouth" data-mouth-style="surprised"><ellipse cx="96" cy="107" rx="8.5" ry="11" fill="#8a5152" stroke="#7a4545" stroke-width="3"/></g><g id="avatar-v3-example-7-avatar-v2-layer-front-hair"><path d="M50 62c0-24 22-39 48-38 27 0 49 16 48 40-10-8-22-11-33-7-16 6-31 4-45-4-8 3-13 6-18 9z" fill="#31a36c" stroke="#19573a" stroke-width="3"/><circle cx="63" cy="55" r="14" fill="#31a36c" stroke="#19573a" stroke-width="3"/><circle cx="91" cy="43" r="16" fill="#31a36c" stroke="#19573a" stroke-width="3"/><circle cx="121" cy="53" r="15" fill="#31a36c" stroke="#19573a" stroke-width="3"/></g><g id="avatar-v3-example-7-avatar-v2-layer-glasses" stroke="#4b2f3f" stroke-width="3" stroke-linejoin="round"><path fill="#7f5369" d="M77 71L79.82 79.12L88.41 79.29L81.57 84.48L84.05 92.71L77 87.8L69.95 92.71L72.43 84.48L65.59 79.29L74.18 79.12Z"/><path fill="#7f5369" d="M115 71L117.82 79.12L126.41 79.29L119.57 84.48L122.05 92.71L115 87.8L107.95 92.71L110.43 84.48L103.59 79.29L112.18 79.12Z"/><path fill="none" stroke-linecap="round" d="M89 83H103M65 81L52.5 87M127 81L139.5 87"/></g><g id="avatar-v3-example-7-avatar-v2-layer-hair-highlights"><path d="M69 42c16-9 38-10 54 0" fill="none" stroke="#58c28a" stroke-width="6" stroke-linecap="round" opacity="0.45"/></g><g id="avatar-v3-example-7-avatar-v2-layer-accessory" data-avatar-mount="headTop" transform="translate(96 52) rotate(0) scale(1)"><path data-accessory-asset="tinyCrown" d="M-28-9l10 12 15-15 14 15 12-12 2 25h-55z" fill="#f3dfa0" stroke="#9a7e39" stroke-width="3"/></g></g><text x="95" y="202" text-anchor="middle" font-family="Arial, sans-serif" font-size="15" font-weight="700" fill="#34251f">Sportshirt</text><text x="95" y="222" text-anchor="middle" font-family="Arial, sans-serif" font-size="12" fill="#6b5a4d">Teal / Mustard</text></g>
<g class="avatar-example" data-example-index="8" data-garment="apronSmock" transform="translate(730 357)"><rect x="0" y="0" width="190" height="240" rx="18" fill="#fffaf2" stroke="#d9c8aa" stroke-width="2"/><g transform="translate(11 12) scale(0.88)"><g id="avatar-v3-example-8-avatar-v2-layer-back-hair"><path data-hair-style="longSoft" d="M47 70c-2-29 18-47 49-47 30 0 50 18 49 48 6 31-7 57-31 65-2-17-7-35-18-51-11 16-16 34-18 51-24-8-37-34-31-66z" fill="#a47f37" stroke="#735825" stroke-width="3"/><path d="M61 74c-2 22 3 42 16 58M132 74c2 22-3 42-17 58" fill="none" stroke="#735825" stroke-width="3" stroke-linecap="round" opacity="0.38"/></g><g id="avatar-v3-example-8-avatar-v2-layer-shirt"><path data-clothing-asset="apronSmock" d="M39 173l8-29c6-13 19-20 34-22l15 13 15-13c16 2 28 9 34 22l8 29z" fill="#efa0b8" stroke="#9b526b" stroke-width="3"/><path d="M78 128l18 16 18-16" fill="none" stroke="#9a7e39" stroke-width="4" stroke-linecap="round" stroke-linejoin="round"/><path d="M72 142h48l10 31H62z" fill="#f3dfa0" stroke="#9a7e39" stroke-width="3" stroke-linejoin="round"/><path d="M74 153h44" stroke="#faedc4" stroke-width="5" stroke-linecap="round" opacity="0.5"/><path d="M64 169h64" stroke="#dbc06a" stroke-width="2.5" stroke-linecap="round" opacity="0.7"/></g><g id="avatar-v3-example-8-avatar-v2-layer-base"><ellipse data-anatomy="ear-left" cx="51" cy="94" rx="8" ry="13.5" fill="#c79169" stroke="#724936" stroke-width="3"/><ellipse data-anatomy="ear-right" cx="141" cy="94" rx="8" ry="13.5" fill="#c79169" stroke="#724936" stroke-width="3"/><path data-anatomy="head-oval" d="M96 27c27 0 44 22 44 53 0 34-18 53-44 53s-44-19-44-53c0-31 17-53 44-53z" fill="#c79169" stroke="#724936" stroke-width="3"/><path d="M71 49c17-17 45-21 64-2" fill="none" stroke="#ddae84" stroke-width="8" stroke-linecap="round" opacity="0.4"/><circle cx="79" cy="82" r="5" fill="#3d2c30"/><circle cx="113" cy="82" r="5" fill="#3d2c30"/><circle cx="81" cy="80" r="1.5" fill="#fff8f2"/><circle cx="111" cy="80" r="1.5" fill="#fff8f2"/></g><g id="avatar-v3-example-8-avatar-v2-layer-mouth" data-mouth-style="tongueOut"><path d="M89 108Q87 121 96 122Q105 121 103 108Z" fill="#d98a8a" stroke="#7a4545" stroke-width="2" stroke-linejoin="round"/><path d="M96 112L96 119" fill="none" stroke="#7a4545" stroke-width="1.5" stroke-linecap="round" opacity="0.6"/><path d="M79 105q17 13 34 -1" fill="none" stroke="#7a4545" stroke-width="4" stroke-linecap="round"/></g><g id="avatar-v3-example-8-avatar-v2-layer-front-hair"><path data-hair-style="longSoft" d="M50 65c5-24 23-39 49-39 24 0 41 13 47 37-17-6-33-7-49-2-15 5-31 9-47 4z" fill="#c9a55c" stroke="#735825" stroke-width="3"/><path d="M95 28c-6 17-19 30-39 38M103 30c15 8 27 19 39 34" fill="none" stroke="#735825" stroke-width="3" stroke-linecap="round" opacity="0.45"/></g><g id="avatar-v3-example-8-avatar-v2-layer-glasses" fill="none" stroke="#30495c" stroke-width="4" stroke-linecap="round"><rect x="64" y="70" width="30" height="24" rx="8"/><rect x="98" y="70" width="30" height="24" rx="8"/><path fill="none" d="M94 82H98"/><path fill="none" d="M64 80L59 86M128 80L133 86"/></g><g id="avatar-v3-example-8-avatar-v2-layer-hair-highlights"><path data-hair-highlight="longSoft" d="M65 54c17-13 38-17 60-11" fill="none" stroke="#e0c178" stroke-width="5" stroke-linecap="round" opacity="0.52"/><path data-hair-highlight="longSoft" d="M126 75c3 18-1 35-10 50" fill="none" stroke="#e0c178" stroke-width="4" stroke-linecap="round" opacity="0.38"/></g><g id="avatar-v3-example-8-avatar-v2-layer-accessory" data-avatar-mount="hairRight" transform="translate(127 53) rotate(12) scale(0.92)"><path data-accessory-asset="bow" d="M0 0c-10-12-21-10-24 2 4 10 14 13 24 3 10 10 20 7 24-3-3-12-14-14-24-2z" fill="#d1b8ea" stroke="#846499" stroke-width="3"/><circle cx="0" cy="2" r="5" fill="#b08dcd" stroke="#846499" stroke-width="2"/></g></g><text x="95" y="202" text-anchor="middle" font-family="Arial, sans-serif" font-size="15" font-weight="700" fill="#34251f">Schort</text><text x="95" y="222" text-anchor="middle" font-family="Arial, sans-serif" font-size="12" fill="#6b5a4d">Rose / Butter</text></g>
</svg>
