<svg xmlns="http://www.w3.org/2000/svg" viewBox="0 0 716 524" width="716" height="524" role="img" aria-label="Avatar V2 contact sheet"><g transform="translate(20 20)"><rect x="0" y="0" width="212" height="232" rx="18" fill="#fffaf3" stroke="#ecdcc9"/><g transform="translate(10 10)"><g id="avatar-v2-layer-back-hair"><path data-hair-style="shortMessy" d="M47 73c-1-26 18-44 49-45 31 0 51 17 50 43-10-6-22-8-35-5-18 4-35 2-50-6-6 3-11 8-14 13z" fill="#43271f" stroke="#35211d" stroke-width="3"/></g><g id="avatar-v2-layer-shirt"><path data-clothing-asset="hoodie" d="M41 173c7-33 27-51 55-51s48 18 55 51z" fill="#8fc8ef" stroke="#417895" stroke-width="3"/><path d="M63 139c10-17 23-24 33-24s23 7 33 24c-12 11-54 11-66 0z" fill="#67a8d8" stroke="#417895" stroke-width="3"/><path d="M78 130c8 9 27 11 36 0" fill="none" stroke="#b6ddf6" stroke-width="5" stroke-linecap="round" opacity="0.65"/><path d="M88 137l-4 21M104 137l4 21" stroke="#417895" stroke-width="3" stroke-linecap="round"/><circle cx="84" cy="160" r="2.5" fill="#417895"/><circle cx="108" cy="160" r="2.5" fill="#417895"/></g><g id="avatar-v2-layer-base"><ellipse data-anatomy="ear-left" cx="44" cy="95" rx="8.5" ry="12.5" fill="#f4bf9b" stroke="#9f5f55" stroke-width="3"/><ellipse data-anatomy="ear-right" cx="148" cy="95" rx="8.5" ry="12.5" fill="#f4bf9b" stroke="#9f5f55" stroke-width="3"/><path data-anatomy="head-round" d="M96 34c30 0 51 20 51 46 0 29-21 46-51 46s-51-17-51-46c0-26 21-46 51-46z" fill="#f4bf9b" stroke="#9f5f55" stroke-width="3"/><path d="M64 56c17-17 45-21 64-2" fill="none" stroke="#ffd8bf" stroke-width="8" stroke-linecap="round" opacity="0.4"/><circle cx="77" cy="83" r="5" fill="#3d2c30"/><circle cx="115" cy="83" r="5" fill="#3d2c30"/><circle cx="79" cy="81" r="1.5" fill="#fff8f2"/><circle cx="113" cy="81" r="1.5" fill="#fff8f2"/><path d="M78 104c10 12 27 12 37-1" fill="none" stroke="#7a4545" stroke-width="4" stroke-linecap="round"/></g><g id="avatar-v2-layer-front-hair"><path data-hair-style="shortMessy" d="M49 66c7-22 25-36 49-37 18-1 34 5 45 17 4 4 6 9 7 15-11-4-22-3-33 3l-9 13-10-17-15 19-6-17c-10 8-20 9-28 4z" fill="#68402f" stroke="#35211d" stroke-width="3"/><path d="M62 47c8-8 19-13 32-15M88 35c-5 8-8 17-9 27M116 36c10 5 17 13 22 24" fill="none" stroke="#35211d" stroke-width="3" stroke-linecap="round" opacity="0.46"/></g><g id="avatar-v2-layer-hair-highlights"><path data-hair-highlight="shortMessy" d="M68 45c14-8 33-10 50-4" fill="none" stroke="#8a5d47" stroke-width="5" stroke-linecap="round" opacity="0.58"/><path data-hair-highlight="shortMessy" d="M90 56c-4 5-7 10-11 15" fill="none" stroke="#8a5d47" stroke-width="4" stroke-linecap="round" opacity="0.42"/></g><g id="avatar-v2-layer-accessory" data-avatar-mount="hairRight" transform="translate(127 60) rotate(12) scale(0.92)"><path data-accessory-asset="star" d="M0-14l5 9 10 1-7 7 2 10-10-5-10 5 2-10-7-7 10-1z" fill="#f29a82" stroke="#9c554c" stroke-width="3"/><path d="M-3-4l3-4 3 4" fill="none" stroke="#ffc2b2" stroke-width="3" stroke-linecap="round" opacity="0.7"/></g></g><text x="106" y="220" text-anchor="middle" font-family="Inter, Arial, sans-serif" font-size="14" fill="#5f5147">showcaseSampleA</text></g><g transform="translate(252 20)"><rect x="0" y="0" width="212" height="232" rx="18" fill="#fffaf3" stroke="#ecdcc9"/><g transform="translate(10 10)"><g id="avatar-v2-layer-back-hair"><path data-hair-style="longSoft" d="M47 70c-2-29 18-47 49-47 30 0 50 18 49 48 6 31-7 57-31 65-2-17-7-35-18-51-11 16-16 34-18 51-24-8-37-34-31-66z" fill="#7d3f24" stroke="#5f321f" stroke-width="3"/><path d="M61 74c-2 22 3 42 16 58M132 74c2 22-3 42-17 58" fill="none" stroke="#5f321f" stroke-width="3" stroke-linecap="round" opacity="0.38"/></g><g id="avatar-v2-layer-shirt"><path data-clothing-asset="sweater" d="M40 173c7-33 27-51 56-51s49 18 56 51z" fill="#efa0b8" stroke="#9b526b" stroke-width="3"/><path d="M73 125c7 14 39 14 46 0" fill="none" stroke="#9b526b" stroke-width="4"/><path d="M58 146h76M54 160h84" stroke="#fac3d2" stroke-width="5" stroke-linecap="round" opacity="0.5"/></g><g id="avatar-v2-layer-base"><ellipse data-anatomy="ear-left" cx="51" cy="94" rx="8" ry="13.5" fill="#d99f67" stroke="#7f523f" stroke-width="3"/><ellipse data-anatomy="ear-right" cx="141" cy="94" rx="8" ry="13.5" fill="#d99f67" stroke="#7f523f" stroke-width="3"/><path data-anatomy="head-oval" d="M96 27c27 0 44 22 44 53 0 34-18 53-44 53s-44-19-44-53c0-31 17-53 44-53z" fill="#d99f67" stroke="#7f523f" stroke-width="3"/><path d="M71 49c17-17 45-21 64-2" fill="none" stroke="#efbd87" stroke-width="8" stroke-linecap="round" opacity="0.4"/><circle cx="79" cy="82" r="5" fill="#3d2c30"/><circle cx="113" cy="82" r="5" fill="#3d2c30"/><circle cx="81" cy="80" r="1.5" fill="#fff8f2"/><circle cx="111" cy="80" r="1.5" fill="#fff8f2"/><path d="M78 106c10 12 27 12 37-1" fill="none" stroke="#7a4545" stroke-width="4" stroke-linecap="round"/></g><g id="avatar-v2-layer-front-hair"><path data-hair-style="longSoft" d="M50 65c5-24 23-39 49-39 24 0 41 13 47 37-17-6-33-7-49-2-15 5-31 9-47 4z" fill="#a75f34" stroke="#5f321f" stroke-width="3"/><path d="M95 28c-6 17-19 30-39 38M103 30c15 8 27 19 39 34" fill="none" stroke="#5f321f" stroke-width="3" stroke-linecap="round" opacity="0.45"/></g><g id="avatar-v2-layer-hair-highlights"><path data-hair-highlight="longSoft" d="M65 54c17-13 38-17 60-11" fill="none" stroke="#c98250" stroke-width="5" stroke-linecap="round" opacity="0.52"/><path data-hair-highlight="longSoft" d="M126 75c3 18-1 35-10 50" fill="none" stroke="#c98250" stroke-width="4" stroke-linecap="round" opacity="0.38"/></g><g id="avatar-v2-layer-accessory" data-avatar-mount="hairLeft" transform="translate(66 54) rotate(-12) scale(0.92)"><circle data-accessory-asset="flower" cx="0" cy="0" r="5" fill="#decdf7" stroke="#725a9f" stroke-width="2"/><circle cx="-8" cy="0" r="6" fill="#c5a7ef" stroke="#725a9f" stroke-width="2"/><circle cx="8" cy="0" r="6" fill="#c5a7ef" stroke="#725a9f" stroke-width="2"/><circle cx="0" cy="-8" r="6" fill="#c5a7ef" stroke="#725a9f" stroke-width="2"/><circle cx="0" cy="8" r="6" fill="#c5a7ef" stroke="#725a9f" stroke-width="2"/><path d="M-11 10c7 5 16 5 22 0" fill="none" stroke="#725a9f" stroke-width="3" stroke-linecap="round" opacity="0.55"/></g></g><text x="106" y="220" text-anchor="middle" font-family="Inter, Arial, sans-serif" font-size="14" fill="#5f5147">showcaseSampleB</text></g><g transform="translate(484 20)"><rect x="0" y="0" width="212" height="232" rx="18" fill="#fffaf3" stroke="#ecdcc9"/><g transform="translate(10 10)"><g id="avatar-v2-layer-back-hair"><path data-hair-style="curlyPlayful" data-concept="loose-wavy-curls-fixed" d="M49 71c-2-27 18-46 48-46 29 1 48 19 47 45 7 24 0 45-18 58-5-18-13-31-27-42-14 10-24 24-30 42-18-13-26-34-20-57z" fill="#4e344d" stroke="#3f2a3d" stroke-width="3"/><path d="M61 74c3 19 10 34 22 46M132 72c-2 19-10 34-23 46" fill="none" stroke="#3f2a3d" stroke-width="3" stroke-linecap="round" opacity="0.38"/></g><g id="avatar-v2-layer-shirt"><path data-clothing-asset="tShirt" d="M39 173l8-29c6-13 19-20 34-22l15 13 15-13c16 2 28 9 34 22l8 29z" fill="#9edfc0" stroke="#4d846d" stroke-width="3"/><path d="M80 123c5 8 27 8 32 0" fill="none" stroke="#4d846d" stroke-width="3"/><path d="M54 151h84" stroke="#c1edd7" stroke-width="6" stroke-linecap="round" opacity="0.48"/></g><g id="avatar-v2-layer-base"><ellipse data-anatomy="ear-left" cx="38" cy="97" rx="9" ry="12" fill="#9b6547" stroke="#55332b" stroke-width="3"/><ellipse data-anatomy="ear-right" cx="154" cy="97" rx="9" ry="12" fill="#9b6547" stroke="#55332b" stroke-width="3"/><path data-anatomy="head-wide" d="M57 52C75 38 117 38 135 52C150 64 152 97 137 113C119 133 73 133 55 113C40 97 42 64 57 52z" fill="#9b6547" stroke="#55332b" stroke-width="3"/><path d="M58 62c17-17 45-21 64-2" fill="none" stroke="#bd8060" stroke-width="8" stroke-linecap="round" opacity="0.4"/><circle cx="75" cy="86" r="5" fill="#3d2c30"/><circle cx="117" cy="86" r="5" fill="#3d2c30"/><circle cx="77" cy="84" r="1.5" fill="#fff8f2"/><circle cx="115" cy="84" r="1.5" fill="#fff8f2"/><path d="M78 106c10 12 27 12 37-1" fill="none" stroke="#7a4545" stroke-width="4" stroke-linecap="round"/></g><g id="avatar-v2-layer-accessory" data-accessory-asset="headband" data-accessory-layer-rule="partial-occlusion-rear" data-headband-model="anatomy-anchor-curve"><path d="M47 70.2C64.1 48.4 127.9 48.4 145 70.2" fill="none" stroke="#9c554c" stroke-width="8" stroke-linecap="round"/><path d="M50 69.2C67.1 53.4 124.9 53.4 142 69.2" fill="none" stroke="#f29a82" stroke-width="4" stroke-linecap="round"/></g><g id="avatar-v2-layer-front-hair"><path data-hair-style="curlyPlayful" data-concept="loose-wavy-curls-fixed" d="M51 65c7-23 25-37 49-37 23 0 39 13 44 34-12-5-25-4-36 2-10 5-20 8-30 6-9-1-18-3-27-5z" fill="#6f4a66" stroke="#3f2a3d" stroke-width="3"/><path d="M97 29c-7 12-18 22-36 34M103 31c14 7 25 17 36 31M76 70c10 6 24 4 37-4" fill="none" stroke="#3f2a3d" stroke-width="3" stroke-linecap="round" opacity="0.5"/></g><g id="avatar-v2-layer-hair-highlights"><path data-hair-highlight="curlyPlayful" data-concept="loose-wavy-curls-fixed" d="M66 54c16-13 34-17 55-10" fill="none" stroke="#92708a" stroke-width="4" stroke-linecap="round" opacity="0.58"/><path data-hair-highlight="curlyPlayful" data-concept="loose-wavy-curls-fixed" d="M121 64c7 4 12 11 14 20" fill="none" stroke="#92708a" stroke-width="3" stroke-linecap="round" opacity="0.42"/></g><g id="avatar-v2-layer-accessory-visible" data-accessory-asset="headband" data-accessory-layer-rule="partial-occlusion-visible" data-headband-model="anatomy-anchor-curve"><path d="M47 70.2C52 63.2 60.1 56.4 66.1 53.4M125.9 53.4C131.9 56.4 140 63.2 145 70.2" fill="none" stroke="#9c554c" stroke-width="8" stroke-linecap="round"/><path d="M50 69.2C54 64.2 63.1 58.4 69.1 55.4M122.9 55.4C128.9 58.4 138 64.2 142 69.2" fill="none" stroke="#f29a82" stroke-width="4" stroke-linecap="round"/></g></g><text x="106" y="220" text-anchor="middle" font-family="Inter, Arial, sans-serif" font-size="14" fill="#5f5147">showcaseSampleC</text></g><g transform="translate(20 272)"><rect x="0" y="0" width="212" height="232" rx="18" fill="#fffaf3" stroke="#ecdcc9"/><g transform="translate(10 10)"><g id="avatar-v2-layer-back-hair"><path data-hair-style="shortMessy" d="M47 73c-1-26 18-44 49-45 31 0 51 17 50 43-10-6-22-8-35-5-18 4-35 2-50-6-6 3-11 8-14 13z" fill="#7d3f24" stroke="#5f321f" stroke-width="3"/></g><g id="avatar-v2-layer-shirt"><path data-clothing-asset="overall" d="M42 173c8-32 27-49 54-49s46 17 54 49z" fill="#f8df9b" stroke="#98733b" stroke-width="3"/><path d="M68 173v-43h18l10 14 10-14h18v43z" fill="#f2cd70" stroke="#98733b" stroke-width="3"/><path d="M76 130v-12M116 130v-12" stroke="#98733b" stroke-width="5" stroke-linecap="round"/><circle cx="82" cy="142" r="3" fill="#98733b"/><circle cx="110" cy="142" r="3" fill="#98733b"/></g><g id="avatar-v2-layer-base"><ellipse data-anatomy="ear-left" cx="38" cy="97" rx="9" ry="12" fill="#d99f67" stroke="#7f523f" stroke-width="3"/><ellipse data-anatomy="ear-right" cx="154" cy="97" rx="9" ry="12" fill="#d99f67" stroke="#7f523f" stroke-width="3"/><path data-anatomy="head-wide" d="M57 52C75 38 117 38 135 52C150 64 152 97 137 113C119 133 73 133 55 113C40 97 42 64 57 52z" fill="#d99f67" stroke="#7f523f" stroke-width="3"/><path d="M58 62c17-17 45-21 64-2" fill="none" stroke="#efbd87" stroke-width="8" stroke-linecap="round" opacity="0.4"/><circle cx="75" cy="86" r="5" fill="#3d2c30"/><circle cx="117" cy="86" r="5" fill="#3d2c30"/><circle cx="77" cy="84" r="1.5" fill="#fff8f2"/><circle cx="115" cy="84" r="1.5" fill="#fff8f2"/><path d="M78 106c10 12 27 12 37-1" fill="none" stroke="#7a4545" stroke-width="4" stroke-linecap="round"/></g><g id="avatar-v2-layer-front-hair"><path data-hair-style="shortMessy" d="M49 66c7-22 25-36 49-37 18-1 34 5 45 17 4 4 6 9 7 15-11-4-22-3-33 3l-9 13-10-17-15 19-6-17c-10 8-20 9-28 4z" fill="#a75f34" stroke="#5f321f" stroke-width="3"/><path d="M62 47c8-8 19-13 32-15M88 35c-5 8-8 17-9 27M116 36c10 5 17 13 22 24" fill="none" stroke="#5f321f" stroke-width="3" stroke-linecap="round" opacity="0.46"/></g><g id="avatar-v2-layer-glasses" fill="none" stroke="#4b2f3f" stroke-width="4" stroke-linecap="round"><rect x="60" y="74" width="30" height="24" rx="8"/><rect x="102" y="74" width="30" height="24" rx="8"/><path d="M90 86H102"/><path d="M60 84L47 89M132 84L145 89"/></g><g id="avatar-v2-layer-hair-highlights"><path data-hair-highlight="shortMessy" d="M68 45c14-8 33-10 50-4" fill="none" stroke="#c98250" stroke-width="5" stroke-linecap="round" opacity="0.58"/><path data-hair-highlight="shortMessy" d="M90 56c-4 5-7 10-11 15" fill="none" stroke="#c98250" stroke-width="4" stroke-linecap="round" opacity="0.42"/></g><g id="avatar-v2-layer-accessory" data-avatar-mount="hairRight" transform="translate(127 66) rotate(12) scale(0.92)"><path data-accessory-asset="bow" d="M0 0c-10-12-21-10-24 2 4 10 14 13 24 3 10 10 20 7 24-3-3-12-14-14-24-2z" fill="#f29a82" stroke="#9c554c" stroke-width="3"/><circle cx="0" cy="2" r="5" fill="#d6735f" stroke="#9c554c" stroke-width="2"/></g></g><text x="106" y="220" text-anchor="middle" font-family="Inter, Arial, sans-serif" font-size="14" fill="#5f5147">showcaseSampleD</text></g><g transform="translate(252 272)"><rect x="0" y="0" width="212" height="232" rx="18" fill="#fffaf3" stroke="#ecdcc9"/><g transform="translate(10 10)"><g id="avatar-v2-layer-back-hair"><path d="M49 76c-4-28 15-49 47-50 32 0 52 21 48 51-9-10-19-14-31-12-16 3-31 6-48-2-7 3-12 7-16 13z" fill="#7d3f24" stroke="#5f321f" stroke-width="3"/></g><g id="avatar-v2-layer-shirt"><path data-clothing-asset="roundedTee" d="M42 172c8-32 27-49 54-49s46 17 54 49z" fill="#8fc8ef" stroke="#417895" stroke-width="3"/><path d="M62 150c17-13 48-14 68 0" fill="none" stroke="#b6ddf6" stroke-width="7" stroke-linecap="round" opacity="0.5"/><path d="M78 137l18 18 18-18" fill="#fff6ed" stroke="#417895" stroke-width="3"/></g><g id="avatar-v2-layer-base"><ellipse data-anatomy="ear-left" cx="51" cy="94" rx="8" ry="13.5" fill="#9b6547" stroke="#55332b" stroke-width="3"/><ellipse data-anatomy="ear-right" cx="141" cy="94" rx="8" ry="13.5" fill="#9b6547" stroke="#55332b" stroke-width="3"/><path data-anatomy="head-oval" d="M96 27c27 0 44 22 44 53 0 34-18 53-44 53s-44-19-44-53c0-31 17-53 44-53z" fill="#9b6547" stroke="#55332b" stroke-width="3"/><path d="M71 49c17-17 45-21 64-2" fill="none" stroke="#bd8060" stroke-width="8" stroke-linecap="round" opacity="0.4"/><circle cx="79" cy="82" r="5" fill="#3d2c30"/><circle cx="113" cy="82" r="5" fill="#3d2c30"/><circle cx="81" cy="80" r="1.5" fill="#fff8f2"/><circle cx="111" cy="80" r="1.5" fill="#fff8f2"/><path d="M78 106c10 12 27 12 37-1" fill="none" stroke="#7a4545" stroke-width="4" stroke-linecap="round"/></g><g id="avatar-v2-layer-front-hair"><path d="M50 65c11-25 31-34 57-31 20 2 34 11 40 27-15-5-29-5-43-1l-11 18-8-15c-11 9-22 12-35 2z" fill="#a75f34" stroke="#5f321f" stroke-width="3"/><path d="M68 38c-9 9-14 17-16 28M122 39c13 8 20 16 24 25" fill="none" stroke="#5f321f" stroke-width="3" stroke-linecap="round" opacity="0.45"/></g><g id="avatar-v2-layer-glasses" fill="none" stroke="#30495c" stroke-width="4" stroke-linecap="round"><rect x="64.5" y="70" width="29" height="24" rx="13"/><rect x="98.5" y="70" width="29" height="24" rx="13"/><path d="M93.5 82H98.5"/><path d="M64.5 80L59 86M127.5 80L133 86"/></g><g id="avatar-v2-layer-hair-highlights"><path d="M70 44c18-10 39-10 55 1" fill="none" stroke="#c98250" stroke-width="5" stroke-linecap="round" opacity="0.55"/><path d="M88 61c10-7 22-9 34-6" fill="none" stroke="#c98250" stroke-width="4" stroke-linecap="round" opacity="0.35"/></g><g id="avatar-v2-layer-accessory" data-avatar-mount="chestCenter" transform="translate(96 151) rotate(0) scale(1)"><path d="M0-13l4 8 9 1-7 6 2 9-8-4-8 4 2-9-7-6 9-1z" fill="#c5a7ef" stroke="#725a9f" stroke-width="3"/><path d="M-3-5l3-4 3 4" fill="none" stroke="#decdf7" stroke-width="3" stroke-linecap="round" opacity="0.7"/></g></g><text x="106" y="220" text-anchor="middle" font-family="Inter, Arial, sans-serif" font-size="14" fill="#5f5147">showcaseSampleE</text></g><g transform="translate(484 272)"><rect x="0" y="0" width="212" height="232" rx="18" fill="#fffaf3" stroke="#ecdcc9"/><g transform="translate(10 10)"><g id="avatar-v2-layer-back-hair"><path data-hair-style="curlyPlayful" data-concept="loose-wavy-curls-fixed" d="M49 71c-2-27 18-46 48-46 29 1 48 19 47 45 7 24 0 45-18 58-5-18-13-31-27-42-14 10-24 24-30 42-18-13-26-34-20-57z" fill="#4e344d" stroke="#3f2a3d" stroke-width="3"/><path d="M61 74c3 19 10 34 22 46M132 72c-2 19-10 34-23 46" fill="none" stroke="#3f2a3d" stroke-width="3" stroke-linecap="round" opacity="0.38"/></g><g id="avatar-v2-layer-shirt"><path data-clothing-asset="roundedTee" d="M42 172c8-32 27-49 54-49s46 17 54 49z" fill="#9edfc0" stroke="#4d846d" stroke-width="3"/><path d="M62 150c17-13 48-14 68 0" fill="none" stroke="#c1edd7" stroke-width="7" stroke-linecap="round" opacity="0.5"/></g><g id="avatar-v2-layer-base"><ellipse data-anatomy="ear-left" cx="44" cy="95" rx="8.5" ry="12.5" fill="#d99f67" stroke="#7f523f" stroke-width="3"/><ellipse data-anatomy="ear-right" cx="148" cy="95" rx="8.5" ry="12.5" fill="#d99f67" stroke="#7f523f" stroke-width="3"/><path data-anatomy="head-round" d="M96 34c30 0 51 20 51 46 0 29-21 46-51 46s-51-17-51-46c0-26 21-46 51-46z" fill="#d99f67" stroke="#7f523f" stroke-width="3"/><path d="M64 56c17-17 45-21 64-2" fill="none" stroke="#efbd87" stroke-width="8" stroke-linecap="round" opacity="0.4"/><circle cx="77" cy="83" r="5" fill="#3d2c30"/><circle cx="115" cy="83" r="5" fill="#3d2c30"/><circle cx="79" cy="81" r="1.5" fill="#fff8f2"/><circle cx="113" cy="81" r="1.5" fill="#fff8f2"/><path d="M78 104c10 12 27 12 37-1" fill="none" stroke="#7a4545" stroke-width="4" stroke-linecap="round"/></g><g id="avatar-v2-layer-front-hair"><path data-hair-style="curlyPlayful" data-concept="loose-wavy-curls-fixed" d="M51 65c7-23 25-37 49-37 23 0 39 13 44 34-12-5-25-4-36 2-10 5-20 8-30 6-9-1-18-3-27-5z" fill="#6f4a66" stroke="#3f2a3d" stroke-width="3"/><path d="M97 29c-7 12-18 22-36 34M103 31c14 7 25 17 36 31M76 70c10 6 24 4 37-4" fill="none" stroke="#3f2a3d" stroke-width="3" stroke-linecap="round" opacity="0.5"/></g><g id="avatar-v2-layer-hair-highlights"><path data-hair-highlight="curlyPlayful" data-concept="loose-wavy-curls-fixed" d="M66 54c16-13 34-17 55-10" fill="none" stroke="#92708a" stroke-width="4" stroke-linecap="round" opacity="0.58"/><path data-hair-highlight="curlyPlayful" data-concept="loose-wavy-curls-fixed" d="M121 64c7 4 12 11 14 20" fill="none" stroke="#92708a" stroke-width="3" stroke-linecap="round" opacity="0.42"/></g><g id="avatar-v2-layer-accessory" data-avatar-mount="hairRight" transform="translate(127 60) rotate(12) scale(0.92)"><path data-accessory-asset="leafPin" d="M-14 2C-5-14 10-16 17-4 10 13-5 17-14 2z" fill="#f29a82" stroke="#9c554c" stroke-width="3"/><path d="M-10 1C-2-1 7-4 14-8" fill="none" stroke="#ffc2b2" stroke-width="3" stroke-linecap="round"/><path d="M-2-1l-3-7M4-3l3 6" fill="none" stroke="#9c554c" stroke-width="2" stroke-linecap="round" opacity="0.55"/></g></g><text x="106" y="220" text-anchor="middle" font-family="Inter, Arial, sans-serif" font-size="14" fill="#5f5147">showcaseSampleF</text></g></svg>