<svg xmlns="http://www.w3.org/2000/svg" viewBox="0 0 920 272" width="920" height="272" role="img" aria-label="Avatar Eyes V1 renderer variety sheet"><rect id="eyes-v1-background" width="920" height="272" fill="#fff8f2"/><text id="eyes-v1-title" x="24" y="28" font-family="Arial, sans-serif" font-size="18" font-weight="700" fill="#3d2c30">Avatar Eyes V1 variety sheet</text><g id="eyes-v1-cell-classicRound" transform="translate(24 48)"><text id="eyes-v1-label-classicRound" x="96" y="-16" text-anchor="middle" font-family="Arial, sans-serif" font-size="13" fill="#3d2c30">classicRound</text><g id="eyes-v1-classicRound-avatar-v2-layer-back-hair"><path data-hair-style="shortMessy" d="M47 73c-1-26 18-44 49-45 31 0 51 17 50 43-10-6-22-8-35-5-18 4-35 2-50-6-6 3-11 8-14 13z" fill="#43271f" stroke="#35211d" stroke-width="3"/></g><g id="eyes-v1-classicRound-avatar-v2-layer-shirt"><path data-clothing-asset="roundedTee" d="M42 172c8-32 27-49 54-49s46 17 54 49z" fill="#efa0b8" stroke="#9b526b" stroke-width="3"/><path d="M62 150c17-13 48-14 68 0" fill="none" stroke="#fac3d2" stroke-width="7" stroke-linecap="round" opacity="0.5"/></g><g id="eyes-v1-classicRound-avatar-v2-layer-base"><ellipse data-anatomy="ear-left" cx="44" cy="95" rx="8.5" ry="12.5" fill="#d8a37d" stroke="#7e543f" stroke-width="3"/><ellipse data-anatomy="ear-right" cx="148" cy="95" rx="8.5" ry="12.5" fill="#d8a37d" stroke="#7e543f" stroke-width="3"/><path data-anatomy="head-round" d="M96 34c30 0 51 20 51 46 0 29-21 46-51 46s-51-17-51-46c0-26 21-46 51-46z" fill="#d8a37d" stroke="#7e543f" stroke-width="3"/><path d="M64 56c17-17 45-21 64-2" fill="none" stroke="#edc09b" stroke-width="8" stroke-linecap="round" opacity="0.4"/></g><g id="eyes-v1-classicRound-avatar-v2-layer-eyes" data-eye-style="classicRound"><circle cx="77" cy="83" r="5" fill="#3d2c30"/><circle cx="79" cy="81" r="1.5" fill="#fff8f2"/><circle cx="115" cy="83" r="5" fill="#3d2c30"/><circle cx="113" cy="81" r="1.5" fill="#fff8f2"/></g><g id="eyes-v1-classicRound-avatar-v2-layer-mouth" data-mouth-style="neutral"><path d="M78 104c10 12 27 12 37-1" fill="none" stroke="#7a4545" stroke-width="4" stroke-linecap="round"/></g><g id="eyes-v1-classicRound-avatar-v2-layer-front-hair"><path data-hair-style="shortMessy" d="M49 66c7-22 25-36 49-37 18-1 34 5 45 17 4 4 6 9 7 15-11-4-22-3-33 3l-9 13-10-17-15 19-6-17c-10 8-20 9-28 4z" fill="#68402f" stroke="#35211d" stroke-width="3"/><path d="M62 47c8-8 19-13 32-15M88 35c-5 8-8 17-9 27M116 36c10 5 17 13 22 24" fill="none" stroke="#35211d" stroke-width="3" stroke-linecap="round" opacity="0.46"/></g><g id="eyes-v1-classicRound-avatar-v2-layer-hair-highlights"><path data-hair-highlight="shortMessy" d="M68 45c14-8 33-10 50-4" fill="none" stroke="#8a5d47" stroke-width="5" stroke-linecap="round" opacity="0.58"/><path data-hair-highlight="shortMessy" d="M90 56c-4 5-7 10-11 15" fill="none" stroke="#8a5d47" stroke-width="4" stroke-linecap="round" opacity="0.42"/></g><g id="eyes-v1-classicRound-avatar-v2-layer-accessory" data-avatar-mount="hairRight" transform="translate(127 60) rotate(12) scale(0.92)"><path data-accessory-asset="leafPin" d="M-14 2C-5-14 10-16 17-4 10 13-5 17-14 2z" fill="#8fc8ef" stroke="#417895" stroke-width="3"/><path d="M-10 1C-2-1 7-4 14-8" fill="none" stroke="#b6ddf6" stroke-width="3" stroke-linecap="round"/><path d="M-2-1l-3-7M4-3l3 6" fill="none" stroke="#417895" stroke-width="2" stroke-linecap="round" opacity="0.55"/></g></g><g id="eyes-v1-cell-softAlmond" transform="translate(244 48)"><text id="eyes-v1-label-softAlmond" x="96" y="-16" text-anchor="middle" font-family="Arial, sans-serif" font-size="13" fill="#3d2c30">softAlmond</text><g id="eyes-v1-softAlmond-avatar-v2-layer-shirt"><path data-clothing-asset="roundedTee" d="M42 172c8-32 27-49 54-49s46 17 54 49z" fill="#efa0b8" stroke="#9b526b" stroke-width="3"/><path d="M62 150c17-13 48-14 68 0" fill="none" stroke="#fac3d2" stroke-width="7" stroke-linecap="round" opacity="0.5"/></g><g id="eyes-v1-softAlmond-avatar-v2-layer-base"><ellipse data-anatomy="ear-left" cx="51" cy="94" rx="8" ry="13.5" fill="#e3b493" stroke="#8a5f49" stroke-width="3"/><ellipse data-anatomy="ear-right" cx="141" cy="94" rx="8" ry="13.5" fill="#e3b493" stroke="#8a5f49" stroke-width="3"/><path data-anatomy="head-oval" d="M96 27c27 0 44 22 44 53 0 34-18 53-44 53s-44-19-44-53c0-31 17-53 44-53z" fill="#e3b493" stroke="#8a5f49" stroke-width="3"/><path d="M71 49c17-17 45-21 64-2" fill="none" stroke="#f2ccb0" stroke-width="8" stroke-linecap="round" opacity="0.4"/></g><g id="eyes-v1-softAlmond-avatar-v2-layer-eyes" data-eye-style="softAlmond"><ellipse cx="79" cy="82" rx="6.5" ry="4.25" fill="#3d2c30"/><circle cx="81" cy="80" r="1.5" fill="#fff8f2"/><ellipse cx="113" cy="82" rx="6.5" ry="4.25" fill="#3d2c30"/><circle cx="111" cy="80" r="1.5" fill="#fff8f2"/></g><g id="eyes-v1-softAlmond-avatar-v2-layer-mouth" data-mouth-style="smile"><path d="M77 104c10 15 28 15 38-1" fill="none" stroke="#7a4545" stroke-width="4" stroke-linecap="round"/></g><g id="eyes-v1-softAlmond-avatar-v2-layer-front-hair"><path d="M49 68c3-29 22-43 50-42 27 2 44 18 47 48-16-10-31-12-47-10-20 3-35 1-50 4z" fill="#c9a55c" stroke="#735825" stroke-width="3"/><path d="M135 63c8 20 3 43-14 54" fill="#c9a55c" stroke="#735825" stroke-width="3"/></g><g id="eyes-v1-softAlmond-avatar-v2-layer-glasses" fill="none" stroke="#30495c" stroke-width="4" stroke-linecap="round"><rect x="64" y="70" width="30" height="24" rx="8"/><rect x="98" y="70" width="30" height="24" rx="8"/><path fill="none" d="M94 82H98"/><path fill="none" d="M64 80L59 86M128 80L133 86"/></g><g id="eyes-v1-softAlmond-avatar-v2-layer-hair-highlights"><path d="M69 42c16-9 38-10 54 0" fill="none" stroke="#e0c178" stroke-width="6" stroke-linecap="round" opacity="0.45"/></g><g id="eyes-v1-softAlmond-avatar-v2-layer-accessory" data-avatar-mount="hairRight" transform="translate(127 53) rotate(12) scale(0.92)"><path data-accessory-asset="leafPin" d="M-14 2C-5-14 10-16 17-4 10 13-5 17-14 2z" fill="#8fc8ef" stroke="#417895" stroke-width="3"/><path d="M-10 1C-2-1 7-4 14-8" fill="none" stroke="#b6ddf6" stroke-width="3" stroke-linecap="round"/><path d="M-2-1l-3-7M4-3l3 6" fill="none" stroke="#417895" stroke-width="2" stroke-linecap="round" opacity="0.55"/></g></g><g id="eyes-v1-cell-gentleArc" transform="translate(464 48)"><text id="eyes-v1-label-gentleArc" x="96" y="-16" text-anchor="middle" font-family="Arial, sans-serif" font-size="13" fill="#3d2c30">gentleArc</text><g id="eyes-v1-gentleArc-avatar-v2-layer-back-hair"><path data-hair-style="curlyPlayful" data-concept="loose-wavy-curls-fixed" d="M49 71c-2-27 18-46 48-46 29 1 48 19 47 45 7 24 0 45-18 58-5-18-13-31-27-42-14 10-24 24-30 42-18-13-26-34-20-57z" fill="#15100f" stroke="#0c0909" stroke-width="3"/><path d="M61 74c3 19 10 34 22 46M132 72c-2 19-10 34-23 46" fill="none" stroke="#0c0909" stroke-width="3" stroke-linecap="round" opacity="0.38"/></g><g id="eyes-v1-gentleArc-avatar-v2-layer-shirt"><path data-clothing-asset="roundedTee" d="M42 172c8-32 27-49 54-49s46 17 54 49z" fill="#efa0b8" stroke="#9b526b" stroke-width="3"/><path d="M62 150c17-13 48-14 68 0" fill="none" stroke="#fac3d2" stroke-width="7" stroke-linecap="round" opacity="0.5"/></g><g id="eyes-v1-gentleArc-avatar-v2-layer-base"><ellipse data-anatomy="ear-left" cx="38" cy="97" rx="9" ry="12" fill="#a96b49" stroke="#5e3526" stroke-width="3"/><ellipse data-anatomy="ear-right" cx="154" cy="97" rx="9" ry="12" fill="#a96b49" stroke="#5e3526" stroke-width="3"/><path data-anatomy="head-wide" d="M57 52C75 38 117 38 135 52C150 64 152 97 137 113C119 133 73 133 55 113C40 97 42 64 57 52z" fill="#a96b49" stroke="#5e3526" stroke-width="3"/><path d="M58 62c17-17 45-21 64-2" fill="none" stroke="#c88963" stroke-width="8" stroke-linecap="round" opacity="0.4"/></g><g id="eyes-v1-gentleArc-avatar-v2-layer-eyes" data-eye-style="gentleArc"><ellipse cx="75" cy="86.5" rx="5.4" ry="4.6" fill="#3d2c30"/><path d="M69.5 83.8Q75 80 80.5 83.8" fill="none" stroke="#6f4448" stroke-width="2" stroke-linecap="round" opacity="0.72"/><circle cx="77" cy="84.5" r="1.5" fill="#fff8f2"/><ellipse cx="117" cy="86.5" rx="5.4" ry="4.6" fill="#3d2c30"/><path d="M111.5 83.8Q117 80 122.5 83.8" fill="none" stroke="#6f4448" stroke-width="2" stroke-linecap="round" opacity="0.72"/><circle cx="115" cy="84.5" r="1.5" fill="#fff8f2"/></g><g id="eyes-v1-gentleArc-avatar-v2-layer-mouth" data-mouth-style="laughing"><path d="M78 103Q96 107 114 103Q96 128 78 103Z" fill="#8a5152" stroke="#7a4545" stroke-width="3" stroke-linejoin="round"/><path d="M81 104Q96 107 111 104L110 108Q96 111 82 108Z" fill="#fff8f2"/><path d="M88 115Q96 112 104 115Q106 125 96 125Q86 125 88 115Z" fill="#d98a8a"/></g><g id="eyes-v1-gentleArc-avatar-v2-layer-front-hair"><path data-hair-style="curlyPlayful" data-concept="loose-wavy-curls-fixed" d="M51 65c7-23 25-37 49-37 23 0 39 13 44 34-12-5-25-4-36 2-10 5-20 8-30 6-9-1-18-3-27-5z" fill="#201918" stroke="#0c0909" stroke-width="3"/><path d="M97 29c-7 12-18 22-36 34M103 31c14 7 25 17 36 31M76 70c10 6 24 4 37-4" fill="none" stroke="#0c0909" stroke-width="3" stroke-linecap="round" opacity="0.5"/></g><g id="eyes-v1-gentleArc-avatar-v2-layer-glasses" fill="#30495c" stroke="#30495c" stroke-width="4" stroke-linecap="round"><rect x="60" y="74" width="30" height="24" rx="8"/><rect x="102" y="74" width="30" height="24" rx="8"/><path fill="none" d="M90 86H102"/><path fill="none" d="M60 84L47 89M132 84L145 89"/></g><g id="eyes-v1-gentleArc-avatar-v2-layer-hair-highlights"><path data-hair-highlight="curlyPlayful" data-concept="loose-wavy-curls-fixed" d="M66 54c16-13 34-17 55-10" fill="none" stroke="#352b29" stroke-width="4" stroke-linecap="round" opacity="0.58"/><path data-hair-highlight="curlyPlayful" data-concept="loose-wavy-curls-fixed" d="M121 64c7 4 12 11 14 20" fill="none" stroke="#352b29" stroke-width="3" stroke-linecap="round" opacity="0.42"/></g><g id="eyes-v1-gentleArc-avatar-v2-layer-accessory" data-avatar-mount="hairRight" transform="translate(127 66) rotate(12) scale(0.92)"><path data-accessory-asset="leafPin" d="M-14 2C-5-14 10-16 17-4 10 13-5 17-14 2z" fill="#8fc8ef" stroke="#417895" stroke-width="3"/><path d="M-10 1C-2-1 7-4 14-8" fill="none" stroke="#b6ddf6" stroke-width="3" stroke-linecap="round"/><path d="M-2-1l-3-7M4-3l3 6" fill="none" stroke="#417895" stroke-width="2" stroke-linecap="round" opacity="0.55"/></g></g><g id="eyes-v1-cell-brightWide" transform="translate(684 48)"><text id="eyes-v1-label-brightWide" x="96" y="-16" text-anchor="middle" font-family="Arial, sans-serif" font-size="13" fill="#3d2c30">brightWide</text><g id="eyes-v1-brightWide-avatar-v2-layer-back-hair"><path data-hair-style="longSoft" d="M47 70c-2-29 18-47 49-47 30 0 50 18 49 48 6 31-7 57-31 65-2-17-7-35-18-51-11 16-16 34-18 51-24-8-37-34-31-66z" fill="#2c4aa5" stroke="#1f3472" stroke-width="3"/><path d="M61 74c-2 22 3 42 16 58M132 74c2 22-3 42-17 58" fill="none" stroke="#1f3472" stroke-width="3" stroke-linecap="round" opacity="0.38"/></g><g id="eyes-v1-brightWide-avatar-v2-layer-shirt"><path data-clothing-asset="roundedTee" d="M42 172c8-32 27-49 54-49s46 17 54 49z" fill="#efa0b8" stroke="#9b526b" stroke-width="3"/><path d="M62 150c17-13 48-14 68 0" fill="none" stroke="#fac3d2" stroke-width="7" stroke-linecap="round" opacity="0.5"/></g><g id="eyes-v1-brightWide-avatar-v2-layer-base"><ellipse data-anatomy="ear-left" cx="44" cy="95" rx="8.5" ry="12.5" fill="#84b6d9" stroke="#456b8b" stroke-width="3"/><ellipse data-anatomy="ear-right" cx="148" cy="95" rx="8.5" ry="12.5" fill="#84b6d9" stroke="#456b8b" stroke-width="3"/><path data-anatomy="head-round" d="M96 34c30 0 51 20 51 46 0 29-21 46-51 46s-51-17-51-46c0-26 21-46 51-46z" fill="#84b6d9" stroke="#456b8b" stroke-width="3"/><path d="M64 56c17-17 45-21 64-2" fill="none" stroke="#aed2ed" stroke-width="8" stroke-linecap="round" opacity="0.4"/></g><g id="eyes-v1-brightWide-avatar-v2-layer-eyes" data-eye-style="brightWide"><ellipse cx="77" cy="83" rx="5.7" ry="6" fill="#3d2c30"/><circle cx="79" cy="81" r="1.5" fill="#fff8f2"/><ellipse cx="115" cy="83" rx="5.7" ry="6" fill="#3d2c30"/><circle cx="113" cy="81" r="1.5" fill="#fff8f2"/></g><g id="eyes-v1-brightWide-avatar-v2-layer-mouth" data-mouth-style="determined"><path d="M80 104Q96 107 112 104" fill="none" stroke="#7a4545" stroke-width="4" stroke-linecap="round"/></g><g id="eyes-v1-brightWide-avatar-v2-layer-front-hair"><path data-hair-style="longSoft" d="M50 65c5-24 23-39 49-39 24 0 41 13 47 37-17-6-33-7-49-2-15 5-31 9-47 4z" fill="#3f67d2" stroke="#1f3472" stroke-width="3"/><path d="M95 28c-6 17-19 30-39 38M103 30c15 8 27 19 39 34" fill="none" stroke="#1f3472" stroke-width="3" stroke-linecap="round" opacity="0.45"/></g><g id="eyes-v1-brightWide-avatar-v2-layer-glasses" stroke="#30495c" stroke-width="3" stroke-linejoin="round"><path fill="#587c9b" d="M77 91C65 80 65 68 77 75C89 68 89 80 77 91Z"/><path fill="#587c9b" d="M115 91C103 80 103 68 115 75C127 68 127 80 115 91Z"/><path fill="none" stroke-linecap="round" d="M89 83H103M65 81L52.5 87M127 81L139.5 87"/></g><g id="eyes-v1-brightWide-avatar-v2-layer-hair-highlights"><path data-hair-highlight="longSoft" d="M65 54c17-13 38-17 60-11" fill="none" stroke="#6f90ea" stroke-width="5" stroke-linecap="round" opacity="0.52"/><path data-hair-highlight="longSoft" d="M126 75c3 18-1 35-10 50" fill="none" stroke="#6f90ea" stroke-width="4" stroke-linecap="round" opacity="0.38"/></g><g id="eyes-v1-brightWide-avatar-v2-layer-accessory" data-avatar-mount="hairRight" transform="translate(127 60) rotate(12) scale(0.92)"><path data-accessory-asset="leafPin" d="M-14 2C-5-14 10-16 17-4 10 13-5 17-14 2z" fill="#8fc8ef" stroke="#417895" stroke-width="3"/><path d="M-10 1C-2-1 7-4 14-8" fill="none" stroke="#b6ddf6" stroke-width="3" stroke-linecap="round"/><path d="M-2-1l-3-7M4-3l3 6" fill="none" stroke="#417895" stroke-width="2" stroke-linecap="round" opacity="0.55"/></g></g></svg>