<svg xmlns="http://www.w3.org/2000/svg" viewBox="0 0 192 192" width="192" height="192" role="img" aria-label="HomeOps Avatar V2 sample"><g id="avatar-v2-layer-back-hair"><path data-hair-style="curlyPlayful" d="M46 78c-5-27 17-52 50-53 34 1 56 25 50 54-4 20-20 36-42 39-8 1-16 1-24 0-22-4-32-20-34-40z" fill="#4e344d" stroke="#3f2a3d" stroke-width="3"/><path d="M55 82c5-8 12-12 22-10M116 72c11-2 19 2 23 11M72 104c8 7 39 8 50 0" fill="none" stroke="#3f2a3d" stroke-width="4" stroke-linecap="round" opacity="0.38"/></g><g id="avatar-v2-layer-shirt"><path data-clothing-asset="tShirt" d="M39 173l8-29c6-13 19-20 34-22l15 13 15-13c16 2 28 9 34 22l8 29z" fill="#9edfc0" stroke="#4d846d" stroke-width="3"/><path d="M80 123c5 8 27 8 32 0" fill="none" stroke="#4d846d" stroke-width="3"/><path d="M54 151h84" stroke="#c1edd7" stroke-width="6" stroke-linecap="round" opacity="0.48"/></g><g id="avatar-v2-layer-base"><ellipse cx="96" cy="113" rx="55" ry="41" fill="#73422f" opacity="0.16"/><ellipse data-anatomy="ear-left" cx="38" cy="97" rx="9" ry="12" fill="#9b6547" stroke="#55332b" stroke-width="3"/><ellipse data-anatomy="ear-right" cx="154" cy="97" rx="9" ry="12" fill="#9b6547" stroke="#55332b" stroke-width="3"/><path data-anatomy="head-wide" d="M57 52C75 38 117 38 135 52C150 64 152 97 137 113C119 133 73 133 55 113C40 97 42 64 57 52z" fill="#9b6547" stroke="#55332b" stroke-width="3"/><path d="M58 62c17-17 45-21 64-2" fill="none" stroke="#bd8060" stroke-width="8" stroke-linecap="round" opacity="0.4"/><circle cx="75" cy="86" r="5" fill="#3d2c30"/><circle cx="117" cy="86" r="5" fill="#3d2c30"/><circle cx="77" cy="84" r="1.5" fill="#fff8f2"/><circle cx="115" cy="84" r="1.5" fill="#fff8f2"/><path d="M78 106c10 12 27 12 37-1" fill="none" stroke="#7a4545" stroke-width="4" stroke-linecap="round"/></g><g id="avatar-v2-layer-accessory" data-accessory-asset="headband" data-accessory-layer-rule="behind-front-hair"><path d="M50 65c22-20 62-20 84 0" fill="none" stroke="#9c554c" stroke-width="7" stroke-linecap="round"/><path d="M53 66c21-14 57-14 78 0" fill="none" stroke="#f29a82" stroke-width="4" stroke-linecap="round"/></g><g id="avatar-v2-layer-front-hair"><path data-hair-style="curlyPlayful" d="M49 68c5-12 14-19 27-20 4-11 13-18 25-17 12 1 20 8 24 18 11 1 19 8 23 19-7 6-17 7-29 2-5 8-14 12-24 10-9 0-16-4-21-11-9 5-18 6-25-1z" fill="#6f4a66" stroke="#3f2a3d" stroke-width="3"/><circle data-hair-style="curlyPlayful" cx="70" cy="62" r="13" fill="#6f4a66" stroke="#3f2a3d" stroke-width="3"/><circle data-hair-style="curlyPlayful" cx="96" cy="50" r="16" fill="#6f4a66" stroke="#3f2a3d" stroke-width="3"/><circle data-hair-style="curlyPlayful" cx="122" cy="62" r="13" fill="#6f4a66" stroke="#3f2a3d" stroke-width="3"/><path d="M59 65c5-7 14-9 22-5M83 49c7-7 19-7 27 0M112 60c8-4 17-2 22 5M77 71c7 5 15 6 24 2" fill="none" stroke="#3f2a3d" stroke-width="3" stroke-linecap="round" opacity="0.52"/></g><g id="avatar-v2-layer-hair-highlights"><path data-hair-highlight="curlyPlayful" d="M63 58c5-5 13-7 20-4" fill="none" stroke="#92708a" stroke-width="4" stroke-linecap="round" opacity="0.62"/><path data-hair-highlight="curlyPlayful" d="M88 42c7-5 18-5 26 0" fill="none" stroke="#92708a" stroke-width="4" stroke-linecap="round" opacity="0.62"/><path data-hair-highlight="curlyPlayful" d="M114 57c7-3 14-1 19 5" fill="none" stroke="#92708a" stroke-width="4" stroke-linecap="round" opacity="0.58"/></g></svg>