<svg xmlns="http://www.w3.org/2000/svg" viewBox="0 0 192 192" width="192" height="192" role="img" aria-label="HomeOps Avatar V2 sample"><g id="avatar-v2-layer-back-hair"><path data-hair-style="curlyPlayful" d="M46 78c-5-27 17-52 50-53 34 1 56 25 50 54-4 20-20 36-42 39-8 1-16 1-24 0-22-4-32-20-34-40z" fill="#4e344d" stroke="#3f2a3d" stroke-width="3"/><path d="M55 82c5-8 12-12 22-10M116 72c11-2 19 2 23 11M72 104c8 7 39 8 50 0" fill="none" stroke="#3f2a3d" stroke-width="4" stroke-linecap="round" opacity="0.38"/></g><g id="avatar-v2-layer-shirt"><path data-clothing-asset="roundedTee" d="M42 172c8-32 27-49 54-49s46 17 54 49z" fill="#9edfc0" stroke="#4d846d" stroke-width="3"/><path d="M62 150c17-13 48-14 68 0" fill="none" stroke="#c1edd7" stroke-width="7" stroke-linecap="round" opacity="0.5"/></g><g id="avatar-v2-layer-base"><ellipse cx="96" cy="113" rx="55" ry="41" fill="#b97845" opacity="0.16"/><ellipse data-anatomy="ear-left" cx="44" cy="95" rx="8.5" ry="12.5" fill="#d99f67" stroke="#7f523f" stroke-width="3"/><ellipse data-anatomy="ear-right" cx="148" cy="95" rx="8.5" ry="12.5" fill="#d99f67" stroke="#7f523f" stroke-width="3"/><path data-anatomy="head-round" d="M96 34c30 0 51 20 51 46 0 29-21 46-51 46s-51-17-51-46c0-26 21-46 51-46z" fill="#d99f67" stroke="#7f523f" stroke-width="3"/><path d="M64 56c17-17 45-21 64-2" fill="none" stroke="#efbd87" stroke-width="8" stroke-linecap="round" opacity="0.4"/><circle cx="77" cy="83" r="5" fill="#3d2c30"/><circle cx="115" cy="83" r="5" fill="#3d2c30"/><circle cx="79" cy="81" r="1.5" fill="#fff8f2"/><circle cx="113" cy="81" r="1.5" fill="#fff8f2"/><path d="M78 104c10 12 27 12 37-1" fill="none" stroke="#7a4545" stroke-width="4" stroke-linecap="round"/></g><g id="avatar-v2-layer-front-hair"><path data-hair-style="curlyPlayful" d="M49 68c5-12 14-19 27-20 4-11 13-18 25-17 12 1 20 8 24 18 11 1 19 8 23 19-7 6-17 7-29 2-5 8-14 12-24 10-9 0-16-4-21-11-9 5-18 6-25-1z" fill="#6f4a66" stroke="#3f2a3d" stroke-width="3"/><circle data-hair-style="curlyPlayful" cx="70" cy="62" r="13" fill="#6f4a66" stroke="#3f2a3d" stroke-width="3"/><circle data-hair-style="curlyPlayful" cx="96" cy="50" r="16" fill="#6f4a66" stroke="#3f2a3d" stroke-width="3"/><circle data-hair-style="curlyPlayful" cx="122" cy="62" r="13" fill="#6f4a66" stroke="#3f2a3d" stroke-width="3"/><path d="M59 65c5-7 14-9 22-5M83 49c7-7 19-7 27 0M112 60c8-4 17-2 22 5M77 71c7 5 15 6 24 2" fill="none" stroke="#3f2a3d" stroke-width="3" stroke-linecap="round" opacity="0.52"/></g><g id="avatar-v2-layer-hair-highlights"><path data-hair-highlight="curlyPlayful" d="M63 58c5-5 13-7 20-4" fill="none" stroke="#92708a" stroke-width="4" stroke-linecap="round" opacity="0.62"/><path data-hair-highlight="curlyPlayful" d="M88 42c7-5 18-5 26 0" fill="none" stroke="#92708a" stroke-width="4" stroke-linecap="round" opacity="0.62"/><path data-hair-highlight="curlyPlayful" d="M114 57c7-3 14-1 19 5" fill="none" stroke="#92708a" stroke-width="4" stroke-linecap="round" opacity="0.58"/></g><g id="avatar-v2-layer-accessory" data-avatar-mount="hairRight" transform="translate(127 60) rotate(12) scale(0.92)"><path data-accessory-asset="leafPin" d="M-14 2C-5-14 10-16 17-4 10 13-5 17-14 2z" fill="#f29a82" stroke="#9c554c" stroke-width="3"/><path d="M-10 1C-2-1 7-4 14-8" fill="none" stroke="#ffc2b2" stroke-width="3" stroke-linecap="round"/><path d="M-2-1l-3-7M4-3l3 6" fill="none" stroke="#9c554c" stroke-width="2" stroke-linecap="round" opacity="0.55"/></g></svg>