<svg xmlns="http://www.w3.org/2000/svg" viewBox="0 0 192 192" width="192" height="192" role="img" aria-label="HomeOps Avatar V2 curly hairstyle concept sample"><g id="avatar-v2-layer-back-hair"><path data-concept="tight-curl-clusters" d="M43 78c-2-31 20-54 53-55 34 1 56 24 53 55-2 22-16 41-38 47-10 3-20 3-30 0-22-6-36-25-38-47z" fill="#4e344d" stroke="#3f2a3d" stroke-width="3"/><path d="M53 82c7-9 17-12 28-8M111 74c12-4 23 0 29 10M69 108c14 8 40 8 54-1" fill="none" stroke="#3f2a3d" stroke-width="4" stroke-linecap="round" opacity="0.42"/></g><g id="avatar-v2-layer-shirt"><path d="M43 176c5-30 26-47 53-47s48 17 53 47" fill="#9edfc0" stroke="#4d846d" stroke-width="3"/><path d="M73 143c8 8 15 12 23 12s15-4 23-12" fill="none" stroke="#70be98" stroke-width="7" stroke-linecap="round" opacity="0.55"/></g><g id="avatar-v2-layer-base"><ellipse cx="96" cy="113" rx="55" ry="41" fill="#df9778" opacity="0.16"/><ellipse data-anatomy="ear-left" cx="43" cy="95" rx="8.5" ry="12.5" fill="#f4bf9b" stroke="#9f5f55" stroke-width="3"/><ellipse data-anatomy="ear-right" cx="149" cy="95" rx="8.5" ry="12.5" fill="#f4bf9b" stroke="#9f5f55" stroke-width="3"/><path data-anatomy="head-round" d="M96 34c30 0 51 20 51 46 0 29-21 46-51 46s-51-17-51-46c0-26 21-46 51-46z" fill="#f4bf9b" stroke="#9f5f55" stroke-width="3"/><path d="M64 56c17-17 45-21 64-2" fill="none" stroke="#ffd8bf" stroke-width="8" stroke-linecap="round" opacity="0.4"/><circle cx="77" cy="83" r="5" fill="#3d2c30"/><circle cx="115" cy="83" r="5" fill="#3d2c30"/><circle cx="79" cy="81" r="1.5" fill="#fff8f2"/><circle cx="113" cy="81" r="1.5" fill="#fff8f2"/><path d="M78 104c10 12 27 12 37-1" fill="none" stroke="#7a4545" stroke-width="4" stroke-linecap="round"/></g><g id="avatar-v2-layer-front-hair"><circle data-concept="tight-curl-clusters" cx="58" cy="68" r="13" fill="#6f4a66" stroke="#3f2a3d" stroke-width="3"/><circle data-concept="tight-curl-clusters" cx="73" cy="50" r="15" fill="#6f4a66" stroke="#3f2a3d" stroke-width="3"/><circle data-concept="tight-curl-clusters" cx="96" cy="42" r="17" fill="#6f4a66" stroke="#3f2a3d" stroke-width="3"/><circle data-concept="tight-curl-clusters" cx="119" cy="50" r="15" fill="#6f4a66" stroke="#3f2a3d" stroke-width="3"/><circle data-concept="tight-curl-clusters" cx="134" cy="68" r="13" fill="#6f4a66" stroke="#3f2a3d" stroke-width="3"/><path d="M50 72c10 11 26 10 38-1 7 8 18 10 29 3 10 8 23 8 32-2-3 13-13 20-27 20H70c-13 0-21-7-20-20z" fill="#6f4a66" stroke="#3f2a3d" stroke-width="3"/></g><g id="avatar-v2-layer-hair-highlights"><path d="M53 66c5-6 13-8 20-4M84 45c7-6 18-7 26-2M118 55c8-3 16 0 21 6" fill="none" stroke="#92708a" stroke-width="4" stroke-linecap="round" opacity="0.65"/></g></svg>
