<svg xmlns="http://www.w3.org/2000/svg" viewBox="0 0 192 192" width="192" height="192" role="img" aria-label="HomeOps Avatar V2 curly hairstyle concept sample"><g id="avatar-v2-layer-back-hair"><path data-concept="playful-child-curls" d="M45 76c-4-29 18-51 51-52 33 1 55 23 51 52-3 26-22 43-51 43s-48-17-51-43z" fill="#4e344d" stroke="#3f2a3d" stroke-width="3"/><circle cx="50" cy="86" r="10" fill="#4e344d" stroke="#3f2a3d" stroke-width="3"/><circle cx="142" cy="86" r="10" fill="#4e344d" stroke="#3f2a3d" stroke-width="3"/></g><g id="avatar-v2-layer-shirt"><path d="M43 176c5-30 26-47 53-47s48 17 53 47" fill="#9edfc0" stroke="#4d846d" stroke-width="3"/><path d="M73 143c8 8 15 12 23 12s15-4 23-12" fill="none" stroke="#70be98" stroke-width="7" stroke-linecap="round" opacity="0.55"/></g><g id="avatar-v2-layer-base"><ellipse cx="96" cy="113" rx="55" ry="41" fill="#df9778" opacity="0.16"/><ellipse data-anatomy="ear-left" cx="43" cy="95" rx="8.5" ry="12.5" fill="#f4bf9b" stroke="#9f5f55" stroke-width="3"/><ellipse data-anatomy="ear-right" cx="149" cy="95" rx="8.5" ry="12.5" fill="#f4bf9b" stroke="#9f5f55" stroke-width="3"/><path data-anatomy="head-round" d="M96 34c30 0 51 20 51 46 0 29-21 46-51 46s-51-17-51-46c0-26 21-46 51-46z" fill="#f4bf9b" stroke="#9f5f55" stroke-width="3"/><path d="M64 56c17-17 45-21 64-2" fill="none" stroke="#ffd8bf" stroke-width="8" stroke-linecap="round" opacity="0.4"/><circle cx="77" cy="83" r="5" fill="#3d2c30"/><circle cx="115" cy="83" r="5" fill="#3d2c30"/><circle cx="79" cy="81" r="1.5" fill="#fff8f2"/><circle cx="113" cy="81" r="1.5" fill="#fff8f2"/><path d="M78 104c10 12 27 12 37-1" fill="none" stroke="#7a4545" stroke-width="4" stroke-linecap="round"/></g><g id="avatar-v2-layer-front-hair"><path data-concept="playful-child-curls" d="M49 68c6-15 19-24 36-25 5-11 17-17 31-13 14 4 23 15 25 31-7-5-17-7-28-3-9 3-17 9-23 18-9-9-20-12-33-7-3 2-6 1-8-1z" fill="#6f4a66" stroke="#3f2a3d" stroke-width="3"/><circle cx="66" cy="61" r="12" fill="#6f4a66" stroke="#3f2a3d" stroke-width="3"/><circle cx="89" cy="48" r="14" fill="#6f4a66" stroke="#3f2a3d" stroke-width="3"/><circle cx="117" cy="55" r="16" fill="#6f4a66" stroke="#3f2a3d" stroke-width="3"/><path d="M60 73c7-5 16-5 25 0M93 70c9-11 20-16 33-15M123 62c8 3 13 8 16 15" fill="none" stroke="#3f2a3d" stroke-width="3" stroke-linecap="round" opacity="0.52"/></g><g id="avatar-v2-layer-hair-highlights"><path d="M60 58c5-5 13-7 20-4M96 44c9-3 19 0 25 7M82 72c8 4 17 4 26-1" fill="none" stroke="#92708a" stroke-width="4" stroke-linecap="round" opacity="0.62"/></g></svg>
