<svg xmlns="http://www.w3.org/2000/svg" viewBox="0 0 192 192" width="192" height="192" role="img" aria-label="HomeOps Avatar V2 sample"><g id="avatar-v2-layer-back-hair"><path d="M49 76c-4-28 15-49 47-50 32 0 52 21 48 51-9-10-19-14-31-12-16 3-31 6-48-2-7 3-12 7-16 13z" fill="#7d3f24" stroke="#5f321f" stroke-width="3"/></g><g id="avatar-v2-layer-shirt"><path d="M41 173c7-33 27-51 55-51s48 18 55 51z" fill="#9edfc0" stroke="#4d846d" stroke-width="3"/><path d="M63 139c10-17 23-24 33-24s23 7 33 24c-12 11-54 11-66 0z" fill="#70be98" stroke="#4d846d" stroke-width="3"/><path d="M78 130c8 9 27 11 36 0" fill="none" stroke="#c1edd7" stroke-width="5" stroke-linecap="round" opacity="0.65"/><path d="M88 137l-4 21M104 137l4 21" stroke="#4d846d" stroke-width="3" stroke-linecap="round"/><circle cx="84" cy="160" r="2.5" fill="#4d846d"/><circle cx="108" cy="160" r="2.5" fill="#4d846d"/><path d="M55 164c16-7 66-7 82 0" fill="none" stroke="#c1edd7" stroke-width="5" stroke-linecap="round" opacity="0.5"/></g><g id="avatar-v2-layer-base"><ellipse cx="96" cy="113" rx="55" ry="41" fill="#df9778" opacity="0.16"/><ellipse data-anatomy="ear-left" cx="49" cy="95" rx="8.5" ry="12.5" fill="#f4bf9b" stroke="#9f5f55" stroke-width="3"/><ellipse data-anatomy="ear-right" cx="143" cy="95" rx="8.5" ry="12.5" fill="#f4bf9b" stroke="#9f5f55" stroke-width="3"/><path data-anatomy="head-round" d="M96 34c30 0 51 20 51 46 0 29-21 46-51 46s-51-17-51-46c0-26 21-46 51-46z" fill="#f4bf9b" stroke="#9f5f55" stroke-width="3"/><path d="M64 56c17-17 45-21 64-2" fill="none" stroke="#ffd8bf" stroke-width="8" stroke-linecap="round" opacity="0.4"/><circle cx="77" cy="83" r="5" fill="#3d2c30"/><circle cx="115" cy="82" r="5" fill="#3d2c30"/><circle cx="79" cy="81" r="1.5" fill="#fff8f2"/><circle cx="117" cy="80" r="1.5" fill="#fff8f2"/><path d="M78 104c10 12 27 12 37-1" fill="none" stroke="#7a4545" stroke-width="4" stroke-linecap="round"/></g><g id="avatar-v2-layer-front-hair"><path d="M50 65c11-25 31-34 57-31 20 2 34 11 40 27-15-5-29-5-43-1l-11 18-8-15c-11 9-22 12-35 2z" fill="#a75f34" stroke="#5f321f" stroke-width="3"/><path d="M68 38c-9 9-14 17-16 28M122 39c13 8 20 16 24 25" fill="none" stroke="#5f321f" stroke-width="3" stroke-linecap="round" opacity="0.45"/></g><g id="avatar-v2-layer-hair-highlights"><path d="M70 44c18-10 39-10 55 1" fill="none" stroke="#c98250" stroke-width="5" stroke-linecap="round" opacity="0.55"/><path d="M88 61c10-7 22-9 34-6" fill="none" stroke="#c98250" stroke-width="4" stroke-linecap="round" opacity="0.35"/></g><g id="avatar-v2-layer-accessory" transform="translate(96 151) scale(1)"><path d="M0-13l4 8 9 1-7 6 2 9-8-4-8 4 2-9-7-6 9-1z" fill="#f29a82" stroke="#9c554c" stroke-width="3"/><path d="M-3-5l3-4 3 4" fill="none" stroke="#ffc2b2" stroke-width="3" stroke-linecap="round" opacity="0.7"/></g></svg>