<svg xmlns="http://www.w3.org/2000/svg" viewBox="0 0 192 192" width="192" height="192" role="img" aria-label="HomeOps Avatar V2 sample"><g id="avatar-v2-layer-shirt"><path d="M42 172c8-32 27-49 54-49s46 17 54 49z" fill="#8fc8ef" stroke="#417895" stroke-width="3"/><path d="M62 150c17-13 48-14 68 0" fill="none" stroke="#b6ddf6" stroke-width="7" stroke-linecap="round" opacity="0.5"/><path d="M78 137l18 18 18-18" fill="#fff6ed" stroke="#417895" stroke-width="3"/></g><g id="avatar-v2-layer-base"><ellipse cx="96" cy="113" rx="55" ry="41" fill="#b97845" opacity="0.16"/><ellipse data-anatomy="ear-left" cx="49" cy="95" rx="8.5" ry="12.5" fill="#d99f67" stroke="#7f523f" stroke-width="3"/><ellipse data-anatomy="ear-right" cx="143" cy="95" rx="8.5" ry="12.5" fill="#d99f67" stroke="#7f523f" stroke-width="3"/><path data-anatomy="head-round" d="M96 34c30 0 51 20 51 46 0 29-21 46-51 46s-51-17-51-46c0-26 21-46 51-46z" fill="#d99f67" stroke="#7f523f" stroke-width="3"/><path d="M64 56c17-17 45-21 64-2" fill="none" stroke="#efbd87" stroke-width="8" stroke-linecap="round" opacity="0.4"/><circle cx="77" cy="83" r="5" fill="#3d2c30"/><circle cx="115" cy="82" r="5" fill="#3d2c30"/><circle cx="79" cy="81" r="1.5" fill="#fff8f2"/><circle cx="117" cy="80" r="1.5" fill="#fff8f2"/><path d="M78 104c10 12 27 12 37-1" fill="none" stroke="#7a4545" stroke-width="4" stroke-linecap="round"/></g><g id="avatar-v2-layer-front-hair"><path d="M50 65c5-25 24-38 48-38s42 12 48 36c-15-5-32-4-48 1-17 5-32 4-48 1z" fill="#68402f" stroke="#35211d" stroke-width="3"/></g><g id="avatar-v2-layer-glasses" fill="none" stroke="#30495c" stroke-width="4" stroke-linecap="round"><rect x="62" y="71" width="29" height="24" rx="13"/><rect x="100" y="70" width="31" height="24" rx="13"/><path d="M91 82h11"/><path d="M62 81l-10-4M131 80l10-5"/></g><g id="avatar-v2-layer-hair-highlights"><path d="M69 42c16-9 38-10 54 0" fill="none" stroke="#8a5d47" stroke-width="6" stroke-linecap="round" opacity="0.45"/></g></svg>