<svg xmlns="http://www.w3.org/2000/svg" viewBox="0 0 192 192" width="192" height="192" role="img" aria-label="HomeOps Avatar V2 sample"><g id="avatar-v2-layer-shirt"><path d="M42 172c8-32 27-49 54-49s46 17 54 49z" fill="#efa0b8" stroke="#9b526b" stroke-width="3"/><path d="M62 150c17-13 48-14 68 0" fill="none" stroke="#fac3d2" stroke-width="7" stroke-linecap="round" opacity="0.5"/></g><g id="avatar-v2-layer-base"><ellipse cx="96" cy="113" rx="55" ry="41" fill="#73422f" opacity="0.16"/><ellipse data-anatomy="ear-left" cx="56" cy="94" rx="8" ry="13.5" fill="#9b6547" stroke="#55332b" stroke-width="3"/><ellipse data-anatomy="ear-right" cx="136" cy="94" rx="8" ry="13.5" fill="#9b6547" stroke="#55332b" stroke-width="3"/><path data-anatomy="head-oval" d="M96 27c27 0 44 22 44 53 0 34-18 53-44 53s-44-19-44-53c0-31 17-53 44-53z" fill="#9b6547" stroke="#55332b" stroke-width="3"/><path d="M71 49c17-17 45-21 64-2" fill="none" stroke="#bd8060" stroke-width="8" stroke-linecap="round" opacity="0.4"/><circle cx="79" cy="82" r="5" fill="#3d2c30"/><circle cx="113" cy="81" r="5" fill="#3d2c30"/><circle cx="81" cy="80" r="1.5" fill="#fff8f2"/><circle cx="115" cy="79" r="1.5" fill="#fff8f2"/><path d="M78 106c10 12 27 12 37-1" fill="none" stroke="#7a4545" stroke-width="4" stroke-linecap="round"/></g><g id="avatar-v2-layer-front-hair"><path d="M49 68c3-29 22-43 50-42 27 2 44 18 47 48-16-10-31-12-47-10-20 3-35 1-50 4z" fill="#6f4a66" stroke="#3f2a3d" stroke-width="3"/><path d="M135 63c8 20 3 43-14 54" fill="#6f4a66" stroke="#3f2a3d" stroke-width="3"/></g><g id="avatar-v2-layer-glasses" fill="none" stroke="#4b2f3f" stroke-width="4" stroke-linecap="round"><rect x="64" y="70" width="29" height="24" rx="8"/><rect x="98" y="69" width="31" height="24" rx="8"/><path d="M93 81h11"/><path d="M64 80l-10-4M129 79l10-5"/></g><g id="avatar-v2-layer-hair-highlights"><path d="M69 42c16-9 38-10 54 0" fill="none" stroke="#92708a" stroke-width="6" stroke-linecap="round" opacity="0.45"/></g><g id="avatar-v2-layer-accessory"><path d="M131 44c16 2 23 14 15 28-16-2-22-16-15-28z" fill="#c5a7ef" stroke="#725a9f" stroke-width="3"/><path d="M130 48c4 3 7 6 9 11" stroke="#decdf7" stroke-width="4" stroke-linecap="round" opacity="0.65"/></g></svg>