<svg xmlns="http://www.w3.org/2000/svg" viewBox="0 0 192 192" width="192" height="192" role="img" aria-label="HomeOps Avatar V2 sample"><g id="avatar-v2-layer-back-hair"><path data-hair-style="longSoft" d="M47 67c1-27 20-43 49-43s48 17 50 45c4 33-8 58-30 66-4-18-7-35-20-51-12 16-16 33-20 51-22-8-33-34-29-68z" fill="#7d3f24" stroke="#5f321f" stroke-width="3"/></g><g id="avatar-v2-layer-shirt"><path d="M41 173c7-33 27-51 55-51s48 18 55 51z" fill="#efa0b8" stroke="#9b526b" stroke-width="3"/><path d="M63 139c10-17 23-24 33-24s23 7 33 24c-12 11-54 11-66 0z" fill="#d67595" stroke="#9b526b" stroke-width="3"/><path d="M78 130c8 9 27 11 36 0" fill="none" stroke="#fac3d2" stroke-width="5" stroke-linecap="round" opacity="0.65"/><path d="M88 137l-4 21M104 137l4 21" stroke="#9b526b" stroke-width="3" stroke-linecap="round"/><circle cx="84" cy="160" r="2.5" fill="#9b526b"/><circle cx="108" cy="160" r="2.5" fill="#9b526b"/><path d="M55 164c16-7 66-7 82 0" fill="none" stroke="#fac3d2" stroke-width="5" stroke-linecap="round" opacity="0.5"/></g><g id="avatar-v2-layer-base"><ellipse cx="96" cy="113" rx="55" ry="41" fill="#b97845" opacity="0.16"/><ellipse data-anatomy="ear-left" cx="51" cy="94" rx="8" ry="13.5" fill="#d99f67" stroke="#7f523f" stroke-width="3"/><ellipse data-anatomy="ear-right" cx="141" cy="94" rx="8" ry="13.5" fill="#d99f67" stroke="#7f523f" stroke-width="3"/><path data-anatomy="head-oval" d="M96 27c27 0 44 22 44 53 0 34-18 53-44 53s-44-19-44-53c0-31 17-53 44-53z" fill="#d99f67" stroke="#7f523f" stroke-width="3"/><path d="M71 49c17-17 45-21 64-2" fill="none" stroke="#efbd87" stroke-width="8" stroke-linecap="round" opacity="0.4"/><circle cx="79" cy="82" r="5" fill="#3d2c30"/><circle cx="113" cy="81" r="5" fill="#3d2c30"/><circle cx="81" cy="80" r="1.5" fill="#fff8f2"/><circle cx="115" cy="79" r="1.5" fill="#fff8f2"/><path d="M78 106c10 12 27 12 37-1" fill="none" stroke="#7a4545" stroke-width="4" stroke-linecap="round"/></g><g id="avatar-v2-layer-front-hair"><path d="M50 62c6-24 24-37 51-36 23 1 39 14 44 38-18-10-35-13-51-7-16 6-29 8-44 5z" fill="#a75f34" stroke="#5f321f" stroke-width="3"/><path d="M95 28c-4 18-18 31-40 39M103 31c17 8 29 20 39 35" fill="none" stroke="#5f321f" stroke-width="3" stroke-linecap="round" opacity="0.45"/></g><g id="avatar-v2-layer-hair-highlights"><path d="M66 51c18-13 38-17 60-10" fill="none" stroke="#c98250" stroke-width="5" stroke-linecap="round" opacity="0.5"/><path d="M131 77c3 18 0 34-9 47" fill="none" stroke="#c98250" stroke-width="4" stroke-linecap="round" opacity="0.35"/></g></svg>
