<svg xmlns="http://www.w3.org/2000/svg" viewBox="0 0 192 192" width="192" height="192" role="img" aria-label="HomeOps Avatar V2 sample"><g id="avatar-v2-layer-back-hair"><path data-hair-style="shortMessy" d="M48 72c-2-25 16-43 47-45 32-2 52 16 51 43-11-7-23-8-36-5-18 4-35 3-51-5-5 3-9 7-11 12z" fill="#43271f" stroke="#35211d" stroke-width="3"/></g><g id="avatar-v2-layer-shirt"><path data-clothing-asset="hoodie" d="M41 173c7-33 27-51 55-51s48 18 55 51z" fill="#8fc8ef" stroke="#417895" stroke-width="3"/><path d="M63 139c10-17 23-24 33-24s23 7 33 24c-12 11-54 11-66 0z" fill="#67a8d8" stroke="#417895" stroke-width="3"/><path d="M78 130c8 9 27 11 36 0" fill="none" stroke="#b6ddf6" stroke-width="5" stroke-linecap="round" opacity="0.65"/><path d="M88 137l-4 21M104 137l4 21" stroke="#417895" stroke-width="3" stroke-linecap="round"/><circle cx="84" cy="160" r="2.5" fill="#417895"/><circle cx="108" cy="160" r="2.5" fill="#417895"/></g><g id="avatar-v2-layer-base"><ellipse cx="96" cy="113" rx="55" ry="41" fill="#df9778" opacity="0.16"/><ellipse data-anatomy="ear-left" cx="44" cy="95" rx="8.5" ry="12.5" fill="#f4bf9b" stroke="#9f5f55" stroke-width="3"/><ellipse data-anatomy="ear-right" cx="148" cy="95" rx="8.5" ry="12.5" fill="#f4bf9b" stroke="#9f5f55" stroke-width="3"/><path data-anatomy="head-round" d="M96 34c30 0 51 20 51 46 0 29-21 46-51 46s-51-17-51-46c0-26 21-46 51-46z" fill="#f4bf9b" stroke="#9f5f55" stroke-width="3"/><path d="M64 56c17-17 45-21 64-2" fill="none" stroke="#ffd8bf" stroke-width="8" stroke-linecap="round" opacity="0.4"/><circle cx="77" cy="83" r="5" fill="#3d2c30"/><circle cx="115" cy="83" r="5" fill="#3d2c30"/><circle cx="79" cy="81" r="1.5" fill="#fff8f2"/><circle cx="113" cy="81" r="1.5" fill="#fff8f2"/><path d="M78 104c10 12 27 12 37-1" fill="none" stroke="#7a4545" stroke-width="4" stroke-linecap="round"/></g><g id="avatar-v2-layer-front-hair"><path d="M49 64c8-22 25-34 50-35 14 0 27 3 38 12l12 16c-12-4-23-3-34 3l-10 14-8-16-15 18-5-16c-10 8-19 10-28 4z" fill="#68402f" stroke="#35211d" stroke-width="3"/><path d="M64 43l-10 20M86 35l-7 26M119 37l17 23" fill="none" stroke="#35211d" stroke-width="3" stroke-linecap="round" opacity="0.5"/></g><g id="avatar-v2-layer-hair-highlights"><path d="M70 42c15-7 34-8 50-2" fill="none" stroke="#8a5d47" stroke-width="5" stroke-linecap="round" opacity="0.55"/><path d="M86 55l-8 10" fill="none" stroke="#8a5d47" stroke-width="4" stroke-linecap="round" opacity="0.4"/></g><g id="avatar-v2-layer-accessory" data-avatar-mount="hairRight" transform="translate(127 60) rotate(12) scale(0.92)"><path data-accessory-asset="star" d="M0-14l5 9 10 1-7 7 2 10-10-5-10 5 2-10-7-7 10-1z" fill="#f29a82" stroke="#9c554c" stroke-width="3"/><path d="M-3-4l3-4 3 4" fill="none" stroke="#ffc2b2" stroke-width="3" stroke-linecap="round" opacity="0.7"/></g></svg>