<svg xmlns="http://www.w3.org/2000/svg" viewBox="0 0 192 192" width="192" height="192" role="img" aria-label="HomeOps Avatar V2 sample"><g id="avatar-v2-layer-back-hair"><path data-hair-style="shortMessy" d="M48 72c-2-25 16-43 47-45 32-2 52 16 51 43-11-7-23-8-36-5-18 4-35 3-51-5-5 3-9 7-11 12z" fill="#7d3f24" stroke="#5f321f" stroke-width="3"/></g><g id="avatar-v2-layer-shirt"><path d="M41 173c7-33 27-51 55-51s48 18 55 51z" fill="#f2cd70" stroke="#98733b" stroke-width="3"/><path d="M63 139c10-17 23-24 33-24s23 7 33 24c-12 11-54 11-66 0z" fill="#d6a83f" stroke="#98733b" stroke-width="3"/><path d="M78 130c8 9 27 11 36 0" fill="none" stroke="#f8df9b" stroke-width="5" stroke-linecap="round" opacity="0.65"/><path d="M88 137l-4 21M104 137l4 21" stroke="#98733b" stroke-width="3" stroke-linecap="round"/><circle cx="84" cy="160" r="2.5" fill="#98733b"/><circle cx="108" cy="160" r="2.5" fill="#98733b"/><path d="M55 164c16-7 66-7 82 0" fill="none" stroke="#f8df9b" stroke-width="5" stroke-linecap="round" opacity="0.5"/></g><g id="avatar-v2-layer-base"><ellipse cx="96" cy="113" rx="55" ry="41" fill="#b97845" opacity="0.16"/><ellipse data-anatomy="ear-left" cx="38" cy="97" rx="9" ry="12" fill="#d99f67" stroke="#7f523f" stroke-width="3"/><ellipse data-anatomy="ear-right" cx="154" cy="97" rx="9" ry="12" fill="#d99f67" stroke="#7f523f" stroke-width="3"/><path data-anatomy="head-wide" d="M57 52C75 38 117 38 135 52C150 64 152 97 137 113C119 133 73 133 55 113C40 97 42 64 57 52z" fill="#d99f67" stroke="#7f523f" stroke-width="3"/><path d="M58 62c17-17 45-21 64-2" fill="none" stroke="#efbd87" stroke-width="8" stroke-linecap="round" opacity="0.4"/><circle cx="75" cy="86" r="5" fill="#3d2c30"/><circle cx="117" cy="86" r="5" fill="#3d2c30"/><circle cx="77" cy="84" r="1.5" fill="#fff8f2"/><circle cx="115" cy="84" r="1.5" fill="#fff8f2"/><path d="M78 106c10 12 27 12 37-1" fill="none" stroke="#7a4545" stroke-width="4" stroke-linecap="round"/></g><g id="avatar-v2-layer-front-hair"><path d="M49 64c8-22 25-34 50-35 14 0 27 3 38 12l12 16c-12-4-23-3-34 3l-10 14-8-16-15 18-5-16c-10 8-19 10-28 4z" fill="#a75f34" stroke="#5f321f" stroke-width="3"/><path d="M64 43l-10 20M86 35l-7 26M119 37l17 23" fill="none" stroke="#5f321f" stroke-width="3" stroke-linecap="round" opacity="0.5"/></g><g id="avatar-v2-layer-glasses" fill="none" stroke="#4b2f3f" stroke-width="4" stroke-linecap="round"><rect x="60" y="74" width="30" height="24" rx="8"/><rect x="102" y="74" width="30" height="24" rx="8"/><path d="M90 86H102"/><path d="M60 84L47 89M132 84L145 89"/></g><g id="avatar-v2-layer-hair-highlights"><path d="M70 42c15-7 34-8 50-2" fill="none" stroke="#c98250" stroke-width="5" stroke-linecap="round" opacity="0.55"/><path d="M86 55l-8 10" fill="none" stroke="#c98250" stroke-width="4" stroke-linecap="round" opacity="0.4"/></g><g id="avatar-v2-layer-accessory" transform="translate(96 151) scale(1)"><path d="M0-13l4 8 9 1-7 6 2 9-8-4-8 4 2-9-7-6 9-1z" fill="#f29a82" stroke="#9c554c" stroke-width="3"/><path d="M-3-5l3-4 3 4" fill="none" stroke="#ffc2b2" stroke-width="3" stroke-linecap="round" opacity="0.7"/></g></svg>