<svg xmlns="http://www.w3.org/2000/svg" viewBox="0 0 192 192" width="192" height="192" role="img" aria-label="HomeOps Avatar V2 sample"><g id="avatar-v2-layer-back-hair"><path data-hair-style="curlyPlayful" d="M45 70c-1-25 20-45 51-46 32 0 54 20 52 47-5 23-24 37-52 36-29 0-48-14-51-37z" fill="#4e344d" stroke="#3f2a3d" stroke-width="3"/><circle cx="50" cy="75" r="12" fill="#4e344d" stroke="#3f2a3d" stroke-width="3"/><circle cx="143" cy="72" r="13" fill="#4e344d" stroke="#3f2a3d" stroke-width="3"/></g><g id="avatar-v2-layer-shirt"><path d="M41 173c7-33 27-51 55-51s48 18 55 51z" fill="#9edfc0" stroke="#4d846d" stroke-width="3"/><path d="M63 139c10-17 23-24 33-24s23 7 33 24c-12 11-54 11-66 0z" fill="#70be98" stroke="#4d846d" stroke-width="3"/><path d="M78 130c8 9 27 11 36 0" fill="none" stroke="#c1edd7" stroke-width="5" stroke-linecap="round" opacity="0.65"/><path d="M88 137l-4 21M104 137l4 21" stroke="#4d846d" stroke-width="3" stroke-linecap="round"/><circle cx="84" cy="160" r="2.5" fill="#4d846d"/><circle cx="108" cy="160" r="2.5" fill="#4d846d"/><path d="M55 164c16-7 66-7 82 0" fill="none" stroke="#c1edd7" stroke-width="5" stroke-linecap="round" opacity="0.5"/></g><g id="avatar-v2-layer-base"><ellipse cx="96" cy="113" rx="55" ry="41" fill="#73422f" opacity="0.16"/><ellipse data-anatomy="ear-left" cx="47" cy="98" rx="9" ry="12" fill="#9b6547" stroke="#55332b" stroke-width="3"/><ellipse data-anatomy="ear-right" cx="145" cy="98" rx="9" ry="12" fill="#9b6547" stroke="#55332b" stroke-width="3"/><path data-anatomy="head-wide" d="M59 52c18-14 63-14 81 0 15 12 17 45 2 61-18 20-65 20-83 0-15-16-13-49 0-61z" fill="#9b6547" stroke="#55332b" stroke-width="3"/><path d="M58 62c17-17 45-21 64-2" fill="none" stroke="#bd8060" stroke-width="8" stroke-linecap="round" opacity="0.4"/><circle cx="73" cy="85" r="5" fill="#3d2c30"/><circle cx="119" cy="84" r="5" fill="#3d2c30"/><circle cx="75" cy="83" r="1.5" fill="#fff8f2"/><circle cx="121" cy="82" r="1.5" fill="#fff8f2"/><path d="M78 106c10 12 27 12 37-1" fill="none" stroke="#7a4545" stroke-width="4" stroke-linecap="round"/></g><g id="avatar-v2-layer-front-hair"><circle data-hair-style="curlyPlayful" cx="62" cy="57" r="15" fill="#6f4a66" stroke="#3f2a3d" stroke-width="3"/><circle cx="82" cy="42" r="16" fill="#6f4a66" stroke="#3f2a3d" stroke-width="3"/><circle cx="105" cy="41" r="17" fill="#6f4a66" stroke="#3f2a3d" stroke-width="3"/><circle cx="128" cy="56" r="16" fill="#6f4a66" stroke="#3f2a3d" stroke-width="3"/><path d="M49 66c17 7 32 5 47-7 16 12 32 14 49 6-10 10-24 14-41 10l-8 12-8-12c-17 4-30 1-39-9z" fill="#6f4a66" stroke="#3f2a3d" stroke-width="3"/></g><g id="avatar-v2-layer-hair-highlights"><path d="M73 44c5-5 12-7 19-4M111 42c8 1 14 5 18 11M58 63c5-4 10-6 16-5" fill="none" stroke="#92708a" stroke-width="4" stroke-linecap="round" opacity="0.55"/></g></svg>