<svg xmlns="http://www.w3.org/2000/svg" viewBox="0 0 192 192" width="192" height="192" role="img" aria-label="HomeOps Avatar V2 sample"><g id="avatar-v2-layer-back-hair"><path data-hair-style="curlyPlayful" d="M45 70c-1-25 20-45 51-46 32 0 54 20 52 47-5 23-24 37-52 36-29 0-48-14-51-37z" fill="#4e344d" stroke="#3f2a3d" stroke-width="3"/><circle cx="50" cy="75" r="12" fill="#4e344d" stroke="#3f2a3d" stroke-width="3"/><circle cx="143" cy="72" r="13" fill="#4e344d" stroke="#3f2a3d" stroke-width="3"/></g><g id="avatar-v2-layer-shirt"><path data-clothing-asset="tShirt" d="M39 173l8-29c6-13 19-20 34-22l15 13 15-13c16 2 28 9 34 22l8 29z" fill="#9edfc0" stroke="#4d846d" stroke-width="3"/><path d="M80 123c5 8 27 8 32 0" fill="none" stroke="#4d846d" stroke-width="3"/><path d="M54 151h84" stroke="#c1edd7" stroke-width="6" stroke-linecap="round" opacity="0.48"/></g><g id="avatar-v2-layer-base"><ellipse cx="96" cy="113" rx="55" ry="41" fill="#73422f" opacity="0.16"/><ellipse data-anatomy="ear-left" cx="38" cy="97" rx="9" ry="12" fill="#9b6547" stroke="#55332b" stroke-width="3"/><ellipse data-anatomy="ear-right" cx="154" cy="97" rx="9" ry="12" fill="#9b6547" stroke="#55332b" stroke-width="3"/><path data-anatomy="head-wide" d="M57 52C75 38 117 38 135 52C150 64 152 97 137 113C119 133 73 133 55 113C40 97 42 64 57 52z" fill="#9b6547" stroke="#55332b" stroke-width="3"/><path d="M58 62c17-17 45-21 64-2" fill="none" stroke="#bd8060" stroke-width="8" stroke-linecap="round" opacity="0.4"/><circle cx="75" cy="86" r="5" fill="#3d2c30"/><circle cx="117" cy="86" r="5" fill="#3d2c30"/><circle cx="77" cy="84" r="1.5" fill="#fff8f2"/><circle cx="115" cy="84" r="1.5" fill="#fff8f2"/><path d="M78 106c10 12 27 12 37-1" fill="none" stroke="#7a4545" stroke-width="4" stroke-linecap="round"/></g><g id="avatar-v2-layer-front-hair"><circle data-hair-style="curlyPlayful" cx="62" cy="57" r="15" fill="#6f4a66" stroke="#3f2a3d" stroke-width="3"/><circle cx="82" cy="42" r="16" fill="#6f4a66" stroke="#3f2a3d" stroke-width="3"/><circle cx="105" cy="41" r="17" fill="#6f4a66" stroke="#3f2a3d" stroke-width="3"/><circle cx="128" cy="56" r="16" fill="#6f4a66" stroke="#3f2a3d" stroke-width="3"/><path d="M49 66c17 7 32 5 47-7 16 12 32 14 49 6-10 10-24 14-41 10l-8 12-8-12c-17 4-30 1-39-9z" fill="#6f4a66" stroke="#3f2a3d" stroke-width="3"/></g><g id="avatar-v2-layer-hair-highlights"><path d="M73 44c5-5 12-7 19-4M111 42c8 1 14 5 18 11M58 63c5-4 10-6 16-5" fill="none" stroke="#92708a" stroke-width="4" stroke-linecap="round" opacity="0.55"/></g><g id="avatar-v2-layer-accessory" data-accessory-asset="headband"><path d="M50 68c22-22 62-22 84 0" fill="none" stroke="#9c554c" stroke-width="8" stroke-linecap="round"/><path d="M53 69c21-16 57-16 78 0" fill="none" stroke="#f29a82" stroke-width="4" stroke-linecap="round"/></g></svg>