<svg xmlns="http://www.w3.org/2000/svg" viewBox="0 0 192 192" width="192" height="192" role="img" aria-label="HomeOps Avatar V2 sample"><g id="avatar-v2-layer-back-hair"><path data-hair-style="shortMessy" d="M47 73c-1-26 18-44 49-45 31 0 51 17 50 43-10-6-22-8-35-5-18 4-35 2-50-6-6 3-11 8-14 13z" fill="#43271f" stroke="#35211d" stroke-width="3"/></g><g id="avatar-v2-layer-shirt"><path data-clothing-asset="hoodie" d="M41 173c7-33 27-51 55-51s48 18 55 51z" fill="#8fc8ef" stroke="#417895" stroke-width="3"/><path d="M63 139c10-17 23-24 33-24s23 7 33 24c-12 11-54 11-66 0z" fill="#67a8d8" stroke="#417895" stroke-width="3"/><path d="M78 130c8 9 27 11 36 0" fill="none" stroke="#b6ddf6" stroke-width="5" stroke-linecap="round" opacity="0.65"/><path d="M88 137l-4 21M104 137l4 21" stroke="#417895" stroke-width="3" stroke-linecap="round"/><circle cx="84" cy="160" r="2.5" fill="#417895"/><circle cx="108" cy="160" r="2.5" fill="#417895"/></g><g id="avatar-v2-layer-base"><ellipse cx="96" cy="113" rx="55" ry="41" fill="#df9778" opacity="0.16"/><ellipse data-anatomy="ear-left" cx="44" cy="95" rx="8.5" ry="12.5" fill="#f4bf9b" stroke="#9f5f55" stroke-width="3"/><ellipse data-anatomy="ear-right" cx="148" cy="95" rx="8.5" ry="12.5" fill="#f4bf9b" stroke="#9f5f55" stroke-width="3"/><path data-anatomy="head-round" d="M96 34c30 0 51 20 51 46 0 29-21 46-51 46s-51-17-51-46c0-26 21-46 51-46z" fill="#f4bf9b" stroke="#9f5f55" stroke-width="3"/><path d="M64 56c17-17 45-21 64-2" fill="none" stroke="#ffd8bf" stroke-width="8" stroke-linecap="round" opacity="0.4"/><circle cx="77" cy="83" r="5" fill="#3d2c30"/><circle cx="115" cy="83" r="5" fill="#3d2c30"/><circle cx="79" cy="81" r="1.5" fill="#fff8f2"/><circle cx="113" cy="81" r="1.5" fill="#fff8f2"/><path d="M78 104c10 12 27 12 37-1" fill="none" stroke="#7a4545" stroke-width="4" stroke-linecap="round"/></g><g id="avatar-v2-layer-front-hair"><path data-hair-style="shortMessy" d="M49 66c7-22 25-36 49-37 18-1 34 5 45 17 4 4 6 9 7 15-11-4-22-3-33 3l-9 13-10-17-15 19-6-17c-10 8-20 9-28 4z" fill="#68402f" stroke="#35211d" stroke-width="3"/><path d="M62 47c8-8 19-13 32-15M88 35c-5 8-8 17-9 27M116 36c10 5 17 13 22 24" fill="none" stroke="#35211d" stroke-width="3" stroke-linecap="round" opacity="0.46"/></g><g id="avatar-v2-layer-hair-highlights"><path data-hair-highlight="shortMessy" d="M68 45c14-8 33-10 50-4" fill="none" stroke="#8a5d47" stroke-width="5" stroke-linecap="round" opacity="0.58"/><path data-hair-highlight="shortMessy" d="M90 56c-4 5-7 10-11 15" fill="none" stroke="#8a5d47" stroke-width="4" stroke-linecap="round" opacity="0.42"/></g><g id="avatar-v2-layer-accessory" data-avatar-mount="hairRight" transform="translate(127 60) rotate(12) scale(0.92)"><path data-accessory-asset="star" d="M0-14l5 9 10 1-7 7 2 10-10-5-10 5 2-10-7-7 10-1z" fill="#f29a82" stroke="#9c554c" stroke-width="3"/><path d="M-3-4l3-4 3 4" fill="none" stroke="#ffc2b2" stroke-width="3" stroke-linecap="round" opacity="0.7"/></g></svg>