<svg xmlns="http://www.w3.org/2000/svg" viewBox="0 0 192 192" width="192" height="192" role="img" aria-label="HomeOps Avatar V2 sample"><g id="avatar-v2-layer-back-hair"><path data-hair-style="curlyPlayful" d="M45 72c-2-26 20-47 51-48 32 0 54 20 52 48-3 20-20 34-45 36-4 0-10 0-14 0-26-2-42-16-44-36z" fill="#4e344d" stroke="#3f2a3d" stroke-width="3"/><path d="M48 75c5-10 13-14 23-11M122 63c10-3 18 1 24 10" fill="none" stroke="#3f2a3d" stroke-width="5" stroke-linecap="round" opacity="0.45"/></g><g id="avatar-v2-layer-shirt"><path data-clothing-asset="roundedTee" d="M42 172c8-32 27-49 54-49s46 17 54 49z" fill="#9edfc0" stroke="#4d846d" stroke-width="3"/><path d="M62 150c17-13 48-14 68 0" fill="none" stroke="#c1edd7" stroke-width="7" stroke-linecap="round" opacity="0.5"/></g><g id="avatar-v2-layer-base"><ellipse cx="96" cy="113" rx="55" ry="41" fill="#b97845" opacity="0.16"/><ellipse data-anatomy="ear-left" cx="44" cy="95" rx="8.5" ry="12.5" fill="#d99f67" stroke="#7f523f" stroke-width="3"/><ellipse data-anatomy="ear-right" cx="148" cy="95" rx="8.5" ry="12.5" fill="#d99f67" stroke="#7f523f" stroke-width="3"/><path data-anatomy="head-round" d="M96 34c30 0 51 20 51 46 0 29-21 46-51 46s-51-17-51-46c0-26 21-46 51-46z" fill="#d99f67" stroke="#7f523f" stroke-width="3"/><path d="M64 56c17-17 45-21 64-2" fill="none" stroke="#efbd87" stroke-width="8" stroke-linecap="round" opacity="0.4"/><circle cx="77" cy="83" r="5" fill="#3d2c30"/><circle cx="115" cy="83" r="5" fill="#3d2c30"/><circle cx="79" cy="81" r="1.5" fill="#fff8f2"/><circle cx="113" cy="81" r="1.5" fill="#fff8f2"/><path d="M78 104c10 12 27 12 37-1" fill="none" stroke="#7a4545" stroke-width="4" stroke-linecap="round"/></g><g id="avatar-v2-layer-front-hair"><path data-hair-style="curlyPlayful" d="M49 65c6-10 15-16 27-17 4-12 15-18 28-15 12 2 21 9 25 21 9 2 15 7 19 14-10 9-24 11-41 7l-11 13-10-13c-16 4-29 1-37-10z" fill="#6f4a66" stroke="#3f2a3d" stroke-width="3"/><path d="M57 59c7-9 17-12 29-9M82 43c9-8 22-8 32 0M110 47c12-2 22 4 29 15M70 70c9 5 18 5 27-2" fill="none" stroke="#3f2a3d" stroke-width="3" stroke-linecap="round" opacity="0.45"/></g><g id="avatar-v2-layer-hair-highlights"><path data-hair-highlight="curlyPlayful" d="M70 48c7-6 17-7 27-3" fill="none" stroke="#92708a" stroke-width="4" stroke-linecap="round" opacity="0.58"/><path data-hair-highlight="curlyPlayful" d="M110 47c8 1 15 6 19 13" fill="none" stroke="#92708a" stroke-width="4" stroke-linecap="round" opacity="0.52"/><path data-hair-highlight="curlyPlayful" d="M61 63c6-4 13-5 20-2" fill="none" stroke="#92708a" stroke-width="4" stroke-linecap="round" opacity="0.5"/></g><g id="avatar-v2-layer-accessory" data-avatar-mount="hairRight" transform="translate(127 60) rotate(12) scale(0.92)"><path data-accessory-asset="leafPin" d="M-2-13c16 2 23 14 15 28-16-2-22-16-15-28z" fill="#f29a82" stroke="#9c554c" stroke-width="3"/><path d="M-1-8c5 5 9 11 11 18" stroke="#ffc2b2" stroke-width="3" stroke-linecap="round"/></g></svg>