<svg xmlns="http://www.w3.org/2000/svg" viewBox="0 0 192 192" width="192" height="192" role="img" aria-label="HomeOps Avatar V2 sample"><g id="avatar-v2-layer-back-hair"><path data-hair-style="shortMessy" d="M48 72c-2-25 16-43 47-45 32-2 52 16 51 43-11-7-23-8-36-5-18 4-35 3-51-5-5 3-9 7-11 12z" fill="#7d3f24" stroke="#5f321f" stroke-width="3"/></g><g id="avatar-v2-layer-shirt"><path data-clothing-asset="overall" d="M42 173c8-32 27-49 54-49s46 17 54 49z" fill="#f8df9b" stroke="#98733b" stroke-width="3"/><path d="M68 173v-43h18l10 14 10-14h18v43z" fill="#f2cd70" stroke="#98733b" stroke-width="3"/><path d="M76 130v-12M116 130v-12" stroke="#98733b" stroke-width="5" stroke-linecap="round"/><circle cx="82" cy="142" r="3" fill="#98733b"/><circle cx="110" cy="142" r="3" fill="#98733b"/></g><g id="avatar-v2-layer-base"><ellipse cx="96" cy="113" rx="55" ry="41" fill="#b97845" opacity="0.16"/><ellipse data-anatomy="ear-left" cx="38" cy="97" rx="9" ry="12" fill="#d99f67" stroke="#7f523f" stroke-width="3"/><ellipse data-anatomy="ear-right" cx="154" cy="97" rx="9" ry="12" fill="#d99f67" stroke="#7f523f" stroke-width="3"/><path data-anatomy="head-wide" d="M57 52C75 38 117 38 135 52C150 64 152 97 137 113C119 133 73 133 55 113C40 97 42 64 57 52z" fill="#d99f67" stroke="#7f523f" stroke-width="3"/><path d="M58 62c17-17 45-21 64-2" fill="none" stroke="#efbd87" stroke-width="8" stroke-linecap="round" opacity="0.4"/><circle cx="75" cy="86" r="5" fill="#3d2c30"/><circle cx="117" cy="86" r="5" fill="#3d2c30"/><circle cx="77" cy="84" r="1.5" fill="#fff8f2"/><circle cx="115" cy="84" r="1.5" fill="#fff8f2"/><path d="M78 106c10 12 27 12 37-1" fill="none" stroke="#7a4545" stroke-width="4" stroke-linecap="round"/></g><g id="avatar-v2-layer-front-hair"><path d="M49 64c8-22 25-34 50-35 14 0 27 3 38 12l12 16c-12-4-23-3-34 3l-10 14-8-16-15 18-5-16c-10 8-19 10-28 4z" fill="#a75f34" stroke="#5f321f" stroke-width="3"/><path d="M64 43l-10 20M86 35l-7 26M119 37l17 23" fill="none" stroke="#5f321f" stroke-width="3" stroke-linecap="round" opacity="0.5"/></g><g id="avatar-v2-layer-glasses" fill="none" stroke="#4b2f3f" stroke-width="4" stroke-linecap="round"><rect x="60" y="74" width="30" height="24" rx="8"/><rect x="102" y="74" width="30" height="24" rx="8"/><path d="M90 86H102"/><path d="M60 84L47 89M132 84L145 89"/></g><g id="avatar-v2-layer-hair-highlights"><path d="M70 42c15-7 34-8 50-2" fill="none" stroke="#c98250" stroke-width="5" stroke-linecap="round" opacity="0.55"/><path d="M86 55l-8 10" fill="none" stroke="#c98250" stroke-width="4" stroke-linecap="round" opacity="0.4"/></g><g id="avatar-v2-layer-accessory" data-avatar-mount="hairRight" transform="translate(127 66) rotate(12) scale(0.92)"><path data-accessory-asset="bow" d="M0 0c-10-12-21-10-24 2 4 10 14 13 24 3 10 10 20 7 24-3-3-12-14-14-24-2z" fill="#f29a82" stroke="#9c554c" stroke-width="3"/><circle cx="0" cy="2" r="5" fill="#d6735f" stroke="#9c554c" stroke-width="2"/></g></svg>