<svg xmlns="http://www.w3.org/2000/svg" viewBox="0 0 192 192" width="192" height="192" role="img" aria-label="HomeOps Avatar V2 sample"><g id="avatar-v2-layer-back-hair"><path data-hair-style="curlyPlayful" d="M45 70c-1-25 20-45 51-46 32 0 54 20 52 47-5 23-24 37-52 36-29 0-48-14-51-37z" fill="#4e344d" stroke="#3f2a3d" stroke-width="3"/><circle cx="50" cy="75" r="12" fill="#4e344d" stroke="#3f2a3d" stroke-width="3"/><circle cx="143" cy="72" r="13" fill="#4e344d" stroke="#3f2a3d" stroke-width="3"/></g><g id="avatar-v2-layer-shirt"><path data-clothing-asset="roundedTee" d="M42 172c8-32 27-49 54-49s46 17 54 49z" fill="#9edfc0" stroke="#4d846d" stroke-width="3"/><path d="M62 150c17-13 48-14 68 0" fill="none" stroke="#c1edd7" stroke-width="7" stroke-linecap="round" opacity="0.5"/></g><g id="avatar-v2-layer-base"><ellipse cx="96" cy="113" rx="55" ry="41" fill="#b97845" opacity="0.16"/><ellipse data-anatomy="ear-left" cx="44" cy="95" rx="8.5" ry="12.5" fill="#d99f67" stroke="#7f523f" stroke-width="3"/><ellipse data-anatomy="ear-right" cx="148" cy="95" rx="8.5" ry="12.5" fill="#d99f67" stroke="#7f523f" stroke-width="3"/><path data-anatomy="head-round" d="M96 34c30 0 51 20 51 46 0 29-21 46-51 46s-51-17-51-46c0-26 21-46 51-46z" fill="#d99f67" stroke="#7f523f" stroke-width="3"/><path d="M64 56c17-17 45-21 64-2" fill="none" stroke="#efbd87" stroke-width="8" stroke-linecap="round" opacity="0.4"/><circle cx="77" cy="83" r="5" fill="#3d2c30"/><circle cx="115" cy="83" r="5" fill="#3d2c30"/><circle cx="79" cy="81" r="1.5" fill="#fff8f2"/><circle cx="113" cy="81" r="1.5" fill="#fff8f2"/><path d="M78 104c10 12 27 12 37-1" fill="none" stroke="#7a4545" stroke-width="4" stroke-linecap="round"/></g><g id="avatar-v2-layer-front-hair"><circle data-hair-style="curlyPlayful" cx="62" cy="57" r="15" fill="#6f4a66" stroke="#3f2a3d" stroke-width="3"/><circle cx="82" cy="42" r="16" fill="#6f4a66" stroke="#3f2a3d" stroke-width="3"/><circle cx="105" cy="41" r="17" fill="#6f4a66" stroke="#3f2a3d" stroke-width="3"/><circle cx="128" cy="56" r="16" fill="#6f4a66" stroke="#3f2a3d" stroke-width="3"/><path d="M49 66c17 7 32 5 47-7 16 12 32 14 49 6-10 10-24 14-41 10l-8 12-8-12c-17 4-30 1-39-9z" fill="#6f4a66" stroke="#3f2a3d" stroke-width="3"/></g><g id="avatar-v2-layer-hair-highlights"><path d="M73 44c5-5 12-7 19-4M111 42c8 1 14 5 18 11M58 63c5-4 10-6 16-5" fill="none" stroke="#92708a" stroke-width="4" stroke-linecap="round" opacity="0.55"/></g><g id="avatar-v2-layer-accessory" data-avatar-mount="hairRight" transform="translate(127 60) rotate(12) scale(0.92)"><path data-accessory-asset="leafPin" d="M-2-13c16 2 23 14 15 28-16-2-22-16-15-28z" fill="#f29a82" stroke="#9c554c" stroke-width="3"/><path d="M-1-8c5 5 9 11 11 18" stroke="#ffc2b2" stroke-width="3" stroke-linecap="round"/></g></svg>