<svg xmlns="http://www.w3.org/2000/svg" viewBox="0 0 192 192" width="192" height="192" role="img" aria-label="HomeOps Avatar V2 sample"><g id="avatar-v2-layer-shirt"><path d="M42 172c8-32 27-49 54-49s46 17 54 49z" fill="#8fc8ef" stroke="#417895" stroke-width="3"/><path d="M62 150c17-13 48-14 68 0" fill="none" stroke="#b6ddf6" stroke-width="7" stroke-linecap="round" opacity="0.5"/><path d="M78 137l18 18 18-18" fill="#fff6ed" stroke="#417895" stroke-width="3"/></g><g id="avatar-v2-layer-base"><ellipse cx="96" cy="112" rx="54" ry="40" fill="#b97845" opacity="0.18"/><rect x="48" y="36" width="96" height="84" rx="44" fill="#d99f67" stroke="#7f523f" stroke-width="3"/><path d="M66 58c17-18 46-22 65-2" fill="none" stroke="#efbd87" stroke-width="8" stroke-linecap="round" opacity="0.45"/><circle cx="77" cy="82" r="5" fill="#3d2c30"/><circle cx="116" cy="80" r="5" fill="#3d2c30"/><circle cx="79" cy="80" r="1.5" fill="#fff8f2"/><circle cx="118" cy="78" r="1.5" fill="#fff8f2"/><path d="M78 104c10 12 28 12 38-1" fill="none" stroke="#7a4545" stroke-width="4" stroke-linecap="round"/><path d="M58 92c-6-1-10 4-9 10 1 7 7 10 13 7" fill="#d99f67" stroke="#7f523f" stroke-width="3"/><path d="M134 91c7-1 11 4 10 11-1 7-7 10-13 7" fill="#d99f67" stroke="#7f523f" stroke-width="3"/></g><g id="avatar-v2-layer-hair"><path d="M50 65c5-25 24-38 48-38s42 12 48 36c-15-5-32-4-48 1-17 5-32 4-48 1z" fill="#68402f" stroke="#35211d" stroke-width="3"/><path d="M69 42c16-9 38-10 54 0" fill="none" stroke="#8a5d47" stroke-width="6" stroke-linecap="round" opacity="0.45"/></g><g id="avatar-v2-layer-glasses" fill="none" stroke="#30495c" stroke-width="4" stroke-linecap="round"><rect x="62" y="70" width="29" height="24" rx="13"/><rect x="102" y="69" width="31" height="24" rx="13"/><path d="M91 81h11"/><path d="M62 79l-10-4M133 78l10-5"/></g></svg>
