<svg xmlns="http://www.w3.org/2000/svg" viewBox="0 0 192 192" width="192" height="192" role="img" aria-label="HomeOps Avatar V2 sample"><g id="avatar-v2-layer-shirt"><path d="M42 172c8-32 27-49 54-49s46 17 54 49z" fill="#9edfc0" stroke="#4d846d" stroke-width="3"/><path d="M62 150c17-13 48-14 68 0" fill="none" stroke="#c1edd7" stroke-width="7" stroke-linecap="round" opacity="0.5"/></g><g id="avatar-v2-layer-base"><ellipse cx="96" cy="112" rx="54" ry="40" fill="#df9778" opacity="0.18"/><rect x="48" y="36" width="96" height="84" rx="44" fill="#f4bf9b" stroke="#9f5f55" stroke-width="3"/><path d="M66 58c17-18 46-22 65-2" fill="none" stroke="#ffd8bf" stroke-width="8" stroke-linecap="round" opacity="0.45"/><circle cx="77" cy="82" r="5" fill="#3d2c30"/><circle cx="116" cy="80" r="5" fill="#3d2c30"/><circle cx="79" cy="80" r="1.5" fill="#fff8f2"/><circle cx="118" cy="78" r="1.5" fill="#fff8f2"/><path d="M78 104c10 12 28 12 38-1" fill="none" stroke="#7a4545" stroke-width="4" stroke-linecap="round"/><path d="M58 92c-6-1-10 4-9 10 1 7 7 10 13 7" fill="#f4bf9b" stroke="#9f5f55" stroke-width="3"/><path d="M134 91c7-1 11 4 10 11-1 7-7 10-13 7" fill="#f4bf9b" stroke="#9f5f55" stroke-width="3"/></g><g id="avatar-v2-layer-hair"><path d="M50 62c0-24 22-39 48-38 27 0 49 16 48 40-10-8-22-11-33-7-16 6-31 4-45-4-8 3-13 6-18 9z" fill="#a75f34" stroke="#5f321f" stroke-width="3"/><circle cx="63" cy="55" r="14" fill="#a75f34" stroke="#5f321f" stroke-width="3"/><circle cx="91" cy="43" r="16" fill="#a75f34" stroke="#5f321f" stroke-width="3"/><circle cx="121" cy="53" r="15" fill="#a75f34" stroke="#5f321f" stroke-width="3"/><path d="M69 42c16-9 38-10 54 0" fill="none" stroke="#c98250" stroke-width="6" stroke-linecap="round" opacity="0.45"/></g><g id="avatar-v2-layer-accessory"><path d="M128 42l5 10 11 1-8 8 2 11-10-5-10 5 2-11-8-8 11-1z" fill="#f29a82" stroke="#9c554c" stroke-width="3"/><path d="M130 48c4 3 7 6 9 11" stroke="#ffc2b2" stroke-width="4" stroke-linecap="round" opacity="0.65"/></g></svg>
