<svg xmlns="http://www.w3.org/2000/svg" viewBox="0 0 192 192" width="192" height="192" role="img" aria-label="HomeOps Avatar V2 sample"><g id="avatar-v2-layer-shirt"><path d="M42 172c8-32 27-49 54-49s46 17 54 49z" fill="#efa0b8" stroke="#9b526b" stroke-width="3"/><path d="M62 150c17-13 48-14 68 0" fill="none" stroke="#fac3d2" stroke-width="7" stroke-linecap="round" opacity="0.5"/></g><g id="avatar-v2-layer-base"><ellipse cx="96" cy="112" rx="54" ry="40" fill="#73422f" opacity="0.18"/><rect x="48" y="32" width="96" height="92" rx="44" fill="#9b6547" stroke="#55332b" stroke-width="3"/><path d="M66 54c17-18 46-22 65-2" fill="none" stroke="#bd8060" stroke-width="8" stroke-linecap="round" opacity="0.45"/><circle cx="77" cy="82" r="5" fill="#3d2c30"/><circle cx="116" cy="80" r="5" fill="#3d2c30"/><circle cx="79" cy="80" r="1.5" fill="#fff8f2"/><circle cx="118" cy="78" r="1.5" fill="#fff8f2"/><path d="M78 104c10 12 28 12 38-1" fill="none" stroke="#7a4545" stroke-width="4" stroke-linecap="round"/><path d="M58 92c-6-1-10 4-9 10 1 7 7 10 13 7" fill="#9b6547" stroke="#55332b" stroke-width="3"/><path d="M134 91c7-1 11 4 10 11-1 7-7 10-13 7" fill="#9b6547" stroke="#55332b" stroke-width="3"/></g><g id="avatar-v2-layer-hair"><path d="M49 68c3-29 22-43 50-42 27 2 44 18 47 48-16-10-31-12-47-10-20 3-35 1-50 4z" fill="#6f4a66" stroke="#3f2a3d" stroke-width="3"/><path d="M135 63c8 20 3 43-14 54" fill="#6f4a66" stroke="#3f2a3d" stroke-width="3"/><path d="M69 42c16-9 38-10 54 0" fill="none" stroke="#92708a" stroke-width="6" stroke-linecap="round" opacity="0.45"/></g><g id="avatar-v2-layer-glasses" fill="none" stroke="#4b2f3f" stroke-width="4" stroke-linecap="round"><rect x="62" y="70" width="29" height="24" rx="8"/><rect x="102" y="69" width="31" height="24" rx="8"/><path d="M91 81h11"/><path d="M62 79l-10-4M133 78l10-5"/></g><g id="avatar-v2-layer-accessory"><path d="M131 44c16 2 23 14 15 28-16-2-22-16-15-28z" fill="#c5a7ef" stroke="#725a9f" stroke-width="3"/><path d="M130 48c4 3 7 6 9 11" stroke="#decdf7" stroke-width="4" stroke-linecap="round" opacity="0.65"/></g></svg>
