<svg xmlns="http://www.w3.org/2000/svg" viewBox="0 0 96 96" role="img" aria-labelledby="title desc" data-asset-name="helpful-routine" data-asset-variant="spot" data-intended-size="96px" data-color-slots="Primary Secondary Accent Highlight Shadow Background MemberColor">
<title>helpful-routine spot</title>
<desc>HomeOps owned spot asset for helpful-routine; uses semantic color slots and rounded layered shapes.</desc>
<style>:root{--asset-primary:#f4a6a6;--asset-secondary:#f8dd9f;--asset-accent:#596f8f;--asset-highlight:#fff8df;--asset-shadow:#8a7a641f;--asset-background:#f7efe7;--asset-neutral-warm:#fff4df;--asset-member-color:#91c7b1}.primary{fill:var(--asset-primary,currentColor)}.secondary{fill:var(--asset-secondary,currentColor)}.accent{fill:var(--asset-accent,currentColor)}.highlight{fill:var(--asset-highlight,#fff)}.shadow{fill:var(--asset-shadow,rgba(0,0,0,.12))}.background{fill:var(--asset-background,transparent)}.neutral{fill:var(--asset-neutral-warm,#fff4df)}.member{fill:var(--asset-member-color,var(--asset-secondary,currentColor))}.stroke{stroke:var(--asset-accent,currentColor);stroke-linecap:round;stroke-linejoin:round;fill:none}</style>
<ellipse class="shadow" cx="48" cy="86" rx="28" ry="5"/><circle class="background" cx="48" cy="44" r="36"/><g transform="translate(0 2) scale(4)"><ellipse class="shadow" cx="12" cy="20.5" rx="7" ry="1.5"/><path class="primary" d="M7.2 7.2a6.8 6.8 0 0 1 9.6 0l1.2 1.2V5h2v7h-7v-2h3.5l-1.1-1.1a4.8 4.8 0 0 0-8.1 3.3H5a7 7 0 0 1 2.2-5Z"/><path class="secondary" d="M16.8 16.8a6.8 6.8 0 0 1-9.6 0L6 15.6V19H4v-7h7v2H7.5l1.1 1.1a4.8 4.8 0 0 0 8.1-3.3H19a7 7 0 0 1-2.2 5Z"/><circle class="highlight" cx="8" cy="8" r="1"/></g>
</svg>
