<svg xmlns="http://www.w3.org/2000/svg" viewBox="0 0 160 160" role="img" aria-labelledby="title desc" data-asset-name="helpful-teamwork" data-asset-variant="group" data-intended-size="160px" data-color-slots="Primary Secondary Accent Highlight Shadow Background MemberColor">
<title>helpful-teamwork group</title>
<desc>HomeOps owned group asset for helpful-teamwork; uses semantic color slots and rounded layered shapes.</desc>
<style>:root{--asset-primary:#f4a6a6;--asset-secondary:#f8dd9f;--asset-accent:#596f8f;--asset-highlight:#fff8df;--asset-shadow:#8a7a641f;--asset-background:#f7efe7;--asset-neutral-warm:#fff4df;--asset-member-color:#91c7b1}.primary{fill:var(--asset-primary,currentColor)}.secondary{fill:var(--asset-secondary,currentColor)}.accent{fill:var(--asset-accent,currentColor)}.highlight{fill:var(--asset-highlight,#fff)}.shadow{fill:var(--asset-shadow,rgba(0,0,0,.12))}.background{fill:var(--asset-background,transparent)}.neutral{fill:var(--asset-neutral-warm,#fff4df)}.member{fill:var(--asset-member-color,var(--asset-secondary,currentColor))}.stroke{stroke:var(--asset-accent,currentColor);stroke-linecap:round;stroke-linejoin:round;fill:none}</style>
<ellipse class="shadow" cx="80" cy="142" rx="48" ry="8"/><path class="background" d="M31 50c16-28 61-33 88-9 26 24 20 70-15 86-40 18-83-5-86-39-1-13 4-27 13-38Z"/><g transform="translate(32 24) scale(4)"><ellipse class="shadow" cx="12" cy="20.5" rx="7" ry="1.5"/><circle class="primary" cx="8" cy="10" r="4.5"/><circle class="secondary" cx="16" cy="10" r="4.5"/><path class="member" d="M7 14h10a4 4 0 0 1 4 4v1H3v-1a4 4 0 0 1 4-4Z"/><path class="stroke" d="M9 10.2h6" stroke-width="1.8"/><circle class="highlight" cx="6.8" cy="8" r="1"/></g><circle class="member" cx="120" cy="56" r="10"/><circle class="highlight" cx="46" cy="42" r="5"/>
</svg>
