<svg xmlns="http://www.w3.org/2000/svg" viewBox="0 0 1100 520" width="1100" height="520" role="img" aria-label="Avatar Accessories V2 variety sheet"><title id="accessory-v2-title">Avatar Accessories V2 variety sheet</title><rect id="accessory-v2-sheet-bg" width="1100" height="520" fill="#f7efe4"/><g id="accessory-v2-cell-hairClip"><rect id="accessory-v2-card-hairClip" x="6" y="24" width="208" height="230" rx="18" fill="#fffaf3" stroke="#eadfce"/><svg x="14" y="32" width="192" height="192" viewBox="0 0 192 192" role="img" aria-label="Avatar met Haarspeld"><g id="accessory-v2-hairClip-avatar-v2-layer-back-hair"><path data-hair-style="shortMessy" d="M47 73c-1-26 18-44 49-45 31 0 51 17 50 43-10-6-22-8-35-5-18 4-35 2-50-6-6 3-11 8-14 13z" fill="#43271f" stroke="#35211d" stroke-width="3"/></g><g id="accessory-v2-hairClip-avatar-v2-layer-shirt"><path data-clothing-asset="hoodie" d="M41 173c7-33 27-51 55-51s48 18 55 51z" fill="#efa0b8" stroke="#9b526b" stroke-width="3"/><path d="M63 139c10-17 23-24 33-24s23 7 33 24c-12 11-54 11-66 0z" fill="#d67595" stroke="#9b526b" stroke-width="3"/><path d="M78 130c8 9 27 11 36 0" fill="none" stroke="#fac3d2" stroke-width="5" stroke-linecap="round" opacity="0.65"/><path d="M88 137l-4 21M104 137l4 21" stroke="#9b526b" stroke-width="3" stroke-linecap="round"/><circle cx="84" cy="160" r="2.5" fill="#9b526b"/><circle cx="108" cy="160" r="2.5" fill="#9b526b"/></g><g id="accessory-v2-hairClip-avatar-v2-layer-base"><ellipse data-anatomy="ear-left" cx="44" cy="95" rx="8.5" ry="12.5" fill="#d8a37d" stroke="#7e543f" stroke-width="3"/><ellipse data-anatomy="ear-right" cx="148" cy="95" rx="8.5" ry="12.5" fill="#d8a37d" stroke="#7e543f" stroke-width="3"/><path data-anatomy="head-round" d="M96 34c30 0 51 20 51 46 0 29-21 46-51 46s-51-17-51-46c0-26 21-46 51-46z" fill="#d8a37d" stroke="#7e543f" stroke-width="3"/><path d="M64 56c17-17 45-21 64-2" fill="none" stroke="#edc09b" stroke-width="8" stroke-linecap="round" opacity="0.4"/></g><g id="accessory-v2-hairClip-avatar-v2-layer-eyes" data-eye-style="classicRound"><circle cx="77" cy="83" r="5" fill="#3d2c30"/><circle cx="79" cy="81" r="1.5" fill="#fff8f2"/><circle cx="115" cy="83" r="5" fill="#3d2c30"/><circle cx="113" cy="81" r="1.5" fill="#fff8f2"/></g><g id="accessory-v2-hairClip-avatar-v2-layer-mouth" data-mouth-style="smile"><path d="M77 102c10 15 28 15 38-1" fill="none" stroke="#7a4545" stroke-width="4" stroke-linecap="round"/></g><g id="accessory-v2-hairClip-avatar-v2-layer-front-hair"><path data-hair-style="shortMessy" d="M49 66c7-22 25-36 49-37 18-1 34 5 45 17 4 4 6 9 7 15-11-4-22-3-33 3l-9 13-10-17-15 19-6-17c-10 8-20 9-28 4z" fill="#68402f" stroke="#35211d" stroke-width="3"/><path d="M62 47c8-8 19-13 32-15M88 35c-5 8-8 17-9 27M116 36c10 5 17 13 22 24" fill="none" stroke="#35211d" stroke-width="3" stroke-linecap="round" opacity="0.46"/></g><g id="accessory-v2-hairClip-avatar-v2-layer-glasses" fill="none" stroke="#30495c" stroke-width="4" stroke-linecap="round"><rect x="62" y="71" width="30" height="24" rx="8"/><rect x="100" y="71" width="30" height="24" rx="8"/><path fill="none" d="M92 83H100"/><path fill="none" d="M62 81L52.5 87M130 81L139.5 87"/></g><g id="accessory-v2-hairClip-avatar-v2-layer-hair-highlights"><path data-hair-highlight="shortMessy" d="M68 45c14-8 33-10 50-4" fill="none" stroke="#8a5d47" stroke-width="5" stroke-linecap="round" opacity="0.58"/><path data-hair-highlight="shortMessy" d="M90 56c-4 5-7 10-11 15" fill="none" stroke="#8a5d47" stroke-width="4" stroke-linecap="round" opacity="0.42"/></g><g id="accessory-v2-hairClip-avatar-v2-layer-accessory" data-avatar-mount="hairRight" transform="translate(127 60) rotate(12) scale(0.92)"><rect data-accessory-asset="hairClip" x="-17" y="-5" width="34" height="10" rx="5" fill="#9edfc0" stroke="#4f8f70" stroke-width="3"/><path d="M-10-1h20" stroke="#c5efd9" stroke-width="3" stroke-linecap="round" opacity="0.75"/></g></svg><text id="accessory-v2-label-hairClip" x="110" y="246" text-anchor="middle" font-family="Inter, Arial, sans-serif" font-size="15" fill="#4b3a2f">Haarspeld</text></g><g id="accessory-v2-cell-ribbon"><rect id="accessory-v2-card-ribbon" x="226" y="24" width="208" height="230" rx="18" fill="#fffaf3" stroke="#eadfce"/><svg x="234" y="32" width="192" height="192" viewBox="0 0 192 192" role="img" aria-label="Avatar met Lint"><g id="accessory-v2-ribbon-avatar-v2-layer-back-hair"><path data-hair-style="longSoft" d="M47 70c-2-29 18-47 49-47 30 0 50 18 49 48 6 31-7 57-31 65-2-17-7-35-18-51-11 16-16 34-18 51-24-8-37-34-31-66z" fill="#7d3f24" stroke="#5f321f" stroke-width="3"/><path d="M61 74c-2 22 3 42 16 58M132 74c2 22-3 42-17 58" fill="none" stroke="#5f321f" stroke-width="3" stroke-linecap="round" opacity="0.38"/></g><g id="accessory-v2-ribbon-avatar-v2-layer-shirt"><path data-clothing-asset="hoodie" d="M41 173c7-33 27-51 55-51s48 18 55 51z" fill="#8fc8ef" stroke="#417895" stroke-width="3"/><path d="M63 139c10-17 23-24 33-24s23 7 33 24c-12 11-54 11-66 0z" fill="#67a8d8" stroke="#417895" stroke-width="3"/><path d="M78 130c8 9 27 11 36 0" fill="none" stroke="#b6ddf6" stroke-width="5" stroke-linecap="round" opacity="0.65"/><path d="M88 137l-4 21M104 137l4 21" stroke="#417895" stroke-width="3" stroke-linecap="round"/><circle cx="84" cy="160" r="2.5" fill="#417895"/><circle cx="108" cy="160" r="2.5" fill="#417895"/></g><g id="accessory-v2-ribbon-avatar-v2-layer-base"><ellipse data-anatomy="ear-left" cx="51" cy="94" rx="8" ry="13.5" fill="#d8a37d" stroke="#7e543f" stroke-width="3"/><ellipse data-anatomy="ear-right" cx="141" cy="94" rx="8" ry="13.5" fill="#d8a37d" stroke="#7e543f" stroke-width="3"/><path data-anatomy="head-oval" d="M96 27c27 0 44 22 44 53 0 34-18 53-44 53s-44-19-44-53c0-31 17-53 44-53z" fill="#d8a37d" stroke="#7e543f" stroke-width="3"/><path d="M71 49c17-17 45-21 64-2" fill="none" stroke="#edc09b" stroke-width="8" stroke-linecap="round" opacity="0.4"/></g><g id="accessory-v2-ribbon-avatar-v2-layer-eyes" data-eye-style="classicRound"><circle cx="79" cy="82" r="5" fill="#3d2c30"/><circle cx="81" cy="80" r="1.5" fill="#fff8f2"/><circle cx="113" cy="82" r="5" fill="#3d2c30"/><circle cx="111" cy="80" r="1.5" fill="#fff8f2"/></g><g id="accessory-v2-ribbon-avatar-v2-layer-mouth" data-mouth-style="smile"><path d="M77 104c10 15 28 15 38-1" fill="none" stroke="#7a4545" stroke-width="4" stroke-linecap="round"/></g><g id="accessory-v2-ribbon-avatar-v2-layer-front-hair"><path data-hair-style="longSoft" d="M50 65c5-24 23-39 49-39 24 0 41 13 47 37-17-6-33-7-49-2-15 5-31 9-47 4z" fill="#a75f34" stroke="#5f321f" stroke-width="3"/><path d="M95 28c-6 17-19 30-39 38M103 30c15 8 27 19 39 34" fill="none" stroke="#5f321f" stroke-width="3" stroke-linecap="round" opacity="0.45"/></g><g id="accessory-v2-ribbon-avatar-v2-layer-hair-highlights"><path data-hair-highlight="longSoft" d="M65 54c17-13 38-17 60-11" fill="none" stroke="#c98250" stroke-width="5" stroke-linecap="round" opacity="0.52"/><path data-hair-highlight="longSoft" d="M126 75c3 18-1 35-10 50" fill="none" stroke="#c98250" stroke-width="4" stroke-linecap="round" opacity="0.38"/></g><g id="accessory-v2-ribbon-avatar-v2-layer-accessory" data-avatar-mount="hairRight" transform="translate(127 53) rotate(12) scale(0.92)"><path data-accessory-asset="ribbon" d="M-5 0c-9-8-17-6-19 3 4 7 12 8 19 2 7 6 15 5 19-2-2-9-10-11-19-3z" fill="#8fc8ef" stroke="#417895" stroke-width="3"/><path d="M-4 6l-5 17 9-5 8 5-4-17z" fill="#67a8d8" stroke="#417895" stroke-width="3" stroke-linejoin="round"/><circle cx="0" cy="3" r="4" fill="#b6ddf6" stroke="#417895" stroke-width="2"/></g></svg><text id="accessory-v2-label-ribbon" x="330" y="246" text-anchor="middle" font-family="Inter, Arial, sans-serif" font-size="15" fill="#4b3a2f">Lint</text></g><g id="accessory-v2-cell-baseballCap"><rect id="accessory-v2-card-baseballCap" x="446" y="24" width="208" height="230" rx="18" fill="#fffaf3" stroke="#eadfce"/><svg x="454" y="32" width="192" height="192" viewBox="0 0 192 192" role="img" aria-label="Avatar met Pet"><g id="accessory-v2-baseballCap-avatar-v2-layer-back-hair"><path data-hair-style="curlyPlayful" data-concept="loose-wavy-curls-fixed" d="M49 71c-2-27 18-46 48-46 29 1 48 19 47 45 7 24 0 45-18 58-5-18-13-31-27-42-14 10-24 24-30 42-18-13-26-34-20-57z" fill="#43271f" stroke="#35211d" stroke-width="3"/><path d="M61 74c3 19 10 34 22 46M132 72c-2 19-10 34-23 46" fill="none" stroke="#35211d" stroke-width="3" stroke-linecap="round" opacity="0.38"/></g><g id="accessory-v2-baseballCap-avatar-v2-layer-shirt"><path data-clothing-asset="hoodie" d="M41 173c7-33 27-51 55-51s48 18 55 51z" fill="#9edfc0" stroke="#4d846d" stroke-width="3"/><path d="M63 139c10-17 23-24 33-24s23 7 33 24c-12 11-54 11-66 0z" fill="#70be98" stroke="#4d846d" stroke-width="3"/><path d="M78 130c8 9 27 11 36 0" fill="none" stroke="#c1edd7" stroke-width="5" stroke-linecap="round" opacity="0.65"/><path d="M88 137l-4 21M104 137l4 21" stroke="#4d846d" stroke-width="3" stroke-linecap="round"/><circle cx="84" cy="160" r="2.5" fill="#4d846d"/><circle cx="108" cy="160" r="2.5" fill="#4d846d"/></g><g id="accessory-v2-baseballCap-avatar-v2-layer-base"><ellipse data-anatomy="ear-left" cx="38" cy="97" rx="9" ry="12" fill="#d8a37d" stroke="#7e543f" stroke-width="3"/><ellipse data-anatomy="ear-right" cx="154" cy="97" rx="9" ry="12" fill="#d8a37d" stroke="#7e543f" stroke-width="3"/><path data-anatomy="head-wide" d="M57 52C75 38 117 38 135 52C150 64 152 97 137 113C119 133 73 133 55 113C40 97 42 64 57 52z" fill="#d8a37d" stroke="#7e543f" stroke-width="3"/><path d="M58 62c17-17 45-21 64-2" fill="none" stroke="#edc09b" stroke-width="8" stroke-linecap="round" opacity="0.4"/></g><g id="accessory-v2-baseballCap-avatar-v2-layer-eyes" data-eye-style="classicRound"><circle cx="75" cy="86" r="5" fill="#3d2c30"/><circle cx="77" cy="84" r="1.5" fill="#fff8f2"/><circle cx="117" cy="86" r="5" fill="#3d2c30"/><circle cx="115" cy="84" r="1.5" fill="#fff8f2"/></g><g id="accessory-v2-baseballCap-avatar-v2-layer-mouth" data-mouth-style="smile"><path d="M77 104c10 15 28 15 38-1" fill="none" stroke="#7a4545" stroke-width="4" stroke-linecap="round"/></g><g id="accessory-v2-baseballCap-avatar-v2-layer-front-hair"><path data-hair-style="curlyPlayful" data-concept="loose-wavy-curls-fixed" d="M51 65c7-23 25-37 49-37 23 0 39 13 44 34-12-5-25-4-36 2-10 5-20 8-30 6-9-1-18-3-27-5z" fill="#68402f" stroke="#35211d" stroke-width="3"/><path d="M97 29c-7 12-18 22-36 34M103 31c14 7 25 17 36 31M76 70c10 6 24 4 37-4" fill="none" stroke="#35211d" stroke-width="3" stroke-linecap="round" opacity="0.5"/></g><g id="accessory-v2-baseballCap-avatar-v2-layer-hair-highlights"><path data-hair-highlight="curlyPlayful" data-concept="loose-wavy-curls-fixed" d="M66 54c16-13 34-17 55-10" fill="none" stroke="#8a5d47" stroke-width="4" stroke-linecap="round" opacity="0.58"/><path data-hair-highlight="curlyPlayful" data-concept="loose-wavy-curls-fixed" d="M121 64c7 4 12 11 14 20" fill="none" stroke="#8a5d47" stroke-width="3" stroke-linecap="round" opacity="0.42"/></g><g id="accessory-v2-baseballCap-avatar-v2-layer-accessory" data-avatar-mount="headTop"><path data-accessory-asset="baseballCap" d="M61 67c8-19 62-19 70 0v10h-70z" fill="#9edfc0" stroke="#4f8f70" stroke-width="3"/><path d="M108 77c14-1 26 3 34 10-16 5-31 3-43-4z" fill="#72bf9a" stroke="#4f8f70" stroke-width="3"/><path d="M82 66c8-5 20-6 31-1" stroke="#c5efd9" stroke-width="4" stroke-linecap="round" opacity="0.65"/></g></svg><text id="accessory-v2-label-baseballCap" x="550" y="246" text-anchor="middle" font-family="Inter, Arial, sans-serif" font-size="15" fill="#4b3a2f">Pet</text></g><g id="accessory-v2-cell-beanie"><rect id="accessory-v2-card-beanie" x="666" y="24" width="208" height="230" rx="18" fill="#fffaf3" stroke="#eadfce"/><svg x="674" y="32" width="192" height="192" viewBox="0 0 192 192" role="img" aria-label="Avatar met Muts"><g id="accessory-v2-beanie-avatar-v2-layer-shirt"><path data-clothing-asset="hoodie" d="M41 173c7-33 27-51 55-51s48 18 55 51z" fill="#bcaee8" stroke="#695b9b" stroke-width="3"/><path d="M63 139c10-17 23-24 33-24s23 7 33 24c-12 11-54 11-66 0z" fill="#9486c7" stroke="#695b9b" stroke-width="3"/><path d="M78 130c8 9 27 11 36 0" fill="none" stroke="#d8cef4" stroke-width="5" stroke-linecap="round" opacity="0.65"/><path d="M88 137l-4 21M104 137l4 21" stroke="#695b9b" stroke-width="3" stroke-linecap="round"/><circle cx="84" cy="160" r="2.5" fill="#695b9b"/><circle cx="108" cy="160" r="2.5" fill="#695b9b"/></g><g id="accessory-v2-beanie-avatar-v2-layer-base"><ellipse data-anatomy="ear-left" cx="44" cy="95" rx="8.5" ry="12.5" fill="#d8a37d" stroke="#7e543f" stroke-width="3"/><ellipse data-anatomy="ear-right" cx="148" cy="95" rx="8.5" ry="12.5" fill="#d8a37d" stroke="#7e543f" stroke-width="3"/><path data-anatomy="head-round" d="M96 34c30 0 51 20 51 46 0 29-21 46-51 46s-51-17-51-46c0-26 21-46 51-46z" fill="#d8a37d" stroke="#7e543f" stroke-width="3"/><path d="M64 56c17-17 45-21 64-2" fill="none" stroke="#edc09b" stroke-width="8" stroke-linecap="round" opacity="0.4"/></g><g id="accessory-v2-beanie-avatar-v2-layer-eyes" data-eye-style="classicRound"><circle cx="77" cy="83" r="5" fill="#3d2c30"/><circle cx="79" cy="81" r="1.5" fill="#fff8f2"/><circle cx="115" cy="83" r="5" fill="#3d2c30"/><circle cx="113" cy="81" r="1.5" fill="#fff8f2"/></g><g id="accessory-v2-beanie-avatar-v2-layer-mouth" data-mouth-style="smile"><path d="M77 102c10 15 28 15 38-1" fill="none" stroke="#7a4545" stroke-width="4" stroke-linecap="round"/></g><g id="accessory-v2-beanie-avatar-v2-layer-front-hair"><path d="M49 68c3-29 22-43 50-42 27 2 44 18 47 48-16-10-31-12-47-10-20 3-35 1-50 4z" fill="#a75f34" stroke="#5f321f" stroke-width="3"/><path d="M135 63c8 20 3 43-14 54" fill="#a75f34" stroke="#5f321f" stroke-width="3"/></g><g id="accessory-v2-beanie-avatar-v2-layer-hair-highlights"><path d="M69 42c16-9 38-10 54 0" fill="none" stroke="#c98250" stroke-width="6" stroke-linecap="round" opacity="0.45"/></g><g id="accessory-v2-beanie-avatar-v2-layer-accessory" data-avatar-mount="headTop"><path data-accessory-asset="beanie" d="M58 69c4-30 72-30 76 0v10h-76z" fill="#8fc8ef" stroke="#417895" stroke-width="3"/><path d="M56 77h80" stroke="#417895" stroke-width="8" stroke-linecap="round"/><circle cx="96" cy="42" r="8" fill="#b6ddf6" stroke="#417895" stroke-width="3"/></g></svg><text id="accessory-v2-label-beanie" x="770" y="246" text-anchor="middle" font-family="Inter, Arial, sans-serif" font-size="15" fill="#4b3a2f">Muts</text></g><g id="accessory-v2-cell-partyHat"><rect id="accessory-v2-card-partyHat" x="886" y="24" width="208" height="230" rx="18" fill="#fffaf3" stroke="#eadfce"/><svg x="894" y="32" width="192" height="192" viewBox="0 0 192 192" role="img" aria-label="Avatar met Feesthoed"><g id="accessory-v2-partyHat-avatar-v2-layer-back-hair"><path data-hair-style="shortMessy" d="M47 73c-1-26 18-44 49-45 31 0 51 17 50 43-10-6-22-8-35-5-18 4-35 2-50-6-6 3-11 8-14 13z" fill="#43271f" stroke="#35211d" stroke-width="3"/></g><g id="accessory-v2-partyHat-avatar-v2-layer-shirt"><path data-clothing-asset="hoodie" d="M41 173c7-33 27-51 55-51s48 18 55 51z" fill="#efa0b8" stroke="#9b526b" stroke-width="3"/><path d="M63 139c10-17 23-24 33-24s23 7 33 24c-12 11-54 11-66 0z" fill="#d67595" stroke="#9b526b" stroke-width="3"/><path d="M78 130c8 9 27 11 36 0" fill="none" stroke="#fac3d2" stroke-width="5" stroke-linecap="round" opacity="0.65"/><path d="M88 137l-4 21M104 137l4 21" stroke="#9b526b" stroke-width="3" stroke-linecap="round"/><circle cx="84" cy="160" r="2.5" fill="#9b526b"/><circle cx="108" cy="160" r="2.5" fill="#9b526b"/></g><g id="accessory-v2-partyHat-avatar-v2-layer-base"><ellipse data-anatomy="ear-left" cx="51" cy="94" rx="8" ry="13.5" fill="#d8a37d" stroke="#7e543f" stroke-width="3"/><ellipse data-anatomy="ear-right" cx="141" cy="94" rx="8" ry="13.5" fill="#d8a37d" stroke="#7e543f" stroke-width="3"/><path data-anatomy="head-oval" d="M96 27c27 0 44 22 44 53 0 34-18 53-44 53s-44-19-44-53c0-31 17-53 44-53z" fill="#d8a37d" stroke="#7e543f" stroke-width="3"/><path d="M71 49c17-17 45-21 64-2" fill="none" stroke="#edc09b" stroke-width="8" stroke-linecap="round" opacity="0.4"/></g><g id="accessory-v2-partyHat-avatar-v2-layer-eyes" data-eye-style="classicRound"><circle cx="79" cy="82" r="5" fill="#3d2c30"/><circle cx="81" cy="80" r="1.5" fill="#fff8f2"/><circle cx="113" cy="82" r="5" fill="#3d2c30"/><circle cx="111" cy="80" r="1.5" fill="#fff8f2"/></g><g id="accessory-v2-partyHat-avatar-v2-layer-mouth" data-mouth-style="smile"><path d="M77 104c10 15 28 15 38-1" fill="none" stroke="#7a4545" stroke-width="4" stroke-linecap="round"/></g><g id="accessory-v2-partyHat-avatar-v2-layer-front-hair"><path data-hair-style="shortMessy" d="M49 66c7-22 25-36 49-37 18-1 34 5 45 17 4 4 6 9 7 15-11-4-22-3-33 3l-9 13-10-17-15 19-6-17c-10 8-20 9-28 4z" fill="#68402f" stroke="#35211d" stroke-width="3"/><path d="M62 47c8-8 19-13 32-15M88 35c-5 8-8 17-9 27M116 36c10 5 17 13 22 24" fill="none" stroke="#35211d" stroke-width="3" stroke-linecap="round" opacity="0.46"/></g><g id="accessory-v2-partyHat-avatar-v2-layer-glasses" fill="none" stroke="#30495c" stroke-width="4" stroke-linecap="round"><rect x="64" y="70" width="30" height="24" rx="8"/><rect x="98" y="70" width="30" height="24" rx="8"/><path fill="none" d="M94 82H98"/><path fill="none" d="M64 80L59 86M128 80L133 86"/></g><g id="accessory-v2-partyHat-avatar-v2-layer-hair-highlights"><path data-hair-highlight="shortMessy" d="M68 45c14-8 33-10 50-4" fill="none" stroke="#8a5d47" stroke-width="5" stroke-linecap="round" opacity="0.58"/><path data-hair-highlight="shortMessy" d="M90 56c-4 5-7 10-11 15" fill="none" stroke="#8a5d47" stroke-width="4" stroke-linecap="round" opacity="0.42"/></g><g id="accessory-v2-partyHat-avatar-v2-layer-accessory" data-avatar-mount="headTop"><path data-accessory-asset="partyHat" d="M78 71L101 13L127 71z" fill="#9edfc0" stroke="#4f8f70" stroke-width="3"/><path d="M87 50l25 9M95 30l15 6" stroke="#c5efd9" stroke-width="4" stroke-linecap="round" opacity="0.7"/><circle cx="101" cy="10" r="6" fill="#c5efd9" stroke="#4f8f70" stroke-width="2"/></g></svg><text id="accessory-v2-label-partyHat" x="990" y="246" text-anchor="middle" font-family="Inter, Arial, sans-serif" font-size="15" fill="#4b3a2f">Feesthoed</text></g><g id="accessory-v2-cell-crown"><rect id="accessory-v2-card-crown" x="6" y="269" width="208" height="230" rx="18" fill="#fffaf3" stroke="#eadfce"/><svg x="14" y="277" width="192" height="192" viewBox="0 0 192 192" role="img" aria-label="Avatar met Kroon"><g id="accessory-v2-crown-avatar-v2-layer-back-hair"><path data-hair-style="longSoft" d="M47 70c-2-29 18-47 49-47 30 0 50 18 49 48 6 31-7 57-31 65-2-17-7-35-18-51-11 16-16 34-18 51-24-8-37-34-31-66z" fill="#7d3f24" stroke="#5f321f" stroke-width="3"/><path d="M61 74c-2 22 3 42 16 58M132 74c2 22-3 42-17 58" fill="none" stroke="#5f321f" stroke-width="3" stroke-linecap="round" opacity="0.38"/></g><g id="accessory-v2-crown-avatar-v2-layer-shirt"><path data-clothing-asset="hoodie" d="M41 173c7-33 27-51 55-51s48 18 55 51z" fill="#8fc8ef" stroke="#417895" stroke-width="3"/><path d="M63 139c10-17 23-24 33-24s23 7 33 24c-12 11-54 11-66 0z" fill="#67a8d8" stroke="#417895" stroke-width="3"/><path d="M78 130c8 9 27 11 36 0" fill="none" stroke="#b6ddf6" stroke-width="5" stroke-linecap="round" opacity="0.65"/><path d="M88 137l-4 21M104 137l4 21" stroke="#417895" stroke-width="3" stroke-linecap="round"/><circle cx="84" cy="160" r="2.5" fill="#417895"/><circle cx="108" cy="160" r="2.5" fill="#417895"/></g><g id="accessory-v2-crown-avatar-v2-layer-base"><ellipse data-anatomy="ear-left" cx="38" cy="97" rx="9" ry="12" fill="#d8a37d" stroke="#7e543f" stroke-width="3"/><ellipse data-anatomy="ear-right" cx="154" cy="97" rx="9" ry="12" fill="#d8a37d" stroke="#7e543f" stroke-width="3"/><path data-anatomy="head-wide" d="M57 52C75 38 117 38 135 52C150 64 152 97 137 113C119 133 73 133 55 113C40 97 42 64 57 52z" fill="#d8a37d" stroke="#7e543f" stroke-width="3"/><path d="M58 62c17-17 45-21 64-2" fill="none" stroke="#edc09b" stroke-width="8" stroke-linecap="round" opacity="0.4"/></g><g id="accessory-v2-crown-avatar-v2-layer-eyes" data-eye-style="classicRound"><circle cx="75" cy="86" r="5" fill="#3d2c30"/><circle cx="77" cy="84" r="1.5" fill="#fff8f2"/><circle cx="117" cy="86" r="5" fill="#3d2c30"/><circle cx="115" cy="84" r="1.5" fill="#fff8f2"/></g><g id="accessory-v2-crown-avatar-v2-layer-mouth" data-mouth-style="smile"><path d="M77 104c10 15 28 15 38-1" fill="none" stroke="#7a4545" stroke-width="4" stroke-linecap="round"/></g><g id="accessory-v2-crown-avatar-v2-layer-front-hair"><path data-hair-style="longSoft" d="M50 65c5-24 23-39 49-39 24 0 41 13 47 37-17-6-33-7-49-2-15 5-31 9-47 4z" fill="#a75f34" stroke="#5f321f" stroke-width="3"/><path d="M95 28c-6 17-19 30-39 38M103 30c15 8 27 19 39 34" fill="none" stroke="#5f321f" stroke-width="3" stroke-linecap="round" opacity="0.45"/></g><g id="accessory-v2-crown-avatar-v2-layer-hair-highlights"><path data-hair-highlight="longSoft" d="M65 54c17-13 38-17 60-11" fill="none" stroke="#c98250" stroke-width="5" stroke-linecap="round" opacity="0.52"/><path data-hair-highlight="longSoft" d="M126 75c3 18-1 35-10 50" fill="none" stroke="#c98250" stroke-width="4" stroke-linecap="round" opacity="0.38"/></g><g id="accessory-v2-crown-avatar-v2-layer-accessory" data-avatar-mount="headTop"><path data-accessory-asset="crown" d="M62 74l9-21 17 17 16-25 17 25 17-17 8 21v18h-84z" fill="#8fc8ef" stroke="#417895" stroke-width="3" stroke-linejoin="round"/><path d="M76 81h40" stroke="#b6ddf6" stroke-width="4" stroke-linecap="round" opacity="0.65"/></g></svg><text id="accessory-v2-label-crown" x="110" y="491" text-anchor="middle" font-family="Inter, Arial, sans-serif" font-size="15" fill="#4b3a2f">Kroon</text></g><g id="accessory-v2-cell-sunHat"><rect id="accessory-v2-card-sunHat" x="226" y="269" width="208" height="230" rx="18" fill="#fffaf3" stroke="#eadfce"/><svg x="234" y="277" width="192" height="192" viewBox="0 0 192 192" role="img" aria-label="Avatar met Zonnehoed"><g id="accessory-v2-sunHat-avatar-v2-layer-back-hair"><path data-hair-style="curlyPlayful" data-concept="loose-wavy-curls-fixed" d="M49 71c-2-27 18-46 48-46 29 1 48 19 47 45 7 24 0 45-18 58-5-18-13-31-27-42-14 10-24 24-30 42-18-13-26-34-20-57z" fill="#43271f" stroke="#35211d" stroke-width="3"/><path d="M61 74c3 19 10 34 22 46M132 72c-2 19-10 34-23 46" fill="none" stroke="#35211d" stroke-width="3" stroke-linecap="round" opacity="0.38"/></g><g id="accessory-v2-sunHat-avatar-v2-layer-shirt"><path data-clothing-asset="hoodie" d="M41 173c7-33 27-51 55-51s48 18 55 51z" fill="#9edfc0" stroke="#4d846d" stroke-width="3"/><path d="M63 139c10-17 23-24 33-24s23 7 33 24c-12 11-54 11-66 0z" fill="#70be98" stroke="#4d846d" stroke-width="3"/><path d="M78 130c8 9 27 11 36 0" fill="none" stroke="#c1edd7" stroke-width="5" stroke-linecap="round" opacity="0.65"/><path d="M88 137l-4 21M104 137l4 21" stroke="#4d846d" stroke-width="3" stroke-linecap="round"/><circle cx="84" cy="160" r="2.5" fill="#4d846d"/><circle cx="108" cy="160" r="2.5" fill="#4d846d"/></g><g id="accessory-v2-sunHat-avatar-v2-layer-base"><ellipse data-anatomy="ear-left" cx="44" cy="95" rx="8.5" ry="12.5" fill="#d8a37d" stroke="#7e543f" stroke-width="3"/><ellipse data-anatomy="ear-right" cx="148" cy="95" rx="8.5" ry="12.5" fill="#d8a37d" stroke="#7e543f" stroke-width="3"/><path data-anatomy="head-round" d="M96 34c30 0 51 20 51 46 0 29-21 46-51 46s-51-17-51-46c0-26 21-46 51-46z" fill="#d8a37d" stroke="#7e543f" stroke-width="3"/><path d="M64 56c17-17 45-21 64-2" fill="none" stroke="#edc09b" stroke-width="8" stroke-linecap="round" opacity="0.4"/></g><g id="accessory-v2-sunHat-avatar-v2-layer-eyes" data-eye-style="classicRound"><circle cx="77" cy="83" r="5" fill="#3d2c30"/><circle cx="79" cy="81" r="1.5" fill="#fff8f2"/><circle cx="115" cy="83" r="5" fill="#3d2c30"/><circle cx="113" cy="81" r="1.5" fill="#fff8f2"/></g><g id="accessory-v2-sunHat-avatar-v2-layer-mouth" data-mouth-style="smile"><path d="M77 102c10 15 28 15 38-1" fill="none" stroke="#7a4545" stroke-width="4" stroke-linecap="round"/></g><g id="accessory-v2-sunHat-avatar-v2-layer-front-hair"><path data-hair-style="curlyPlayful" data-concept="loose-wavy-curls-fixed" d="M51 65c7-23 25-37 49-37 23 0 39 13 44 34-12-5-25-4-36 2-10 5-20 8-30 6-9-1-18-3-27-5z" fill="#68402f" stroke="#35211d" stroke-width="3"/><path d="M97 29c-7 12-18 22-36 34M103 31c14 7 25 17 36 31M76 70c10 6 24 4 37-4" fill="none" stroke="#35211d" stroke-width="3" stroke-linecap="round" opacity="0.5"/></g><g id="accessory-v2-sunHat-avatar-v2-layer-hair-highlights"><path data-hair-highlight="curlyPlayful" data-concept="loose-wavy-curls-fixed" d="M66 54c16-13 34-17 55-10" fill="none" stroke="#8a5d47" stroke-width="4" stroke-linecap="round" opacity="0.58"/><path data-hair-highlight="curlyPlayful" data-concept="loose-wavy-curls-fixed" d="M121 64c7 4 12 11 14 20" fill="none" stroke="#8a5d47" stroke-width="3" stroke-linecap="round" opacity="0.42"/></g><g id="accessory-v2-sunHat-avatar-v2-layer-accessory" data-avatar-mount="headTop"><path data-accessory-asset="sunHat" d="M58 65c6-22 70-22 76 0v11h-76z" fill="#9edfc0" stroke="#4f8f70" stroke-width="3"/><path d="M36 76c32-10 88-10 120 0-16 13-105 13-120 0z" fill="#72bf9a" stroke="#4f8f70" stroke-width="3"/><path d="M68 66c15-5 38-5 56 0" stroke="#c5efd9" stroke-width="4" stroke-linecap="round" opacity="0.6"/></g></svg><text id="accessory-v2-label-sunHat" x="330" y="491" text-anchor="middle" font-family="Inter, Arial, sans-serif" font-size="15" fill="#4b3a2f">Zonnehoed</text></g><g id="accessory-v2-cell-helmet"><rect id="accessory-v2-card-helmet" x="446" y="269" width="208" height="230" rx="18" fill="#fffaf3" stroke="#eadfce"/><svg x="454" y="277" width="192" height="192" viewBox="0 0 192 192" role="img" aria-label="Avatar met Helm"><g id="accessory-v2-helmet-avatar-v2-layer-shirt"><path data-clothing-asset="hoodie" d="M41 173c7-33 27-51 55-51s48 18 55 51z" fill="#bcaee8" stroke="#695b9b" stroke-width="3"/><path d="M63 139c10-17 23-24 33-24s23 7 33 24c-12 11-54 11-66 0z" fill="#9486c7" stroke="#695b9b" stroke-width="3"/><path d="M78 130c8 9 27 11 36 0" fill="none" stroke="#d8cef4" stroke-width="5" stroke-linecap="round" opacity="0.65"/><path d="M88 137l-4 21M104 137l4 21" stroke="#695b9b" stroke-width="3" stroke-linecap="round"/><circle cx="84" cy="160" r="2.5" fill="#695b9b"/><circle cx="108" cy="160" r="2.5" fill="#695b9b"/></g><g id="accessory-v2-helmet-avatar-v2-layer-base"><ellipse data-anatomy="ear-left" cx="51" cy="94" rx="8" ry="13.5" fill="#d8a37d" stroke="#7e543f" stroke-width="3"/><ellipse data-anatomy="ear-right" cx="141" cy="94" rx="8" ry="13.5" fill="#d8a37d" stroke="#7e543f" stroke-width="3"/><path data-anatomy="head-oval" d="M96 27c27 0 44 22 44 53 0 34-18 53-44 53s-44-19-44-53c0-31 17-53 44-53z" fill="#d8a37d" stroke="#7e543f" stroke-width="3"/><path d="M71 49c17-17 45-21 64-2" fill="none" stroke="#edc09b" stroke-width="8" stroke-linecap="round" opacity="0.4"/></g><g id="accessory-v2-helmet-avatar-v2-layer-eyes" data-eye-style="classicRound"><circle cx="79" cy="82" r="5" fill="#3d2c30"/><circle cx="81" cy="80" r="1.5" fill="#fff8f2"/><circle cx="113" cy="82" r="5" fill="#3d2c30"/><circle cx="111" cy="80" r="1.5" fill="#fff8f2"/></g><g id="accessory-v2-helmet-avatar-v2-layer-mouth" data-mouth-style="smile"><path d="M77 104c10 15 28 15 38-1" fill="none" stroke="#7a4545" stroke-width="4" stroke-linecap="round"/></g><g id="accessory-v2-helmet-avatar-v2-layer-front-hair"><path d="M49 68c3-29 22-43 50-42 27 2 44 18 47 48-16-10-31-12-47-10-20 3-35 1-50 4z" fill="#a75f34" stroke="#5f321f" stroke-width="3"/><path d="M135 63c8 20 3 43-14 54" fill="#a75f34" stroke="#5f321f" stroke-width="3"/></g><g id="accessory-v2-helmet-avatar-v2-layer-hair-highlights"><path d="M69 42c16-9 38-10 54 0" fill="none" stroke="#c98250" stroke-width="6" stroke-linecap="round" opacity="0.45"/></g><g id="accessory-v2-helmet-avatar-v2-layer-accessory" data-avatar-mount="headTop"><path data-accessory-asset="helmet" d="M53 70c0-31 18-47 43-47s43 16 43 47v8h-86z" fill="#8fc8ef" stroke="#417895" stroke-width="3"/><path d="M96 26v47M64 54c19 6 45 6 64 0" stroke="#b6ddf6" stroke-width="4" stroke-linecap="round" opacity="0.62"/></g></svg><text id="accessory-v2-label-helmet" x="550" y="491" text-anchor="middle" font-family="Inter, Arial, sans-serif" font-size="15" fill="#4b3a2f">Helm</text></g><g id="accessory-v2-cell-necklace"><rect id="accessory-v2-card-necklace" x="666" y="269" width="208" height="230" rx="18" fill="#fffaf3" stroke="#eadfce"/><svg x="674" y="277" width="192" height="192" viewBox="0 0 192 192" role="img" aria-label="Avatar met Ketting"><g id="accessory-v2-necklace-avatar-v2-layer-back-hair"><path data-hair-style="shortMessy" d="M47 73c-1-26 18-44 49-45 31 0 51 17 50 43-10-6-22-8-35-5-18 4-35 2-50-6-6 3-11 8-14 13z" fill="#43271f" stroke="#35211d" stroke-width="3"/></g><g id="accessory-v2-necklace-avatar-v2-layer-shirt"><path data-clothing-asset="hoodie" d="M41 173c7-33 27-51 55-51s48 18 55 51z" fill="#efa0b8" stroke="#9b526b" stroke-width="3"/><path d="M63 139c10-17 23-24 33-24s23 7 33 24c-12 11-54 11-66 0z" fill="#d67595" stroke="#9b526b" stroke-width="3"/><path d="M78 130c8 9 27 11 36 0" fill="none" stroke="#fac3d2" stroke-width="5" stroke-linecap="round" opacity="0.65"/><path d="M88 137l-4 21M104 137l4 21" stroke="#9b526b" stroke-width="3" stroke-linecap="round"/><circle cx="84" cy="160" r="2.5" fill="#9b526b"/><circle cx="108" cy="160" r="2.5" fill="#9b526b"/></g><g id="accessory-v2-necklace-avatar-v2-layer-base"><ellipse data-anatomy="ear-left" cx="38" cy="97" rx="9" ry="12" fill="#d8a37d" stroke="#7e543f" stroke-width="3"/><ellipse data-anatomy="ear-right" cx="154" cy="97" rx="9" ry="12" fill="#d8a37d" stroke="#7e543f" stroke-width="3"/><path data-anatomy="head-wide" d="M57 52C75 38 117 38 135 52C150 64 152 97 137 113C119 133 73 133 55 113C40 97 42 64 57 52z" fill="#d8a37d" stroke="#7e543f" stroke-width="3"/><path d="M58 62c17-17 45-21 64-2" fill="none" stroke="#edc09b" stroke-width="8" stroke-linecap="round" opacity="0.4"/></g><g id="accessory-v2-necklace-avatar-v2-layer-eyes" data-eye-style="classicRound"><circle cx="75" cy="86" r="5" fill="#3d2c30"/><circle cx="77" cy="84" r="1.5" fill="#fff8f2"/><circle cx="117" cy="86" r="5" fill="#3d2c30"/><circle cx="115" cy="84" r="1.5" fill="#fff8f2"/></g><g id="accessory-v2-necklace-avatar-v2-layer-mouth" data-mouth-style="smile"><path d="M77 104c10 15 28 15 38-1" fill="none" stroke="#7a4545" stroke-width="4" stroke-linecap="round"/></g><g id="accessory-v2-necklace-avatar-v2-layer-front-hair"><path data-hair-style="shortMessy" d="M49 66c7-22 25-36 49-37 18-1 34 5 45 17 4 4 6 9 7 15-11-4-22-3-33 3l-9 13-10-17-15 19-6-17c-10 8-20 9-28 4z" fill="#68402f" stroke="#35211d" stroke-width="3"/><path d="M62 47c8-8 19-13 32-15M88 35c-5 8-8 17-9 27M116 36c10 5 17 13 22 24" fill="none" stroke="#35211d" stroke-width="3" stroke-linecap="round" opacity="0.46"/></g><g id="accessory-v2-necklace-avatar-v2-layer-glasses" fill="none" stroke="#30495c" stroke-width="4" stroke-linecap="round"><rect x="60" y="74" width="30" height="24" rx="8"/><rect x="102" y="74" width="30" height="24" rx="8"/><path fill="none" d="M90 86H102"/><path fill="none" d="M60 84L47 89M132 84L145 89"/></g><g id="accessory-v2-necklace-avatar-v2-layer-hair-highlights"><path data-hair-highlight="shortMessy" d="M68 45c14-8 33-10 50-4" fill="none" stroke="#8a5d47" stroke-width="5" stroke-linecap="round" opacity="0.58"/><path data-hair-highlight="shortMessy" d="M90 56c-4 5-7 10-11 15" fill="none" stroke="#8a5d47" stroke-width="4" stroke-linecap="round" opacity="0.42"/></g><g id="accessory-v2-necklace-avatar-v2-layer-accessory" data-avatar-mount="chestCenter"><path data-accessory-asset="necklace" d="M72 132q24 34 48 0" fill="none" stroke="#4f8f70" stroke-width="4" stroke-linecap="round"/><circle cx="96" cy="159" r="8" fill="#9edfc0" stroke="#4f8f70" stroke-width="3"/><path d="M93 157h6" stroke="#c5efd9" stroke-width="3" stroke-linecap="round" opacity="0.7"/></g></svg><text id="accessory-v2-label-necklace" x="770" y="491" text-anchor="middle" font-family="Inter, Arial, sans-serif" font-size="15" fill="#4b3a2f">Ketting</text></g><g id="accessory-v2-cell-scarf"><rect id="accessory-v2-card-scarf" x="886" y="269" width="208" height="230" rx="18" fill="#fffaf3" stroke="#eadfce"/><svg x="894" y="277" width="192" height="192" viewBox="0 0 192 192" role="img" aria-label="Avatar met Sjaal"><g id="accessory-v2-scarf-avatar-v2-layer-back-hair"><path data-hair-style="longSoft" d="M47 70c-2-29 18-47 49-47 30 0 50 18 49 48 6 31-7 57-31 65-2-17-7-35-18-51-11 16-16 34-18 51-24-8-37-34-31-66z" fill="#7d3f24" stroke="#5f321f" stroke-width="3"/><path d="M61 74c-2 22 3 42 16 58M132 74c2 22-3 42-17 58" fill="none" stroke="#5f321f" stroke-width="3" stroke-linecap="round" opacity="0.38"/></g><g id="accessory-v2-scarf-avatar-v2-layer-shirt"><path data-clothing-asset="hoodie" d="M41 173c7-33 27-51 55-51s48 18 55 51z" fill="#8fc8ef" stroke="#417895" stroke-width="3"/><path d="M63 139c10-17 23-24 33-24s23 7 33 24c-12 11-54 11-66 0z" fill="#67a8d8" stroke="#417895" stroke-width="3"/><path d="M78 130c8 9 27 11 36 0" fill="none" stroke="#b6ddf6" stroke-width="5" stroke-linecap="round" opacity="0.65"/><path d="M88 137l-4 21M104 137l4 21" stroke="#417895" stroke-width="3" stroke-linecap="round"/><circle cx="84" cy="160" r="2.5" fill="#417895"/><circle cx="108" cy="160" r="2.5" fill="#417895"/></g><g id="accessory-v2-scarf-avatar-v2-layer-base"><ellipse data-anatomy="ear-left" cx="44" cy="95" rx="8.5" ry="12.5" fill="#d8a37d" stroke="#7e543f" stroke-width="3"/><ellipse data-anatomy="ear-right" cx="148" cy="95" rx="8.5" ry="12.5" fill="#d8a37d" stroke="#7e543f" stroke-width="3"/><path data-anatomy="head-round" d="M96 34c30 0 51 20 51 46 0 29-21 46-51 46s-51-17-51-46c0-26 21-46 51-46z" fill="#d8a37d" stroke="#7e543f" stroke-width="3"/><path d="M64 56c17-17 45-21 64-2" fill="none" stroke="#edc09b" stroke-width="8" stroke-linecap="round" opacity="0.4"/></g><g id="accessory-v2-scarf-avatar-v2-layer-eyes" data-eye-style="classicRound"><circle cx="77" cy="83" r="5" fill="#3d2c30"/><circle cx="79" cy="81" r="1.5" fill="#fff8f2"/><circle cx="115" cy="83" r="5" fill="#3d2c30"/><circle cx="113" cy="81" r="1.5" fill="#fff8f2"/></g><g id="accessory-v2-scarf-avatar-v2-layer-mouth" data-mouth-style="smile"><path d="M77 102c10 15 28 15 38-1" fill="none" stroke="#7a4545" stroke-width="4" stroke-linecap="round"/></g><g id="accessory-v2-scarf-avatar-v2-layer-front-hair"><path data-hair-style="longSoft" d="M50 65c5-24 23-39 49-39 24 0 41 13 47 37-17-6-33-7-49-2-15 5-31 9-47 4z" fill="#a75f34" stroke="#5f321f" stroke-width="3"/><path d="M95 28c-6 17-19 30-39 38M103 30c15 8 27 19 39 34" fill="none" stroke="#5f321f" stroke-width="3" stroke-linecap="round" opacity="0.45"/></g><g id="accessory-v2-scarf-avatar-v2-layer-hair-highlights"><path data-hair-highlight="longSoft" d="M65 54c17-13 38-17 60-11" fill="none" stroke="#c98250" stroke-width="5" stroke-linecap="round" opacity="0.52"/><path data-hair-highlight="longSoft" d="M126 75c3 18-1 35-10 50" fill="none" stroke="#c98250" stroke-width="4" stroke-linecap="round" opacity="0.38"/></g><g id="accessory-v2-scarf-avatar-v2-layer-accessory" data-avatar-mount="chestCenter"><path data-accessory-asset="scarf" d="M65 133c15 14 47 14 62 0v15c-16 13-47 13-62 0z" fill="#8fc8ef" stroke="#417895" stroke-width="3"/><path d="M94 144l-10 35h20l8-33z" fill="#67a8d8" stroke="#417895" stroke-width="3" stroke-linejoin="round"/><path d="M76 144c11 6 28 6 40 0" stroke="#b6ddf6" stroke-width="4" stroke-linecap="round" opacity="0.55"/></g></svg><text id="accessory-v2-label-scarf" x="990" y="491" text-anchor="middle" font-family="Inter, Arial, sans-serif" font-size="15" fill="#4b3a2f">Sjaal</text></g></svg>